SplineFontDB: 1.0
FontName: DejaVuSansCondensed-Oblique
FullName: DejaVu Sans Condensed Oblique
FamilyName: DejaVu Sans Condensed
Weight: Book
Copyright: Copyright (c) 2003 by Bitstream, Inc. All Rights Reserved.\nDejaVu changes are in public domain\n
Version: 2.0
ItalicAngle: -11
UnderlinePosition: -213
UnderlineWidth: 143
Ascent: 1556
Descent: 492
Order2: 1
NeedsXUIDChange: 1
FSType: 0
PfmFamily: 17
TTFWeight: 400
TTFWidth: 5
LineGap: 0
VLineGap: 0
Panose: 2 11 6 6 3 3 4 11 2 4
OS2TypoAscent: 1556
OS2TypoAOffset: 0
OS2TypoDescent: -492
OS2TypoDOffset: 0
OS2TypoLinegap: 410
OS2WinAscent: 1901
OS2WinAOffset: 0
OS2WinDescent: 483
OS2WinDOffset: 0
HheadAscent: 1901
HheadAOffset: 0
HheadDescent: -483
HheadDOffset: 0
OS2Vendor: 'PfEd'
ScriptLang: 2
 1 latn 1 dflt 
 1 DFLT 1 dflt 
TtfTable: prep 1036
\,q1Gs0;P*YU'CT1'=\F"0E%8XE+jTX>0mYrWB/H"/ub4W$MPDQ34#\"/YhrV#CIk3Wl,U"/.IP
TV#-dTU#\P9gJrT;ZiUH".^,.S<a8H$3Qar".9c(R!f(']*"Au"-cMG"dFE;PPtZIO[fS<I05U%
"-AQ_"d&]cNuJ1]rWA/Z"-!3]MuEg9M&lhXrW@uu",J]7L].C/('B3g"+pLSJc5b%rW@ZL"+L4O
I7kjiI:NG-rW@KZ"+#7)"a^.MH$ETuH+O0(J-:+@,mAO!"*d'6G9m?7rW@;/"*A&UEt/:mE?td/
A-6gj&d<8$")nkTDbWM$Du'QR5l^fcD>jWRrW?pO");O2"_qQMBhK`UBfZ?0:(%5=(^"D_%L$K#
"(i#FARkmR9gJqnQ31Xr"(G[I"_.H5@136G?Ps#TA-61F&-ZDY"'uN@>m^[=>7Ca@rW?@6"'SDb
"^72o=]c.;=XXAS%Kff/"'/F6"]kU)<E*6-<P&?5J-8hM,m@7R"&qMg;^DNDrW?"o/d5,O"&LTP
:JM9$:D<n+$Nj*r,m@"/"&)?6"\emt91fd"9-j[4&HbW("%Yoo"\AUp7hGhmrW>Ug"%<+j6UH2)
6iI0SI02e7"$l\b5PbIGq?&i<63TLN"$=R+3]9;.3`?,@r]kE)3.1lf2F7R*">'d863B+E"#TuZ
1HGUnq?&D["#'WU/cGi'rW=YR/HmXZ""Fia.0C+b.3epC*Wmc:%L"4j"""K[,ln>V,r,QJ$lB-n
I01\t3X$c-"!S-j"X:P\+Ti8Z+WCM+*t&5p%g*ras1gmg"<S!R*XMoi5Qi)=!uqJ*"WWg1)jURE
)'oG)A-3\d&d9.!!uMXQ(D\;#(I8-=,m+n]!u1_:'D_eD&K(`brW<`7&-WX`!tbG6&,lY@"Zces
Q3.R)(^1@s!t5PG"Ul4M$Od+ErW<E03X#eT!sSi="U=r."U$C\"Zc_g!tYV=/HZ(d!s/K1"TfMC
!=Ao05Qh',!s,n4A;-!D.k<,#.k<,#.k<,#.k<,#.k<,#.k<,#.k<,#.k<,#.k<,#.k<,#.k<,#
.k<,#.k<,#.k<,#.k<,#.k<,#.k<,#.k<,#.k<,#.k<,#.k<,#.k<,#.k<,#.k<+M.k<,#.k<,#

StartChar: .notdef
Encoding: 0 -1 0
AltUni: 0
Width: 1167
Flags: W
Fore
153.2 -362 m 1,0,-1
 153.2 1444 l 1,1,-1
 1074.8 1444 l 1,2,-1
 1074.8 -362 l 1,3,-1
 153.2 -362 l 1,0,-1
256.7 -248 m 1,4,-1
 972.2 -248 l 1,5,-1
 972.2 1329 l 1,6,-1
 256.7 1329 l 1,7,-1
 256.7 -248 l 1,4,-1
EndSplineSet
EndChar
StartChar: exclam
Encoding: 33 33 33
Width: 779
Flags: W
Fore
448.55 1493 m 1,0,-1
 630.35 1493 l 1,1,-1
 516.05 838 l 1,2,-1
 435.05 481 l 1,3,-1
 289.25 481 l 1,4,-1
 334.25 838 l 1,5,-1
 448.55 1493 l 1,0,-1
232.55 254 m 1,6,-1
 415.25 254 l 1,7,-1
 371.15 0 l 1,8,-1
 186.65 0 l 1,9,-1
 232.55 254 l 1,6,-1
EndSplineSet
EndChar
StartChar: quotedbl
Encoding: 34 34 34
Width: 894
Flags: W
Fore
377.4 1493 m 1,0,-1
 377.4 938 l 1,1,-1
 224.4 938 l 1,2,-1
 224.4 1493 l 1,3,-1
 377.4 1493 l 1,0,-1
717.6 1493 m 1,4,-1
 717.6 938 l 1,5,-1
 564.6 938 l 1,6,-1
 564.6 1493 l 1,7,-1
 717.6 1493 l 1,4,-1
EndSplineSet
EndChar
StartChar: numbersign
Encoding: 35 35 35
Width: 1630
Flags: W
Fore
893.6 1470 m 1,0,-1
 800 1055 l 1,1,-1
 1062.8 1055 l 1,2,-1
 1157.3 1470 l 1,3,-1
 1301.3 1470 l 1,4,-1
 1208.6 1055 l 1,5,-1
 1511 1055 l 1,6,-1
 1475.9 901 l 1,7,-1
 1173.5 901 l 1,8,-1
 1099.7 567 l 1,9,-1
 1405.7 567 l 1,10,-1
 1373.3 414 l 1,11,-1
 1064.6 414 l 1,12,-1
 971 0 l 1,13,-1
 827 0 l 1,14,-1
 919.7 414 l 1,15,-1
 656 414 l 1,16,-1
 563.3 0 l 1,17,-1
 418.4 0 l 1,18,-1
 512 414 l 1,19,-1
 215 414 l 1,20,-1
 248.3 567 l 1,21,-1
 545.3 567 l 1,22,-1
 620.9 901 l 1,23,-1
 318.5 901 l 1,24,-1
 353.6 1055 l 1,25,-1
 656 1055 l 1,26,-1
 747.8 1470 l 1,27,-1
 893.6 1470 l 1,0,-1
1028.6 901 m 1,28,-1
 766.7 901 l 1,29,-1
 691.1 567 l 1,30,-1
 954.8 567 l 1,31,-1
 1028.6 901 l 1,28,-1
EndSplineSet
EndChar
StartChar: dollar
Encoding: 36 36 36
Width: 1234
Flags: W
Fore
601.75 145 m 1,0,1
 726.85 151 726.85 151 799.75 215.5 c 128,-1,2
 872.65 280 872.65 280 872.65 383 c 0,3,4
 872.65 467 872.65 467 826.75 513 c 128,-1,5
 780.85 559 780.85 559 677.35 578 c 1,6,-1
 601.75 145 l 1,0,1
691.75 1180 m 1,7,8
 572.95 1166 572.95 1166 505.45 1102 c 128,-1,9
 437.95 1038 437.95 1038 437.95 938 c 0,10,11
 437.95 868 437.95 868 480.7 828.5 c 128,-1,12
 523.45 789 523.45 789 620.65 770 c 1,13,-1
 691.75 1180 l 1,7,8
1112.05 1262 m 1,14,-1
 1081.45 1081 l 1,15,16
 1004.05 1127 1004.05 1127 928.9 1152 c 128,-1,17
 853.75 1177 853.75 1177 782.65 1179 c 1,18,-1
 707.05 752 l 1,19,20
 872.65 723 872.65 723 959.5 637 c 128,-1,21
 1046.35 551 1046.35 551 1046.35 416 c 0,22,23
 1046.35 241 1046.35 241 917.65 126.5 c 128,-1,24
 788.95 12 788.95 12 575.65 0 c 1,25,-1
 522.55 -301 l 1,26,-1
 432.55 -301 l 1,27,-1
 485.65 0 l 1,28,29
 381.25 3 381.25 3 289.45 26.5 c 128,-1,30
 197.65 50 197.65 50 122.95 92 c 1,31,-1
 153.55 276 l 1,32,33
 236.35 214 236.35 214 326.35 180 c 128,-1,34
 416.35 146 416.35 146 511.75 142 c 1,35,-1
 590.95 598 l 1,36,37
 420.85 634 420.85 634 343.45 708.5 c 128,-1,38
 266.05 783 266.05 783 266.05 909 c 0,39,40
 266.05 1075 266.05 1075 389.8 1190 c 128,-1,41
 513.55 1305 513.55 1305 716.05 1323 c 1,42,-1
 758.35 1556 l 1,43,-1
 848.35 1556 l 1,44,-1
 808.75 1323 l 1,45,46
 889.75 1320 889.75 1320 966.7 1304.5 c 128,-1,47
 1043.65 1289 1043.65 1289 1112.05 1262 c 1,14,-1
EndSplineSet
EndChar
StartChar: percent
Encoding: 37 37 37
Width: 1848
Flags: W
Fore
530.15 707 m 0,0,1
 407.75 707 407.75 707 336.2 795.5 c 128,-1,2
 264.65 884 264.65 884 264.65 1036 c 0,3,4
 264.65 1252 264.65 1252 369.05 1386 c 128,-1,5
 473.45 1520 473.45 1520 640.85 1520 c 0,6,7
 763.25 1520 763.25 1520 834.8 1430.5 c 128,-1,8
 906.35 1341 906.35 1341 906.35 1188 c 0,9,10
 906.35 974 906.35 974 801.95 840.5 c 128,-1,11
 697.55 707 697.55 707 530.15 707 c 0,0,1
762.35 1182 m 0,12,13
 762.35 1287 762.35 1287 727.25 1340 c 128,-1,14
 692.15 1393 692.15 1393 622.85 1393 c 0,15,16
 522.05 1393 522.05 1393 465.35 1296 c 128,-1,17
 408.65 1199 408.65 1199 408.65 1026 c 0,18,19
 408.65 934 408.65 934 445.1 884 c 128,-1,20
 481.55 834 481.55 834 549.05 834 c 0,21,22
 645.35 834 645.35 834 703.85 929 c 128,-1,23
 762.35 1024 762.35 1024 762.35 1182 c 0,12,13
1536.35 446 m 0,24,25
 1536.35 553 1536.35 553 1502.15 606 c 128,-1,26
 1467.95 659 1467.95 659 1398.65 659 c 0,27,28
 1298.75 659 1298.75 659 1241.6 561.5 c 128,-1,29
 1184.45 464 1184.45 464 1184.45 291 c 0,30,31
 1184.45 198 1184.45 198 1220.9 148 c 128,-1,32
 1257.35 98 1257.35 98 1324.85 98 c 0,33,34
 1421.15 98 1421.15 98 1478.75 193 c 128,-1,35
 1536.35 288 1536.35 288 1536.35 446 c 0,24,25
1305.95 -29 m 0,36,37
 1183.55 -29 1183.55 -29 1112.45 60 c 128,-1,38
 1041.35 149 1041.35 149 1041.35 301 c 0,39,40
 1041.35 517 1041.35 517 1145.3 650.5 c 128,-1,41
 1249.25 784 1249.25 784 1416.65 784 c 0,42,43
 1539.05 784 1539.05 784 1609.7 696 c 128,-1,44
 1680.35 608 1680.35 608 1680.35 455 c 0,45,46
 1680.35 240 1680.35 240 1576.4 105.5 c 128,-1,47
 1472.45 -29 1472.45 -29 1305.95 -29 c 0,36,37
1611.95 1520 m 1,48,-1
 501.35 -29 l 1,49,-1
 357.35 -29 l 1,50,-1
 1468.85 1520 l 1,51,-1
 1611.95 1520 l 1,48,-1
EndSplineSet
EndChar
StartChar: ampersand
Encoding: 38 38 38
Width: 1517
Flags: W
Fore
950.45 260 m 1,0,-1
 567.05 803 l 1,1,2
 458.15 715 458.15 715 401.9 616 c 128,-1,3
 345.65 517 345.65 517 345.65 414 c 0,4,5
 345.65 287 345.65 287 422.6 210 c 128,-1,6
 499.55 133 499.55 133 627.35 133 c 0,7,8
 711.95 133 711.95 133 794.3 165.5 c 128,-1,9
 876.65 198 876.65 198 950.45 260 c 1,0,-1
1436.45 801 m 1,10,11
 1395.95 642 1395.95 642 1329.8 510 c 128,-1,12
 1263.65 378 1263.65 378 1170.95 270 c 1,13,-1
 1359.05 0 l 1,14,-1
 1132.25 0 l 1,15,-1
 1036.85 139 l 1,16,17
 941.45 56 941.45 56 831.65 13.5 c 128,-1,18
 721.85 -29 721.85 -29 602.15 -29 c 0,19,20
 403.25 -29 403.25 -29 284.9 80 c 128,-1,21
 166.55 189 166.55 189 166.55 369 c 0,22,23
 166.55 523 166.55 523 249.8 660 c 128,-1,24
 333.05 797 333.05 797 496.85 913 c 1,25,26
 468.95 959 468.95 959 455.9 1006.5 c 128,-1,27
 442.85 1054 442.85 1054 442.85 1108 c 0,28,29
 442.85 1176 442.85 1176 463.55 1237 c 128,-1,30
 484.25 1298 484.25 1298 522.95 1348 c 0,31,32
 585.05 1430 585.05 1430 678.65 1475 c 128,-1,33
 772.25 1520 772.25 1520 880.25 1520 c 0,34,35
 950.45 1520 950.45 1520 1021.55 1502 c 128,-1,36
 1092.65 1484 1092.65 1484 1165.55 1448 c 1,37,-1
 1134.05 1266 l 1,38,39
 1066.55 1313 1066.55 1313 999.5 1337.5 c 128,-1,40
 932.45 1362 932.45 1362 869.45 1362 c 0,41,42
 757.85 1362 757.85 1362 688.1 1297.5 c 128,-1,43
 618.35 1233 618.35 1233 618.35 1133 c 0,44,45
 618.35 1089 618.35 1089 635.45 1046 c 128,-1,46
 652.55 1003 652.55 1003 714.65 915 c 2,47,-1
 1080.95 395 l 1,48,49
 1148.45 474 1148.45 474 1196.15 576.5 c 128,-1,50
 1243.85 679 1243.85 679 1269.05 801 c 1,51,-1
 1436.45 801 l 1,10,11
EndSplineSet
EndChar
StartChar: quotesingle
Encoding: 39 39 39
Width: 534
Flags: W
Fore
358.5 1493 m 1,0,-1
 358.5 938 l 1,1,-1
 205.5 938 l 1,2,-1
 205.5 1493 l 1,3,-1
 358.5 1493 l 1,0,-1
EndSplineSet
EndChar
StartChar: parenleft
Encoding: 40 40 40
Width: 770
Flags: W
Fore
838.2 1554 m 1,0,1
 599.7 1223 599.7 1223 482.25 925.5 c 128,-1,2
 364.8 628 364.8 628 364.8 352 c 0,3,4
 364.8 194 364.8 194 399 38.5 c 128,-1,5
 433.2 -117 433.2 -117 501.6 -270 c 1,6,-1
 357.6 -270 l 1,7,8
 274.8 -98 274.8 -98 234.3 64.5 c 128,-1,9
 193.8 227 193.8 227 193.8 383 c 0,10,11
 193.8 680 193.8 680 317.55 971.5 c 128,-1,12
 441.3 1263 441.3 1263 691.5 1554 c 1,13,-1
 838.2 1554 l 1,0,1
EndSplineSet
EndChar
StartChar: parenright
Encoding: 41 41 41
Width: 742
Flags: W
Fore
-91.1504 -270 m 1,0,1
 148.25 61 148.25 61 265.25 358.5 c 128,-1,2
 382.25 656 382.25 656 382.25 932 c 0,3,4
 382.25 1090 382.25 1090 348.5 1245.5 c 128,-1,5
 314.75 1401 314.75 1401 246.35 1554 c 1,6,-1
 390.35 1554 l 1,7,8
 473.15 1381 473.15 1381 513.65 1220 c 128,-1,9
 554.15 1059 554.15 1059 554.15 903 c 0,10,11
 554.15 605 554.15 605 429.5 311.5 c 128,-1,12
 304.85 18 304.85 18 56.4502 -270 c 1,13,-1
 -91.1504 -270 l 1,0,1
EndSplineSet
EndChar
StartChar: asterisk
Encoding: 42 42 42
Width: 972
Flags: W
Fore
917.9 1247 m 1,0,-1
 594.8 1053 l 1,1,-1
 917.9 858 l 1,2,-1
 865.7 760 l 1,3,-1
 563.3 963 l 1,4,-1
 563.3 586 l 1,5,-1
 460.7 586 l 1,6,-1
 460.7 963 l 1,7,-1
 158.3 760 l 1,8,-1
 106.1 858 l 1,9,-1
 429.2 1053 l 1,10,-1
 106.1 1247 l 1,11,-1
 158.3 1346 l 1,12,-1
 460.7 1143 l 1,13,-1
 460.7 1520 l 1,14,-1
 563.3 1520 l 1,15,-1
 563.3 1143 l 1,16,-1
 865.7 1346 l 1,17,-1
 917.9 1247 l 1,0,-1
EndSplineSet
EndChar
StartChar: plus
Encoding: 43 43 43
Width: 1630
Flags: W
Fore
933.6 1284 m 1,0,-1
 933.6 727 l 1,1,-1
 1434.9 727 l 1,2,-1
 1434.9 557 l 1,3,-1
 933.6 557 l 1,4,-1
 933.6 0 l 1,5,-1
 782.4 0 l 1,6,-1
 782.4 557 l 1,7,-1
 281.1 557 l 1,8,-1
 281.1 727 l 1,9,-1
 782.4 727 l 1,10,-1
 782.4 1284 l 1,11,-1
 933.6 1284 l 1,0,-1
EndSplineSet
EndChar
StartChar: comma
Encoding: 44 44 44
Width: 605
Flags: W
Fore
185.65 254 m 1,0,-1
 375.55 254 l 1,1,-1
 345.85 82 l 1,2,-1
 141.55 -238 l 1,3,-1
 25.4502 -238 l 1,4,-1
 155.05 82 l 1,5,-1
 185.65 254 l 1,0,-1
EndSplineSet
EndChar
StartChar: hyphen
Encoding: 45 45 45
Width: 702
Flags: W
Fore
150.3 643 m 1,0,-1
 635.4 643 l 1,1,-1
 607.5 479 l 1,2,-1
 120.6 479 l 1,3,-1
 150.3 643 l 1,0,-1
EndSplineSet
KernsSLIFO: 356 -149 0 0 221 -149 0 0 376 -149 0 0 89 -149 0 0 88 -73 0 0 87 -36 0 0 86 -83 0 0 84 -149 0 0
EndChar
StartChar: period
Encoding: 46 46 46
Width: 610
Flags: W
Fore
176.1 254 m 1,0,-1
 366 254 l 1,1,-1
 321.9 0 l 1,2,-1
 132 0 l 1,3,-1
 176.1 254 l 1,0,-1
EndSplineSet
EndChar
StartChar: slash
Encoding: 47 47 47
Width: 657
Flags: W
Fore
662.6 1493 m 1,0,-1
 822.8 1493 l 1,1,-1
 60.5 -190 l 1,2,-1
 -98.7998 -190 l 1,3,-1
 662.6 1493 l 1,0,-1
EndSplineSet
EndChar
StartChar: zero
Encoding: 48 48 48
Width: 1237
Flags: W
Fore
768.9 1520 m 0,0,1
 951.6 1520 951.6 1520 1048.35 1385 c 128,-1,2
 1145.1 1250 1145.1 1250 1145.1 997 c 0,3,4
 1145.1 805 1145.1 805 1099.65 615.5 c 128,-1,5
 1054.2 426 1054.2 426 972.3 276 c 1,6,7
 888.6 126 888.6 126 775.65 48.5 c 128,-1,8
 662.7 -29 662.7 -29 525.9 -29 c 0,9,10
 349.5 -29 349.5 -29 253.2 107 c 128,-1,11
 156.9 243 156.9 243 156.9 494 c 0,12,13
 156.9 684 156.9 684 203.25 874.5 c 128,-1,14
 249.6 1065 249.6 1065 332.4 1214 c 0,15,16
 415.2 1364 415.2 1364 526.35 1442 c 128,-1,17
 637.5 1520 637.5 1520 768.9 1520 c 0,0,1
758.1 1360 m 0,18,19
 689.7 1360 689.7 1360 628.05 1319.5 c 128,-1,20
 566.4 1279 566.4 1279 516.9 1200 c 0,21,22
 434.1 1068 434.1 1068 385.05 870.5 c 128,-1,23
 336 673 336 673 336 465 c 0,24,25
 336 300 336 300 388.65 215.5 c 128,-1,26
 441.3 131 441.3 131 543.9 131 c 0,27,28
 615.9 131 615.9 131 677.1 171.5 c 128,-1,29
 738.3 212 738.3 212 787.8 291 c 0,30,31
 869.7 422 869.7 422 917.85 619.5 c 128,-1,32
 966 817 966 817 966 1026 c 0,33,34
 966 1191 966 1191 913.35 1275.5 c 128,-1,35
 860.7 1360 860.7 1360 758.1 1360 c 0,18,19
EndSplineSet
EndChar
StartChar: one
Encoding: 49 49 49
Width: 1227
Flags: W
Fore
174.35 170 m 1,0,-1
 471.35 170 l 1,1,-1
 672.05 1319 l 1,2,-1
 336.35 1247 l 1,3,-1
 367.85 1421 l 1,4,-1
 701.75 1493 l 1,5,-1
 884.45 1493 l 1,6,-1
 652.25 170 l 1,7,-1
 948.35 170 l 1,8,-1
 919.55 0 l 1,9,-1
 144.65 0 l 1,10,-1
 174.35 170 l 1,0,-1
EndSplineSet
EndChar
StartChar: two
Encoding: 50 50 50
Width: 1231
Flags: W
Fore
908.8 721 m 2,0,-1
 328.3 168 l 1,1,-1
 970 168 l 1,2,-1
 938.5 0 l 1,3,-1
 66.4004 0 l 1,4,-1
 96.0996 170 l 1,5,-1
 702.7 748 l 1,6,7
 824.2 865 824.2 865 875.05 953.5 c 128,-1,8
 925.9 1042 925.9 1042 925.9 1135 c 0,9,10
 925.9 1232 925.9 1232 864.7 1293 c 128,-1,11
 803.5 1354 803.5 1354 704.5 1354 c 0,12,13
 619 1354 619 1354 514.6 1320 c 128,-1,14
 410.2 1286 410.2 1286 291.4 1221 c 1,15,-1
 324.7 1421 l 1,16,17
 436.3 1470 436.3 1470 538 1495 c 128,-1,18
 639.7 1520 639.7 1520 726.1 1520 c 0,19,20
 902.5 1520 902.5 1520 1010.05 1416 c 128,-1,21
 1117.6 1312 1117.6 1312 1117.6 1143 c 0,22,23
 1117.6 1029 1117.6 1029 1066.3 925.5 c 128,-1,24
 1015 822 1015 822 908.8 721 c 2,0,-1
EndSplineSet
EndChar
StartChar: three
Encoding: 51 51 51
Width: 1231
Flags: W
Fore
350.35 1456 m 1,0,1
 449.35 1488 449.35 1488 542.5 1504 c 128,-1,2
 635.65 1520 635.65 1520 725.65 1520 c 0,3,4
 903.85 1520 903.85 1520 1008.25 1432 c 128,-1,5
 1112.65 1344 1112.65 1344 1112.65 1196 c 0,6,7
 1112.65 1051 1112.65 1051 1030.3 947 c 128,-1,8
 947.95 843 947.95 843 803.05 805 c 1,9,10
 916.45 769 916.45 769 969.55 693 c 128,-1,11
 1022.65 617 1022.65 617 1022.65 492 c 0,12,13
 1022.65 372 1022.65 372 970.9 267 c 128,-1,14
 919.15 162 919.15 162 821.95 86 c 0,15,16
 748.15 28 748.15 28 645.55 -0.5 c 128,-1,17
 542.95 -29 542.95 -29 408.85 -29 c 0,18,19
 324.25 -29 324.25 -29 237.85 -10.5 c 128,-1,20
 151.45 8 151.45 8 62.3496 45 c 1,21,-1
 95.6504 236 l 1,22,23
 180.25 184 180.25 184 266.2 158.5 c 128,-1,24
 352.15 133 352.15 133 442.15 133 c 0,25,26
 619.45 133 619.45 133 729.7 234.5 c 128,-1,27
 839.95 336 839.95 336 839.95 498 c 0,28,29
 839.95 602 839.95 602 769.75 658.5 c 128,-1,30
 699.55 715 699.55 715 569.05 715 c 2,31,-1
 412.45 715 l 1,32,-1
 440.35 879 l 1,33,-1
 605.95 879 l 2,34,35
 755.35 879 755.35 879 841.3 955 c 128,-1,36
 927.25 1031 927.25 1031 927.25 1161 c 0,37,38
 927.25 1255 927.25 1255 864.25 1306.5 c 128,-1,39
 801.25 1358 801.25 1358 686.95 1358 c 0,40,41
 600.55 1358 600.55 1358 510.1 1337.5 c 128,-1,42
 419.65 1317 419.65 1317 322.45 1276 c 1,43,-1
 350.35 1456 l 1,0,1
EndSplineSet
EndChar
StartChar: four
Encoding: 52 52 52
Width: 1232
Flags: W
Fore
852.6 1493 m 1,0,-1
 1081.2 1493 l 1,1,-1
 909.3 520 l 1,2,-1
 1101 520 l 1,3,-1
 1071.3 352 l 1,4,-1
 879.6 352 l 1,5,-1
 819.3 0 l 1,6,-1
 638.4 0 l 1,7,-1
 699.6 352 l 1,8,-1
 93 352 l 1,9,-1
 128.1 547 l 1,10,-1
 852.6 1493 l 1,0,-1
868.8 1317 m 1,11,-1
 269.4 520 l 1,12,-1
 728.4 520 l 1,13,-1
 868.8 1317 l 1,11,-1
EndSplineSet
EndChar
StartChar: five
Encoding: 53 53 53
Width: 1234
Flags: W
Fore
1132.55 1493 m 1,0,-1
 1104.65 1325 l 1,1,-1
 548.45 1325 l 1,2,-1
 483.65 956 l 1,3,4
 525.05 971 525.05 971 567.8 978 c 128,-1,5
 610.55 985 610.55 985 654.65 985 c 0,6,7
 840.95 985 840.95 985 948.95 874 c 128,-1,8
 1056.95 763 1056.95 763 1056.95 573 c 0,9,10
 1056.95 440 1056.95 440 1001.6 318 c 128,-1,11
 946.25 196 946.25 196 844.55 104 c 0,12,13
 772.55 40 772.55 40 668.6 5.5 c 128,-1,14
 564.65 -29 564.65 -29 441.35 -29 c 0,15,16
 360.35 -29 360.35 -29 275.75 -13 c 128,-1,17
 191.15 3 191.15 3 98.4502 35 c 1,18,-1
 131.75 223 l 1,19,20
 214.55 178 214.55 178 297.8 155.5 c 128,-1,21
 381.05 133 381.05 133 465.65 133 c 0,22,23
 641.15 133 641.15 133 755.9 250 c 128,-1,24
 870.65 367 870.65 367 870.65 543 c 0,25,26
 870.65 673 870.65 673 795.5 745 c 128,-1,27
 720.35 817 720.35 817 585.35 817 c 0,28,29
 514.25 817 514.25 817 437.3 798.5 c 128,-1,30
 360.35 780 360.35 780 279.35 743 c 1,31,-1
 409.85 1493 l 1,32,-1
 1132.55 1493 l 1,0,-1
EndSplineSet
EndChar
StartChar: six
Encoding: 54 54 54
Width: 1239
Flags: W
Fore
913.05 553 m 0,0,1
 913.05 680 913.05 680 854.55 753.5 c 128,-1,2
 796.05 827 796.05 827 695.25 827 c 0,3,4
 555.75 827 555.75 827 460.8 707.5 c 128,-1,5
 365.85 588 365.85 588 365.85 412 c 0,6,7
 365.85 280 365.85 280 423.9 205.5 c 128,-1,8
 481.95 131 481.95 131 584.55 131 c 0,9,10
 724.95 131 724.95 131 819 253.5 c 128,-1,11
 913.05 376 913.05 376 913.05 553 c 0,0,1
1157.85 1458 m 1,12,-1
 1127.25 1274 l 1,13,14
 1075.05 1312 1075.05 1312 1007.55 1332 c 128,-1,15
 940.05 1352 940.05 1352 863.55 1352 c 0,16,17
 677.25 1352 677.25 1352 564.3 1222 c 128,-1,18
 451.35 1092 451.35 1092 395.55 815 c 1,19,20
 461.25 900 461.25 900 548.1 943.5 c 128,-1,21
 634.95 987 634.95 987 735.75 987 c 0,22,23
 900.45 987 900.45 987 998.1 881.5 c 128,-1,24
 1095.75 776 1095.75 776 1095.75 598 c 0,25,26
 1095.75 452 1095.75 452 1047.6 326.5 c 128,-1,27
 999.45 201 999.45 201 907.65 106 c 0,28,29
 844.65 41 844.65 41 760.95 6 c 128,-1,30
 677.25 -29 677.25 -29 582.75 -29 c 0,31,32
 397.35 -29 397.35 -29 290.25 102 c 128,-1,33
 183.15 233 183.15 233 183.15 461 c 0,34,35
 183.15 673 183.15 673 232.2 869.5 c 128,-1,36
 281.25 1066 281.25 1066 369.45 1210 c 0,37,38
 462.15 1362 462.15 1362 594 1441 c 128,-1,39
 725.85 1520 725.85 1520 885.15 1520 c 0,40,41
 955.35 1520 955.35 1520 1023.75 1504.5 c 128,-1,42
 1092.15 1489 1092.15 1489 1157.85 1458 c 1,12,-1
EndSplineSet
EndChar
StartChar: seven
Encoding: 55 55 55
Width: 1246
Flags: W
Fore
309.5 1493 m 1,0,-1
 1229.3 1493 l 1,1,-1
 1213.1 1407 l 1,2,-1
 444.5 0 l 1,3,-1
 244.7 0 l 1,4,-1
 971 1323 l 1,5,-1
 279.8 1323 l 1,6,-1
 309.5 1493 l 1,0,-1
EndSplineSet
EndChar
StartChar: eight
Encoding: 56 56 56
Width: 1236
Flags: W
Fore
884 453 m 0,0,1
 884 566 884 566 812.9 637.5 c 128,-1,2
 741.8 709 741.8 709 626.6 709 c 0,3,4
 486.2 709 486.2 709 394.85 615.5 c 128,-1,5
 303.5 522 303.5 522 303.5 379 c 0,6,7
 303.5 265 303.5 265 373.25 198 c 128,-1,8
 443 131 443 131 561.8 131 c 0,9,10
 703.1 131 703.1 131 793.55 222 c 128,-1,11
 884 313 884 313 884 453 c 0,0,1
976.7 1149 m 0,12,13
 976.7 1244 976.7 1244 913.7 1302 c 128,-1,14
 850.7 1360 850.7 1360 746.3 1360 c 0,15,16
 623 1360 623 1360 543.35 1283 c 128,-1,17
 463.7 1206 463.7 1206 463.7 1090 c 0,18,19
 463.7 990 463.7 990 526.25 929 c 128,-1,20
 588.8 868 588.8 868 692.3 868 c 0,21,22
 816.5 868 816.5 868 896.6 947.5 c 128,-1,23
 976.7 1027 976.7 1027 976.7 1149 c 0,12,13
853.4 786 m 1,24,25
 955.1 743 955.1 743 1009.1 656 c 128,-1,26
 1063.1 569 1063.1 569 1063.1 446 c 0,27,28
 1063.1 239 1063.1 239 919.1 105 c 128,-1,29
 775.1 -29 775.1 -29 547.4 -29 c 0,30,31
 353.9 -29 353.9 -29 239.6 76.5 c 128,-1,32
 125.3 182 125.3 182 125.3 358 c 0,33,34
 125.3 518 125.3 518 223.4 642.5 c 128,-1,35
 321.5 767 321.5 767 479 801 c 1,36,37
 384.5 837 384.5 837 335 912.5 c 128,-1,38
 285.5 988 285.5 988 285.5 1096 c 0,39,40
 285.5 1277 285.5 1277 420.95 1398.5 c 128,-1,41
 556.4 1520 556.4 1520 764.3 1520 c 0,42,43
 938 1520 938 1520 1047.35 1421.5 c 128,-1,44
 1156.7 1323 1156.7 1323 1156.7 1171 c 0,45,46
 1156.7 1039 1156.7 1039 1075.25 935.5 c 128,-1,47
 993.8 832 993.8 832 853.4 786 c 1,24,25
EndSplineSet
EndChar
StartChar: nine
Encoding: 57 57 57
Width: 1236
Flags: W
Fore
144.3 33 m 1,0,-1
 177.6 217 l 1,1,2
 229.8 179 229.8 179 296.4 159 c 128,-1,3
 363 139 363 139 439.5 139 c 0,4,5
 625.8 139 625.8 139 739.65 270 c 128,-1,6
 853.5 401 853.5 401 909.3 678 c 1,7,8
 842.7 593 842.7 593 754.95 548.5 c 128,-1,9
 667.2 504 667.2 504 566.4 504 c 0,10,11
 402.6 504 402.6 504 305.85 609.5 c 128,-1,12
 209.1 715 209.1 715 209.1 893 c 0,13,14
 209.1 1039 209.1 1039 256.8 1164.5 c 128,-1,15
 304.5 1290 304.5 1290 397.2 1384 c 1,16,17
 460.2 1450 460.2 1450 543 1485 c 128,-1,18
 625.8 1520 625.8 1520 719.4 1520 c 0,19,20
 905.7 1520 905.7 1520 1013.7 1388.5 c 128,-1,21
 1121.7 1257 1121.7 1257 1121.7 1030 c 0,22,23
 1121.7 819 1121.7 819 1071.75 622 c 128,-1,24
 1021.8 425 1021.8 425 933.6 281 c 0,25,26
 840 129 840 129 708.6 50 c 128,-1,27
 577.2 -29 577.2 -29 417 -29 c 0,28,29
 347.7 -29 347.7 -29 278.85 -13.5 c 128,-1,30
 210 2 210 2 144.3 33 c 1,0,-1
389.1 940 m 0,31,32
 389.1 813 389.1 813 448.5 738.5 c 128,-1,33
 507.9 664 507.9 664 608.7 664 c 0,34,35
 748.2 664 748.2 664 842.7 783 c 128,-1,36
 937.2 902 937.2 902 937.2 1079 c 0,37,38
 937.2 1211 937.2 1211 878.7 1285.5 c 128,-1,39
 820.2 1360 820.2 1360 717.6 1360 c 0,40,41
 578.1 1360 578.1 1360 483.6 1238.5 c 128,-1,42
 389.1 1117 389.1 1117 389.1 940 c 0,31,32
EndSplineSet
EndChar
StartChar: colon
Encoding: 58 58 58
Width: 652
Flags: W
Fore
313.2 1059 m 1,0,-1
 503.1 1059 l 1,1,-1
 459 805 l 1,2,-1
 269.1 805 l 1,3,-1
 313.2 1059 l 1,0,-1
171.9 254 m 1,4,-1
 361.8 254 l 1,5,-1
 316.8 0 l 1,6,-1
 126.9 0 l 1,7,-1
 171.9 254 l 1,4,-1
EndSplineSet
EndChar
StartChar: semicolon
Encoding: 59 59 59
Width: 648
Flags: W
Fore
189.45 254 m 1,0,-1
 379.35 254 l 1,1,-1
 347.85 82 l 1,2,-1
 145.35 -238 l 1,3,-1
 29.25 -238 l 1,4,-1
 157.95 82 l 1,5,-1
 189.45 254 l 1,0,-1
329.85 1059 m 1,6,-1
 519.75 1059 l 1,7,-1
 475.65 805 l 1,8,-1
 285.75 805 l 1,9,-1
 329.85 1059 l 1,6,-1
EndSplineSet
EndChar
StartChar: less
Encoding: 60 60 60
Width: 1630
Flags: W
Fore
1434.9 1008 m 1,0,-1
 506.1 641 l 1,1,-1
 1434.9 276 l 1,2,-1
 1434.9 94 l 1,3,-1
 281.1 559 l 1,4,-1
 281.1 725 l 1,5,-1
 1434.9 1190 l 1,6,-1
 1434.9 1008 l 1,0,-1
EndSplineSet
EndChar
StartChar: equal
Encoding: 61 61 61
Width: 1630
Flags: W
Fore
281.1 930 m 1,0,-1
 1434.9 930 l 1,1,-1
 1434.9 762 l 1,2,-1
 281.1 762 l 1,3,-1
 281.1 930 l 1,0,-1
281.1 522 m 1,4,-1
 1434.9 522 l 1,5,-1
 1434.9 352 l 1,6,-1
 281.1 352 l 1,7,-1
 281.1 522 l 1,4,-1
EndSplineSet
EndChar
StartChar: greater
Encoding: 62 62 62
Width: 1630
Flags: W
Fore
281.1 1008 m 1,0,-1
 281.1 1190 l 1,1,-1
 1434.9 725 l 1,2,-1
 1434.9 559 l 1,3,-1
 281.1 94 l 1,4,-1
 281.1 276 l 1,5,-1
 1208.1 641 l 1,6,-1
 281.1 1008 l 1,0,-1
EndSplineSet
EndChar
StartChar: question
Encoding: 63 63 63
Width: 1043
Flags: W
Fore
523.95 254 m 1,0,-1
 479.85 0 l 1,1,-1
 297.15 0 l 1,2,-1
 341.25 254 l 1,3,-1
 523.95 254 l 1,0,-1
325.05 1407 m 1,4,5
 416.85 1464 416.85 1464 508.2 1492 c 128,-1,6
 599.55 1520 599.55 1520 694.95 1520 c 0,7,8
 839.85 1520 839.85 1520 923.55 1445 c 128,-1,9
 1007.25 1370 1007.25 1370 1007.25 1241 c 0,10,11
 1007.25 1138 1007.25 1138 959.1 1048 c 128,-1,12
 910.95 958 910.95 958 802.05 860 c 2,13,-1
 708.45 776 l 1,14,15
 632.85 710 632.85 710 607.65 663 c 128,-1,16
 582.45 616 582.45 616 566.25 524 c 1,17,-1
 543.75 401 l 1,18,-1
 372.75 401 l 1,19,-1
 400.65 555 l 1,20,21
 416.85 649 416.85 649 451.95 714.5 c 128,-1,22
 487.05 780 487.05 780 586.95 872 c 2,23,-1
 682.35 961 l 2,24,25
 757.95 1031 757.95 1031 788.55 1084 c 128,-1,26
 819.15 1137 819.15 1137 819.15 1194 c 0,27,28
 819.15 1270 819.15 1270 770.1 1313 c 128,-1,29
 721.05 1356 721.05 1356 634.65 1356 c 0,30,31
 562.65 1356 562.65 1356 474 1320.5 c 128,-1,32
 385.35 1285 385.35 1285 291.75 1219 c 1,33,-1
 325.05 1407 l 1,4,5
EndSplineSet
EndChar
StartChar: at
Encoding: 64 64 64
Width: 1946
Flags: W
Fore
1230.95 238 m 1,0,1
 1168.85 164 1168.85 164 1096.4 126 c 128,-1,2
 1023.95 88 1023.95 88 945.65 88 c 0,3,4
 813.35 88 813.35 88 726.5 187 c 128,-1,5
 639.65 286 639.65 286 639.65 438 c 0,6,7
 639.65 658 639.65 658 773.3 822.5 c 128,-1,8
 906.95 987 906.95 987 1086.05 987 c 0,9,10
 1168.85 987 1168.85 987 1234.1 947 c 128,-1,11
 1299.35 907 1299.35 907 1334.45 836 c 1,12,-1
 1358.75 967 l 1,13,-1
 1487.45 967 l 1,14,-1
 1358.75 229 l 1,15,16
 1518.05 257 1518.05 257 1620.65 409 c 128,-1,17
 1723.25 561 1723.25 561 1723.25 770 c 0,18,19
 1723.25 1003 1723.25 1003 1574.75 1150.5 c 128,-1,20
 1426.25 1298 1426.25 1298 1190.45 1298 c 0,21,22
 1030.25 1298 1030.25 1298 880.85 1235.5 c 128,-1,23
 731.45 1173 731.45 1173 617.15 1059 c 1,24,25
 486.65 925 486.65 925 413.75 749 c 128,-1,26
 340.85 573 340.85 573 340.85 389 c 0,27,28
 340.85 128 340.85 128 497.9 -42.5 c 128,-1,29
 654.95 -213 654.95 -213 897.95 -213 c 0,30,31
 1014.05 -213 1014.05 -213 1126.55 -169.5 c 128,-1,32
 1239.05 -126 1239.05 -126 1362.35 -33 c 1,33,-1
 1436.15 -147 l 1,34,35
 1314.65 -249 1314.65 -249 1173.8 -301.5 c 128,-1,36
 1032.95 -354 1032.95 -354 884.45 -354 c 0,37,38
 594.65 -354 594.65 -354 402.5 -140 c 128,-1,39
 210.35 74 210.35 74 210.35 401 c 0,40,41
 210.35 626 210.35 626 304.4 836.5 c 128,-1,42
 398.45 1047 398.45 1047 567.65 1200 c 0,43,44
 692.75 1314 692.75 1314 854.75 1377 c 128,-1,45
 1016.75 1440 1016.75 1440 1186.85 1440 c 0,46,47
 1475.75 1440 1475.75 1440 1665.2 1251 c 128,-1,48
 1854.65 1062 1854.65 1062 1854.65 778 c 0,49,50
 1854.65 483 1854.65 483 1671.5 286.5 c 128,-1,51
 1488.35 90 1488.35 90 1203.95 84 c 1,52,-1
 1230.95 238 l 1,0,1
1087.85 846 m 0,53,54
 960.95 846 960.95 846 872.3 734.5 c 128,-1,55
 783.65 623 783.65 623 783.65 467 c 0,56,57
 783.65 355 783.65 355 834.95 292 c 128,-1,58
 886.25 229 886.25 229 977.15 229 c 0,59,60
 1104.95 229 1104.95 229 1191.35 343 c 128,-1,61
 1277.75 457 1277.75 457 1277.75 623 c 0,62,63
 1277.75 725 1277.75 725 1226 785.5 c 128,-1,64
 1174.25 846 1174.25 846 1087.85 846 c 0,53,54
EndSplineSet
EndChar
StartChar: A
Encoding: 65 65 65
Width: 1318
Flags: W
Fore
736.15 1493 m 1,0,-1
 942.25 1493 l 1,1,-1
 1191.55 0 l 1,2,-1
 1001.65 0 l 1,3,-1
 945.85 383 l 1,4,-1
 341.05 383 l 1,5,-1
 151.15 0 l 1,6,-1
 -40.5498 0 l 1,7,-1
 736.15 1493 l 1,0,-1
801.85 1294 m 1,8,-1
 424.75 551 l 1,9,-1
 917.95 551 l 1,10,-1
 801.85 1294 l 1,8,-1
EndSplineSet
KernsSLIFO: 354 -149 0 0 538 -149 0 0 7812 -36 0 0 7810 -36 0 0 7808 -36 0 0 372 -36 0 0 356 -149 0 0 8217 -272 0 0 8221 -272 0 0 87 -36 0 0 86 -102 0 0 84 -149 0 0 59 38 0 0 58 38 0 0 46 38 0 0 44 38 0 0
EndChar
StartChar: B
Encoding: 66 66 66
Width: 1331
Flags: W
Fore
378.15 1493 m 1,0,-1
 842.55 1493 l 2,1,2
 1031.55 1493 1031.55 1493 1125.15 1415 c 128,-1,3
 1218.75 1337 1218.75 1337 1218.75 1180 c 0,4,5
 1218.75 1036 1218.75 1036 1138.2 931.5 c 128,-1,6
 1057.65 827 1057.65 827 927.15 805 c 1,7,8
 1038.75 777 1038.75 777 1094.55 698 c 128,-1,9
 1150.35 619 1150.35 619 1150.35 487 c 0,10,11
 1150.35 262 1150.35 262 1000.5 131 c 128,-1,12
 850.65 0 850.65 0 590.55 0 c 2,13,-1
 116.25 0 l 1,14,-1
 378.15 1493 l 1,0,-1
422.25 713 m 1,15,-1
 326.85 166 l 1,16,-1
 619.35 166 l 2,17,18
 784.05 166 784.05 166 873.15 250 c 128,-1,19
 962.25 334 962.25 334 962.25 487 c 0,20,21
 962.25 605 962.25 605 903.3 659 c 128,-1,22
 844.35 713 844.35 713 713.85 713 c 2,23,-1
 422.25 713 l 1,15,-1
529.35 1327 m 1,24,-1
 450.15 877 l 1,25,-1
 721.05 877 l 2,26,27
 865.95 877 865.95 877 947.4 947 c 128,-1,28
 1028.85 1017 1028.85 1017 1028.85 1141 c 0,29,30
 1028.85 1238 1028.85 1238 973.95 1282.5 c 128,-1,31
 919.05 1327 919.05 1327 798.45 1327 c 2,32,-1
 529.35 1327 l 1,24,-1
EndSplineSet
KernsSLIFO: 7922 -36 0 0 562 -36 0 0 374 -36 0 0 221 -36 0 0 376 -36 0 0 89 -36 0 0 45 -36 0 0
EndChar
StartChar: C
Encoding: 67 67 67
Width: 1362
Flags: W
Fore
1356.15 1378 m 1,0,-1
 1319.25 1165 l 1,1,2
 1232.85 1262 1232.85 1262 1136.1 1309 c 128,-1,3
 1039.35 1356 1039.35 1356 926.85 1356 c 0,4,5
 772.95 1356 772.95 1356 656.4 1274 c 128,-1,6
 539.85 1192 539.85 1192 455.25 1024 c 0,7,8
 401.25 916 401.25 916 372.9 795.5 c 128,-1,9
 344.55 675 344.55 675 344.55 553 c 0,10,11
 344.55 349 344.55 349 439.5 242 c 128,-1,12
 534.45 135 534.45 135 715.35 135 c 0,13,14
 840.45 135 840.45 135 955.65 179.5 c 128,-1,15
 1070.85 224 1070.85 224 1179.75 313 c 1,16,-1
 1137.45 74 l 1,17,18
 1030.35 23 1030.35 23 921 -3 c 128,-1,19
 811.65 -29 811.65 -29 701.85 -29 c 0,20,21
 443.55 -29 443.55 -29 298.2 127 c 128,-1,22
 152.85 283 152.85 283 152.85 561 c 0,23,24
 152.85 739 152.85 739 208.2 911 c 128,-1,25
 263.55 1083 263.55 1083 367.05 1225 c 0,26,27
 476.85 1376 476.85 1376 617.7 1448 c 128,-1,28
 758.55 1520 758.55 1520 945.75 1520 c 0,29,30
 1060.95 1520 1060.95 1520 1164 1484.5 c 128,-1,31
 1267.05 1449 1267.05 1449 1356.15 1378 c 1,0,-1
EndSplineSet
KernsSLIFO: 536 38 0 0 348 38 0 0 346 38 0 0 350 38 0 0 352 38 0 0 8217 -45 0 0 8221 -45 0 0 83 38 0 0
EndChar
StartChar: D
Encoding: 68 68 68
Width: 1496
Flags: W
Fore
388.1 1493 m 1,0,-1
 778.7 1493 l 2,1,2
 1090.1 1493 1090.1 1493 1248.95 1346.5 c 128,-1,3
 1407.8 1200 1407.8 1200 1407.8 911 c 0,4,5
 1407.8 720 1407.8 720 1347.5 543.5 c 128,-1,6
 1287.2 367 1287.2 367 1181 246 c 0,7,8
 1073.9 122 1073.9 122 909.2 61 c 128,-1,9
 744.5 0 744.5 0 519.5 0 c 2,10,-1
 126.2 0 l 1,11,-1
 388.1 1493 l 1,0,-1
541.1 1327 m 1,12,-1
 338.6 166 l 1,13,-1
 576.2 166 l 2,14,15
 881.3 166 881.3 166 1048.7 361 c 128,-1,16
 1216.1 556 1216.1 556 1216.1 911 c 0,17,18
 1216.1 1126 1216.1 1126 1108.1 1226.5 c 128,-1,19
 1000.1 1327 1000.1 1327 769.7 1327 c 2,20,-1
 541.1 1327 l 1,12,-1
EndSplineSet
EndChar
StartChar: E
Encoding: 69 69 69
Width: 1231
Flags: W
Fore
378.65 1493 m 1,0,-1
 1228.25 1493 l 1,1,-1
 1198.55 1323 l 1,2,-1
 529.85 1323 l 1,3,-1
 452.45 881 l 1,4,-1
 1094.15 881 l 1,5,-1
 1064.45 711 l 1,6,-1
 422.75 711 l 1,7,-1
 329.15 170 l 1,8,-1
 1013.15 170 l 1,9,-1
 983.45 0 l 1,10,-1
 116.75 0 l 1,11,-1
 378.65 1493 l 1,0,-1
EndSplineSet
EndChar
StartChar: F
Encoding: 70 70 70
Width: 1123
Flags: W
Fore
374.25 1493 m 1,0,-1
 1144.65 1493 l 1,1,-1
 1114.95 1323 l 1,2,-1
 525.45 1323 l 1,3,-1
 448.05 883 l 1,4,-1
 980.85 883 l 1,5,-1
 951.15 713 l 1,6,-1
 418.35 713 l 1,7,-1
 293.25 0 l 1,8,-1
 112.35 0 l 1,9,-1
 374.25 1493 l 1,0,-1
EndSplineSet
KernsSLIFO: 367 -83 0 0 193 -120 0 0 194 -120 0 0 195 -120 0 0 192 -120 0 0 252 -83 0 0 251 -83 0 0 249 -83 0 0 250 -83 0 0 196 -120 0 0 117 -83 0 0 65 -120 0 0 59 -73 0 0 58 -73 0 0 46 -264 0 0 45 -112 0 0 44 -264 0 0
EndChar
StartChar: G
Encoding: 71 71 71
Width: 1507
Flags: W
Fore
1085.05 223 m 1,0,-1
 1155.25 614 l 1,1,-1
 856.45 614 l 1,2,-1
 884.35 780 l 1,3,-1
 1361.35 780 l 1,4,-1
 1245.25 123 l 1,5,6
 1125.55 50 1125.55 50 984.25 10.5 c 128,-1,7
 842.95 -29 842.95 -29 699.85 -29 c 0,8,9
 446.95 -29 446.95 -29 304.3 127 c 128,-1,10
 161.65 283 161.65 283 161.65 561 c 0,11,12
 161.65 792 161.65 792 248.5 1000.5 c 128,-1,13
 335.35 1209 335.35 1209 488.35 1348 c 0,14,15
 584.65 1435 584.65 1435 698.95 1477.5 c 128,-1,16
 813.25 1520 813.25 1520 952.75 1520 c 0,17,18
 1078.75 1520 1078.75 1520 1194.4 1484.5 c 128,-1,19
 1310.05 1449 1310.05 1449 1415.35 1378 c 1,20,-1
 1378.45 1163 l 1,21,22
 1297.45 1257 1297.45 1257 1188.55 1306.5 c 128,-1,23
 1079.65 1356 1079.65 1356 956.35 1356 c 0,24,25
 813.25 1356 813.25 1356 704.35 1295.5 c 128,-1,26
 595.45 1235 595.45 1235 509.95 1108 c 0,27,28
 437.05 1000 437.05 1000 395.2 853.5 c 128,-1,29
 353.35 707 353.35 707 353.35 555 c 0,30,31
 353.35 346 353.35 346 449.65 240.5 c 128,-1,32
 545.95 135 545.95 135 736.75 135 c 0,33,34
 832.15 135 832.15 135 921.25 157.5 c 128,-1,35
 1010.35 180 1010.35 180 1085.05 223 c 1,0,-1
EndSplineSet
EndChar
StartChar: H
Encoding: 72 72 72
Width: 1463
Flags: W
Fore
388.4 1493 m 1,0,-1
 571.1 1493 l 1,1,-1
 464 881 l 1,2,-1
 1123.7 881 l 1,3,-1
 1230.8 1493 l 1,4,-1
 1413.5 1493 l 1,5,-1
 1151.6 0 l 1,6,-1
 968.9 0 l 1,7,-1
 1094 711 l 1,8,-1
 434.3 711 l 1,9,-1
 309.2 0 l 1,10,-1
 126.5 0 l 1,11,-1
 388.4 1493 l 1,0,-1
EndSplineSet
EndChar
StartChar: I
Encoding: 73 73 73
Width: 573
Flags: W
Fore
341.6 1493 m 1,0,-1
 524.3 1493 l 1,1,-1
 262.4 0 l 1,2,-1
 79.7002 0 l 1,3,-1
 341.6 1493 l 1,0,-1
EndSplineSet
EndChar
StartChar: J
Encoding: 74 74 74
Width: 554
Flags: W
Fore
318.25 1493 m 1,0,-1
 500.95 1493 l 1,1,-1
 257.05 104 l 2,2,3
 209.35 -167 209.35 -167 96.4004 -288.5 c 128,-1,4
 -16.5498 -410 -16.5498 -410 -219.95 -410 c 2,5,-1
 -291.95 -410 l 1,6,-1
 -262.25 -240 l 1,7,-1
 -205.55 -240 l 2,8,9
 -84.0498 -240 -84.0498 -240 -21.0498 -163 c 128,-1,10
 41.9502 -86 41.9502 -86 75.25 104 c 2,11,-1
 318.25 1493 l 1,0,-1
EndSplineSet
EndChar
StartChar: K
Encoding: 75 75 75
Width: 1285
Flags: W
Fore
388.1 1493 m 1,0,-1
 570.8 1493 l 1,1,-1
 460.1 864 l 1,2,-1
 1165.7 1493 l 1,3,-1
 1407.8 1493 l 1,4,-1
 609.5 780 l 1,5,-1
 1193.6 0 l 1,6,-1
 972.2 0 l 1,7,-1
 435.8 727 l 1,8,-1
 308.9 0 l 1,9,-1
 126.2 0 l 1,10,-1
 388.1 1493 l 1,0,-1
EndSplineSet
KernsSLIFO: 367 -55 0 0 366 -36 0 0 283 -73 0 0 268 -55 0 0 262 -55 0 0 253 -55 0 0 217 -36 0 0 219 -36 0 0 218 -36 0 0 210 -55 0 0 212 -55 0 0 211 -55 0 0 255 -55 0 0 339 -92 0 0 338 -55 0 0 213 -55 0 0 248 -92 0 0 230 -36 0 0 216 -55 0 0 252 -55 0 0 251 -55 0 0 249 -55 0 0 250 -55 0 0 245 -73 0 0 246 -73 0 0 244 -73 0 0 242 -73 0 0 243 -73 0 0 235 -73 0 0 234 -73 0 0 232 -73 0 0 233 -73 0 0 229 -73 0 0 227 -73 0 0 228 -73 0 0 226 -73 0 0 224 -73 0 0 225 -73 0 0 220 -36 0 0 214 -55 0 0 199 -55 0 0 121 -55 0 0 117 -55 0 0 111 -73 0 0 101 -73 0 0 97 -73 0 0 85 -36 0 0 79 -55 0 0 67 -55 0 0 45 -206 0 0
EndChar
StartChar: L
Encoding: 76 76 76
Width: 1080
Flags: W
Fore
363.25 1493 m 1,0,-1
 545.95 1493 l 1,1,-1
 315.55 168 l 1,2,-1
 969.85 168 l 1,3,-1
 940.15 0 l 1,4,-1
 103.15 0 l 1,5,-1
 363.25 1493 l 1,0,-1
EndSplineSet
KernsSLIFO: 356 -139 0 0 253 -73 0 0 221 -196 0 0 210 -63 0 0 212 -63 0 0 211 -63 0 0 376 -196 0 0 255 -73 0 0 8217 -368 0 0 8216 -188 0 0 8221 -368 0 0 8220 -188 0 0 338 -63 0 0 213 -63 0 0 216 -63 0 0 214 -63 0 0 121 -73 0 0 89 -196 0 0 87 -83 0 0 86 -149 0 0 84 -139 0 0 79 -63 0 0 45 -159 0 0
EndChar
StartChar: M
Encoding: 77 77 77
Width: 1678
Flags: W
Fore
399.75 1493 m 1,0,-1
 672.45 1493 l 1,1,-1
 829.05 487 l 1,2,-1
 1349.25 1493 l 1,3,-1
 1629.15 1493 l 1,4,-1
 1367.25 0 l 1,5,-1
 1190.85 0 l 1,6,-1
 1419.45 1309 l 1,7,-1
 892.05 287 l 1,8,-1
 714.75 287 l 1,9,-1
 543.75 1313 l 1,10,-1
 315.15 0 l 1,11,-1
 137.85 0 l 1,12,-1
 399.75 1493 l 1,0,-1
EndSplineSet
EndChar
StartChar: N
Encoding: 78 78 78
Width: 1455
Flags: W
Fore
388 1493 m 1,0,-1
 632.8 1493 l 1,1,-1
 1003.6 213 l 1,2,-1
 1228.6 1493 l 1,3,-1
 1405.9 1493 l 1,4,-1
 1144 0 l 1,5,-1
 898.3 0 l 1,6,-1
 528.4 1288 l 1,7,-1
 303.4 0 l 1,8,-1
 126.1 0 l 1,9,-1
 388 1493 l 1,0,-1
EndSplineSet
EndChar
StartChar: O
Encoding: 79 79 79
Width: 1531
Flags: W
Fore
921.2 1356 m 0,0,1
 771.8 1356 771.8 1356 657.5 1275.5 c 128,-1,2
 543.2 1195 543.2 1195 458.6 1030 c 0,3,4
 404.6 925 404.6 925 376.25 807 c 128,-1,5
 347.9 689 347.9 689 347.9 569 c 0,6,7
 347.9 361 347.9 361 437.45 248 c 128,-1,8
 527 135 527 135 690.8 135 c 0,9,10
 838.4 135 838.4 135 954.05 216.5 c 128,-1,11
 1069.7 298 1069.7 298 1151.6 459 c 0,12,13
 1206.5 567 1206.5 567 1235.3 685.5 c 128,-1,14
 1264.1 804 1264.1 804 1264.1 922 c 0,15,16
 1264.1 1129 1264.1 1129 1174.1 1242.5 c 128,-1,17
 1084.1 1356 1084.1 1356 921.2 1356 c 0,0,1
685.4 -29 m 0,18,19
 437.9 -29 437.9 -29 296.15 134 c 128,-1,20
 154.4 297 154.4 297 154.4 580 c 0,21,22
 154.4 742 154.4 742 209.75 911 c 128,-1,23
 265.1 1080 265.1 1080 362.3 1212 c 0,24,25
 476.6 1367 476.6 1367 617 1443.5 c 128,-1,26
 757.4 1520 757.4 1520 926.6 1520 c 0,27,28
 1173.2 1520 1173.2 1520 1315.4 1358.5 c 128,-1,29
 1457.6 1197 1457.6 1197 1457.6 918 c 0,30,31
 1457.6 746 1457.6 746 1403.6 580 c 128,-1,32
 1349.6 414 1349.6 414 1248.8 279 c 0,33,34
 1133.6 123 1133.6 123 994.55 47 c 128,-1,35
 855.5 -29 855.5 -29 685.4 -29 c 0,18,19
EndSplineSet
KernsSLIFO: 88 -55 0 0 59 38 0 0 58 38 0 0 46 -83 0 0 44 -83 0 0
EndChar
StartChar: P
Encoding: 80 80 80
Width: 1175
Flags: W
Fore
375.7 1493 m 1,0,-1
 796 1493 l 2,1,2
 979.6 1493 979.6 1493 1075.9 1398 c 128,-1,3
 1172.2 1303 1172.2 1303 1172.2 1120 c 0,4,5
 1172.2 874 1172.2 874 1030 737 c 128,-1,6
 887.8 600 887.8 600 630.4 600 c 2,7,-1
 401.8 600 l 1,8,-1
 296.5 0 l 1,9,-1
 113.8 0 l 1,10,-1
 375.7 1493 l 1,0,-1
528.7 1327 m 1,11,-1
 431.5 766 l 1,12,-1
 660.1 766 l 2,13,14
 814.9 766 814.9 766 897.7 854 c 128,-1,15
 980.5 942 980.5 942 980.5 1106 c 0,16,17
 980.5 1211 980.5 1211 924.25 1269 c 128,-1,18
 868 1327 868 1327 766.3 1327 c 2,19,-1
 528.7 1327 l 1,11,-1
EndSplineSet
KernsSLIFO: 193 -102 0 0 194 -102 0 0 195 -102 0 0 192 -102 0 0 196 -102 0 0 65 -102 0 0 59 -36 0 0 58 -36 0 0 46 -282 0 0 45 -112 0 0 44 -282 0 0
EndChar
StartChar: Q
Encoding: 81 81 81
Width: 1531
Flags: W
Fore
745.8 -27 m 1,0,1
 735.9 -28 735.9 -28 725.1 -28.5 c 128,-1,2
 714.3 -29 714.3 -29 692.7 -29 c 0,3,4
 440.7 -29 440.7 -29 298.5 131.5 c 128,-1,5
 156.3 292 156.3 292 156.3 575 c 0,6,7
 156.3 742 156.3 742 210.75 910 c 128,-1,8
 265.2 1078 265.2 1078 362.4 1212 c 0,9,10
 474.9 1366 474.9 1366 615.75 1443 c 128,-1,11
 756.6 1520 756.6 1520 926.7 1520 c 0,12,13
 1173.3 1520 1173.3 1520 1315.5 1358.5 c 128,-1,14
 1457.7 1197 1457.7 1197 1457.7 918 c 0,15,16
 1457.7 617 1457.7 617 1309.2 367 c 128,-1,17
 1160.7 117 1160.7 117 921.3 14 c 1,18,-1
 1104 -264 l 1,19,-1
 900.6 -264 l 1,20,-1
 745.8 -27 l 1,0,1
921.3 1356 m 0,21,22
 771.9 1356 771.9 1356 657.6 1275.5 c 128,-1,23
 543.3 1195 543.3 1195 458.7 1030 c 0,24,25
 404.7 925 404.7 925 376.35 807 c 128,-1,26
 348 689 348 689 348 569 c 0,27,28
 348 361 348 361 437.55 248 c 128,-1,29
 527.1 135 527.1 135 690.9 135 c 0,30,31
 838.5 135 838.5 135 954.15 216.5 c 128,-1,32
 1069.8 298 1069.8 298 1151.7 459 c 0,33,34
 1206.6 567 1206.6 567 1235.4 685.5 c 128,-1,35
 1264.2 804 1264.2 804 1264.2 922 c 0,36,37
 1264.2 1129 1264.2 1129 1174.2 1242.5 c 128,-1,38
 1084.2 1356 1084.2 1356 921.3 1356 c 0,21,22
EndSplineSet
KernsSLIFO: 45 38 0 0
EndChar
StartChar: R
Encoding: 82 82 82
Width: 1344
Flags: W
Fore
528.6 1327 m 1,0,-1
 436.8 797 l 1,1,-1
 670.8 797 l 2,2,3
 808.5 797 808.5 797 893.55 881.5 c 128,-1,4
 978.6 966 978.6 966 978.6 1102 c 0,5,6
 978.6 1211 978.6 1211 921.45 1269 c 128,-1,7
 864.3 1327 864.3 1327 757.2 1327 c 2,8,-1
 528.6 1327 l 1,0,-1
862.5 717 m 1,9,10
 920.1 702 920.1 702 958.35 643 c 128,-1,11
 996.6 584 996.6 584 1047 408 c 1,12,-1
 1161.3 0 l 1,13,-1
 969.6 0 l 1,14,-1
 864.3 383 l 2,15,16
 823.8 531 823.8 531 770.7 581 c 128,-1,17
 717.6 631 717.6 631 607.8 631 c 2,18,-1
 407.1 631 l 1,19,-1
 296.4 0 l 1,20,-1
 113.7 0 l 1,21,-1
 375.6 1493 l 1,22,-1
 785.1 1493 l 2,23,24
 971.4 1493 971.4 1493 1070.85 1399.5 c 128,-1,25
 1170.3 1306 1170.3 1306 1170.3 1130 c 0,26,27
 1170.3 974 1170.3 974 1085.7 860 c 128,-1,28
 1001.1 746 1001.1 746 862.5 717 c 1,9,10
EndSplineSet
EndChar
StartChar: S
Encoding: 83 83 83
Width: 1232
Flags: W
Fore
1173.85 1444 m 1,0,-1
 1138.75 1247 l 1,1,2
 1047.85 1301 1047.85 1301 958.3 1328.5 c 128,-1,3
 868.75 1356 868.75 1356 785.05 1356 c 0,4,5
 622.15 1356 622.15 1356 525.85 1277 c 128,-1,6
 429.55 1198 429.55 1198 429.55 1067 c 0,7,8
 429.55 995 429.55 995 465.1 956.5 c 128,-1,9
 500.65 918 500.65 918 648.25 874 c 1,10,-1
 757.15 844 l 2,11,12
 941.65 791 941.65 791 1013.65 709.5 c 128,-1,13
 1085.65 628 1085.65 628 1085.65 481 c 0,14,15
 1085.65 255 1085.65 255 925.9 113 c 128,-1,16
 766.15 -29 766.15 -29 505.15 -29 c 0,17,18
 398.05 -29 398.05 -29 290.05 -5.5 c 128,-1,19
 182.05 18 182.05 18 73.1504 66 c 1,20,-1
 110.05 274 l 1,21,22
 209.95 205 209.95 205 310.3 170 c 128,-1,23
 410.65 135 410.65 135 510.55 135 c 0,24,25
 680.65 135 680.65 135 783.25 219 c 128,-1,26
 885.85 303 885.85 303 885.85 438 c 0,27,28
 885.85 528 885.85 528 844.9 574.5 c 128,-1,29
 803.95 621 803.95 621 668.95 659 c 2,30,-1
 560.05 690 l 2,31,32
 373.75 744 373.75 744 305.8 814.5 c 128,-1,33
 237.85 885 237.85 885 237.85 1012 c 0,34,35
 237.85 1235 237.85 1235 392.2 1377.5 c 128,-1,36
 546.55 1520 546.55 1520 794.05 1520 c 0,37,38
 890.35 1520 890.35 1520 984.85 1501 c 128,-1,39
 1079.35 1482 1079.35 1482 1173.85 1444 c 1,0,-1
EndSplineSet
KernsSLIFO: 350 -73 0 0 352 -73 0 0 83 -73 0 0
EndChar
StartChar: T
Encoding: 84 84 84
Width: 1199
Flags: W
Fore
182.5 1493 m 1,0,-1
 1319.2 1493 l 1,1,-1
 1290.4 1323 l 1,2,-1
 810.7 1323 l 1,3,-1
 580.3 0 l 1,4,-1
 397.6 0 l 1,5,-1
 628 1323 l 1,6,-1
 152.8 1323 l 1,7,-1
 182.5 1493 l 1,0,-1
EndSplineSet
KernsSLIFO: 252 -206 0 0 229 -215 0 0 230 -253 0 0 59 -188 0 0 242 -253 0 0 45 -292 0 0 46 -243 0 0 367 -206 0 0 245 -253 0 0 235 -253 0 0 249 -206 0 0 58 -188 0 0 224 -215 0 0 195 -188 0 0 234 -253 0 0 231 -253 0 0 341 -159 0 0 232 -253 0 0 196 -188 0 0 193 -188 0 0 269 -253 0 0 251 -206 0 0 253 -178 0 0 227 -215 0 0 194 -188 0 0 248 -253 0 0 244 -253 0 0 353 -243 0 0 65 -188 0 0 283 -253 0 0 351 -243 0 0 228 -215 0 0 119 -167 0 0 246 -253 0 0 250 -206 0 0 263 -253 0 0 225 -215 0 0 345 -159 0 0 226 -215 0 0 233 -253 0 0 97 -215 0 0 99 -253 0 0 101 -253 0 0 339 -253 0 0 255 -178 0 0 111 -253 0 0 115 -243 0 0 114 -159 0 0 117 -206 0 0 192 -188 0 0 121 -178 0 0 44 -243 0 0 243 -253 0 0
EndChar
StartChar: U
Encoding: 85 85 85
Width: 1428
Flags: W
Fore
364.25 1493 m 1,0,-1
 546.95 1493 l 1,1,-1
 388.55 586 l 1,2,3
 378.65 525 378.65 525 374.6 485.5 c 128,-1,4
 370.55 446 370.55 446 370.55 416 c 0,5,6
 370.55 278 370.55 278 439.85 206.5 c 128,-1,7
 509.15 135 509.15 135 643.25 135 c 0,8,9
 816.95 135 816.95 135 913.7 241 c 128,-1,10
 1010.45 347 1010.45 347 1051.85 586 c 1,11,-1
 1210.25 1493 l 1,12,-1
 1392.95 1493 l 1,13,-1
 1230.95 561 l 1,14,15
 1177.85 259 1177.85 259 1029.35 115 c 128,-1,16
 880.85 -29 880.85 -29 622.55 -29 c 0,17,18
 420.95 -29 420.95 -29 303.5 83.5 c 128,-1,19
 186.05 196 186.05 196 186.05 389 c 0,20,21
 186.05 424 186.05 424 190.55 467.5 c 128,-1,22
 195.05 511 195.05 511 204.05 561 c 1,23,-1
 364.25 1493 l 1,0,-1
EndSplineSet
EndChar
StartChar: V
Encoding: 86 86 86
Width: 1344
Flags: W
Fore
463.8 0 m 1,0,-1
 228 1493 l 1,1,-1
 406.2 1493 l 1,2,-1
 601.5 209 l 1,3,-1
 1254 1493 l 1,4,-1
 1452 1493 l 1,5,-1
 675.3 0 l 1,6,-1
 463.8 0 l 1,0,-1
EndSplineSet
KernsSLIFO: 367 -36 0 0 283 -120 0 0 193 -139 0 0 194 -139 0 0 339 -120 0 0 195 -139 0 0 192 -139 0 0 248 -120 0 0 230 -149 0 0 252 -36 0 0 251 -36 0 0 249 -36 0 0 250 -36 0 0 245 -120 0 0 246 -120 0 0 244 -120 0 0 242 -120 0 0 243 -120 0 0 235 -120 0 0 234 -120 0 0 232 -120 0 0 233 -120 0 0 229 -131 0 0 227 -131 0 0 228 -131 0 0 226 -131 0 0 224 -131 0 0 225 -131 0 0 196 -139 0 0 117 -36 0 0 111 -120 0 0 101 -120 0 0 97 -131 0 0 65 -139 0 0 59 -55 0 0 58 -55 0 0 46 -235 0 0 45 -178 0 0 44 -235 0 0
EndChar
StartChar: W
Encoding: 87 87 87
Width: 1936
Flags: W
Fore
291.6 1493 m 1,0,-1
 468 1493 l 1,1,-1
 532.8 223 l 1,2,-1
 1039.5 1493 l 1,3,-1
 1242 1493 l 1,4,-1
 1308.6 223 l 1,5,-1
 1809.9 1493 l 1,6,-1
 1994.4 1493 l 1,7,-1
 1396.8 0 l 1,8,-1
 1168.2 0 l 1,9,-1
 1106.1 1245 l 1,10,-1
 603 0 l 1,11,-1
 374.4 0 l 1,12,-1
 291.6 1493 l 1,0,-1
EndSplineSet
KernsSLIFO: 229 -112 0 0 230 -112 0 0 45 -159 0 0 46 -167 0 0 44 -167 0 0 224 -112 0 0 195 -102 0 0 341 -36 0 0 8221 -36 0 0 196 -102 0 0 193 -102 0 0 8217 -36 0 0 227 -112 0 0 194 -102 0 0 65 -102 0 0 228 -112 0 0 225 -112 0 0 345 -36 0 0 226 -112 0 0 97 -112 0 0 114 -36 0 0 192 -102 0 0
EndChar
StartChar: X
Encoding: 88 88 88
Width: 1330
Flags: W
Fore
320.5 1493 m 1,0,-1
 504.1 1493 l 1,1,-1
 734.5 954 l 1,2,-1
 1151.2 1493 l 1,3,-1
 1363.6 1493 l 1,4,-1
 810.1 780 l 1,5,-1
 1144 0 l 1,6,-1
 961.3 0 l 1,7,-1
 690.4 629 l 1,8,-1
 199.9 0 l 1,9,-1
 -11.5996 0 l 1,10,-1
 616.6 803 l 1,11,-1
 320.5 1493 l 1,0,-1
EndSplineSet
KernsSLIFO: 268 -36 0 0 262 -36 0 0 210 -73 0 0 212 -73 0 0 211 -73 0 0 338 -55 0 0 213 -73 0 0 216 -36 0 0 214 -73 0 0 199 -36 0 0 79 -73 0 0 67 -36 0 0 45 -188 0 0
EndChar
StartChar: Y
Encoding: 89 89 89
Width: 1201
Flags: W
Fore
191.75 1493 m 1,0,-1
 387.05 1493 l 1,1,-1
 638.15 879 l 1,2,-1
 1116.95 1493 l 1,3,-1
 1321.25 1493 l 1,4,-1
 711.95 711 l 1,5,-1
 587.75 0 l 1,6,-1
 405.95 0 l 1,7,-1
 529.25 711 l 1,8,-1
 191.75 1493 l 1,0,-1
EndSplineSet
KernsSLIFO: 367 -188 0 0 283 -225 0 0 268 -36 0 0 262 -36 0 0 210 -36 0 0 212 -36 0 0 211 -36 0 0 193 -159 0 0 194 -159 0 0 8216 -45 0 0 8220 -45 0 0 339 -225 0 0 338 -36 0 0 213 -36 0 0 195 -159 0 0 192 -159 0 0 248 -225 0 0 230 -188 0 0 216 -36 0 0 252 -188 0 0 251 -188 0 0 249 -188 0 0 250 -188 0 0 245 -225 0 0 246 -225 0 0 244 -225 0 0 242 -225 0 0 243 -225 0 0 235 -225 0 0 234 -225 0 0 232 -225 0 0 233 -225 0 0 229 -188 0 0 227 -188 0 0 228 -188 0 0 226 -188 0 0 224 -188 0 0 225 -188 0 0 214 -36 0 0 199 -36 0 0 196 -159 0 0 117 -188 0 0 111 -225 0 0 105 -36 0 0 101 -225 0 0 97 -188 0 0 79 -36 0 0 67 -36 0 0 65 -159 0 0 59 -178 0 0 58 -178 0 0 46 -264 0 0 45 -282 0 0 44 -264 0 0
EndChar
StartChar: Z
Encoding: 90 90 90
Width: 1332
Flags: W
Fore
310.95 1493 m 1,0,-1
 1365.75 1493 l 1,1,-1
 1339.65 1339 l 1,2,-1
 298.35 170 l 1,3,-1
 1155.15 170 l 1,4,-1
 1126.35 0 l 1,5,-1
 29.25 0 l 1,6,-1
 55.3496 154 l 1,7,-1
 1096.65 1323 l 1,8,-1
 282.15 1323 l 1,9,-1
 310.95 1493 l 1,0,-1
EndSplineSet
KernsSLIFO: 45 -102 0 0
EndChar
StartChar: bracketleft
Encoding: 91 91 91
Width: 766
Flags: W
Fore
439.5 1556 m 1,0,-1
 821.1 1556 l 1,1,-1
 795 1413 l 1,2,-1
 579.9 1413 l 1,3,-1
 310.8 -127 l 1,4,-1
 525.9 -127 l 1,5,-1
 502.5 -270 l 1,6,-1
 120.9 -270 l 1,7,-1
 439.5 1556 l 1,0,-1
EndSplineSet
EndChar
StartChar: backslash
Encoding: 92 92 92
Width: 656
Flags: W
Fore
345.15 1493 m 1,0,-1
 518.85 -190 l 1,1,-1
 367.65 -190 l 1,2,-1
 192.15 1493 l 1,3,-1
 345.15 1493 l 1,0,-1
EndSplineSet
EndChar
StartChar: bracketright
Encoding: 93 93 93
Width: 750
Flags: W
Fore
661.1 1556 m 1,0,-1
 342.5 -270 l 1,1,-1
 -39.0996 -270 l 1,2,-1
 -14.7998 -127 l 1,3,-1
 200.3 -127 l 1,4,-1
 469.4 1413 l 1,5,-1
 256.1 1413 l 1,6,-1
 279.5 1556 l 1,7,-1
 661.1 1556 l 1,0,-1
EndSplineSet
EndChar
StartChar: asciicircum
Encoding: 94 94 94
Width: 1630
Flags: W
Fore
946.2 1493 m 1,0,-1
 1434.9 936 l 1,1,-1
 1254 936 l 1,2,-1
 858 1331 l 1,3,-1
 462 936 l 1,4,-1
 281.1 936 l 1,5,-1
 769.8 1493 l 1,6,-1
 946.2 1493 l 1,0,-1
EndSplineSet
EndChar
StartChar: underscore
Encoding: 95 95 95
Width: 972
Flags: W
Fore
990.8 -340 m 1,0,-1
 990.8 -483 l 1,1,-1
 33.2002 -483 l 1,2,-1
 33.2002 -340 l 1,3,-1
 990.8 -340 l 1,0,-1
EndSplineSet
EndChar
StartChar: grave
Encoding: 96 96 96
Width: 980
Flags: W
Fore
586.6 1638 m 1,0,-1
 774.7 1264 l 1,1,-1
 636.1 1264 l 1,2,-1
 409.3 1638 l 1,3,-1
 586.6 1638 l 1,0,-1
EndSplineSet
EndChar
StartChar: a
Encoding: 97 97 97
Width: 1189
Flags: W
Fore
1050.2 639 m 1,0,-1
 937.7 0 l 1,1,-1
 772.1 0 l 1,2,-1
 802.7 170 l 1,3,4
 729.8 70 729.8 70 636.65 20.5 c 128,-1,5
 543.5 -29 543.5 -29 429.2 -29 c 0,6,7
 300.5 -29 300.5 -29 218.15 58.5 c 128,-1,8
 135.8 146 135.8 146 135.8 283 c 0,9,10
 135.8 479 135.8 479 276.65 593 c 128,-1,11
 417.5 707 417.5 707 665 707 c 2,12,-1
 895.4 707 l 1,13,-1
 904.4 756 l 1,14,15
 906.2 764 906.2 764 907.1 773.5 c 128,-1,16
 908 783 908 783 908 803 c 0,17,18
 908 892 908 892 842.75 941.5 c 128,-1,19
 777.5 991 777.5 991 659.6 991 c 0,20,21
 578.6 991 578.6 991 493.55 968 c 128,-1,22
 408.5 945 408.5 945 318.5 899 c 1,23,-1
 347.3 1069 l 1,24,25
 440.9 1108 440.9 1108 530.45 1127.5 c 128,-1,26
 620 1147 620 1147 703.7 1147 c 0,27,28
 881.9 1147 881.9 1147 975.05 1061 c 128,-1,29
 1068.2 975 1068.2 975 1068.2 811 c 0,30,31
 1068.2 778 1068.2 778 1063.7 733.5 c 128,-1,32
 1059.2 689 1059.2 689 1050.2 639 c 1,0,-1
871.1 563 m 1,33,-1
 705.5 563 l 2,34,35
 502.1 563 502.1 563 404.45 502.5 c 128,-1,36
 306.8 442 306.8 442 306.8 315 c 0,37,38
 306.8 227 306.8 227 356.75 177 c 128,-1,39
 406.7 127 406.7 127 494.9 127 c 0,40,41
 629.9 127 629.9 127 730.7 234.5 c 128,-1,42
 831.5 342 831.5 342 863.9 522 c 2,43,-1
 871.1 563 l 1,33,-1
EndSplineSet
EndChar
StartChar: b
Encoding: 98 98 98
Width: 1233
Flags: W
Fore
976.4 684 m 0,0,1
 976.4 829 976.4 829 916.55 911 c 128,-1,2
 856.7 993 856.7 993 751.4 993 c 0,3,4
 674.9 993 674.9 993 607.85 951.5 c 128,-1,5
 540.8 910 540.8 910 491.3 831 c 0,6,7
 439.1 748 439.1 748 408.95 638.5 c 128,-1,8
 378.8 529 378.8 529 378.8 420 c 0,9,10
 378.8 282 378.8 282 437.75 203.5 c 128,-1,11
 496.7 125 496.7 125 600.2 125 c 0,12,13
 678.5 125 678.5 125 745.1 165.5 c 128,-1,14
 811.7 206 811.7 206 862.1 285 c 0,15,16
 913.4 367 913.4 367 944.9 476 c 128,-1,17
 976.4 585 976.4 585 976.4 684 c 0,0,1
461.6 950 m 1,18,19
 522.8 1042 522.8 1042 615.05 1094.5 c 128,-1,20
 707.3 1147 707.3 1147 808.1 1147 c 0,21,22
 962.9 1147 962.9 1147 1054.25 1031 c 128,-1,23
 1145.6 915 1145.6 915 1145.6 717 c 0,24,25
 1145.6 555 1145.6 555 1092.05 403 c 128,-1,26
 1038.5 251 1038.5 251 939.5 133 c 0,27,28
 874.7 55 874.7 55 790.1 13 c 128,-1,29
 705.5 -29 705.5 -29 612.8 -29 c 0,30,31
 514.7 -29 514.7 -29 442.7 21 c 128,-1,32
 370.7 71 370.7 71 325.7 170 c 1,33,-1
 296 0 l 1,34,-1
 130.4 0 l 1,35,-1
 403.1 1556 l 1,36,-1
 568.7 1556 l 1,37,-1
 461.6 950 l 1,18,19
EndSplineSet
EndChar
StartChar: c
Encoding: 99 99 99
Width: 1073
Flags: W
Fore
1047.8 1077 m 1,0,-1
 1014.5 895 l 1,1,2
 955.1 943 955.1 943 888.05 967 c 128,-1,3
 821 991 821 991 749 991 c 0,4,5
 669.8 991 669.8 991 598.25 960 c 128,-1,6
 526.7 929 526.7 929 478.1 872 c 1,7,8
 400.7 785 400.7 785 358.4 668 c 128,-1,9
 316.1 551 316.1 551 316.1 426 c 0,10,11
 316.1 275 316.1 275 384.05 201 c 128,-1,12
 452 127 452 127 590.6 127 c 0,13,14
 659 127 659 127 735.95 150 c 128,-1,15
 812.9 173 812.9 173 896.6 219 c 1,16,-1
 865.1 37 l 1,17,18
 793.1 4 793.1 4 717.05 -12.5 c 128,-1,19
 641 -29 641 -29 560.9 -29 c 0,20,21
 360.2 -29 360.2 -29 252.2 82.5 c 128,-1,22
 144.2 194 144.2 194 144.2 401 c 0,23,24
 144.2 575 144.2 575 200.45 721.5 c 128,-1,25
 256.7 868 256.7 868 367.4 985 c 0,26,27
 443 1065 443 1065 544.7 1106 c 128,-1,28
 646.4 1147 646.4 1147 767 1147 c 0,29,30
 837.2 1147 837.2 1147 906.5 1129.5 c 128,-1,31
 975.8 1112 975.8 1112 1047.8 1077 c 1,0,-1
EndSplineSet
EndChar
StartChar: d
Encoding: 100 100 100
Width: 1240
Flags: W
Fore
840.55 168 m 1,0,1
 773.95 71 773.95 71 683.05 21 c 128,-1,2
 592.15 -29 592.15 -29 481.45 -29 c 0,3,4
 330.25 -29 330.25 -29 242.5 85.5 c 128,-1,5
 154.75 200 154.75 200 154.75 399 c 0,6,7
 154.75 565 154.75 565 207.85 715.5 c 128,-1,8
 260.95 866 260.95 866 361.75 985 c 0,9,10
 428.35 1064 428.35 1064 512.05 1105.5 c 128,-1,11
 595.75 1147 595.75 1147 687.55 1147 c 0,12,13
 784.75 1147 784.75 1147 859 1095 c 128,-1,14
 933.25 1043 933.25 1043 973.75 946 c 1,15,-1
 1081.75 1556 l 1,16,-1
 1248.25 1556 l 1,17,-1
 975.55 0 l 1,18,-1
 809.05 0 l 1,19,-1
 840.55 168 l 1,0,1
326.65 432 m 0,20,21
 326.65 287 326.65 287 385.6 206 c 128,-1,22
 444.55 125 444.55 125 548.95 125 c 0,23,24
 626.35 125 626.35 125 692.5 166.5 c 128,-1,25
 758.65 208 758.65 208 809.05 289 c 0,26,27
 862.15 373 862.15 373 892.75 483 c 128,-1,28
 923.35 593 923.35 593 923.35 700 c 0,29,30
 923.35 839 923.35 839 864.4 917 c 128,-1,31
 805.45 995 805.45 995 701.95 995 c 0,32,33
 623.65 995 623.65 995 556.15 954 c 128,-1,34
 488.65 913 488.65 913 440.95 836 c 0,35,36
 388.75 753 388.75 753 357.7 643 c 128,-1,37
 326.65 533 326.65 533 326.65 432 c 0,20,21
EndSplineSet
EndChar
StartChar: e
Encoding: 101 101 101
Width: 1197
Flags: W
Fore
949.65 660 m 1,0,1
 952.35 676 952.35 676 953.7 693 c 128,-1,2
 955.05 710 955.05 710 955.05 727 c 0,3,4
 955.05 849 955.05 849 890.7 920 c 128,-1,5
 826.35 991 826.35 991 715.65 991 c 0,6,7
 592.35 991 592.35 991 497.85 904.5 c 128,-1,8
 403.35 818 403.35 818 354.75 659 c 1,9,-1
 949.65 660 l 1,0,1
1093.65 516 m 1,10,-1
 323.25 516 l 1,11,12
 317.85 478 317.85 478 316.05 456 c 128,-1,13
 314.25 434 314.25 434 314.25 418 c 0,14,15
 314.25 279 314.25 279 391.2 203 c 128,-1,16
 468.15 127 468.15 127 608.55 127 c 0,17,18
 716.55 127 716.55 127 812.85 154 c 128,-1,19
 909.15 181 909.15 181 991.95 233 c 1,20,-1
 960.45 51 l 1,21,22
 871.35 11 871.35 11 776.4 -9 c 128,-1,23
 681.45 -29 681.45 -29 583.35 -29 c 0,24,25
 373.65 -29 373.65 -29 260.7 82.5 c 128,-1,26
 147.75 194 147.75 194 147.75 399 c 0,27,28
 147.75 574 147.75 574 204 724.5 c 128,-1,29
 260.25 875 260.25 875 369.15 993 c 1,30,31
 439.35 1067 439.35 1067 536.1 1107 c 128,-1,32
 632.85 1147 632.85 1147 741.75 1147 c 0,33,34
 912.75 1147 912.75 1147 1014 1033 c 128,-1,35
 1115.25 919 1115.25 919 1115.25 727 c 0,36,37
 1115.25 681 1115.25 681 1109.85 628.5 c 128,-1,38
 1104.45 576 1104.45 576 1093.65 516 c 1,10,-1
EndSplineSet
EndChar
StartChar: f
Encoding: 102 102 102
Width: 704
Flags: W
Fore
937 1556 m 1,0,-1
 910.9 1403 l 1,1,-1
 752.5 1403 l 2,2,3
 662.5 1403 662.5 1403 621.55 1363.5 c 128,-1,4
 580.6 1324 580.6 1324 560.8 1219 c 1,5,-1
 542.8 1120 l 1,6,-1
 815.5 1120 l 1,7,-1
 791.2 977 l 1,8,-1
 518.5 977 l 1,9,-1
 347.5 0 l 1,10,-1
 181 0 l 1,11,-1
 352.9 977 l 1,12,-1
 194.5 977 l 1,13,-1
 217.9 1120 l 1,14,-1
 376.3 1120 l 1,15,-1
 389.8 1198 l 2,16,17
 424 1396 424 1396 509.95 1476 c 128,-1,18
 595.9 1556 595.9 1556 780.4 1556 c 2,19,-1
 937 1556 l 1,0,-1
EndSplineSet
KernsSLIFO: 8217 94 0 0 8216 141 0 0 8221 94 0 0 8220 141 0 0 46 -36 0 0 45 -36 0 0 44 -36 0 0
EndChar
StartChar: g
Encoding: 103 103 103
Width: 1234
Flags: W
Fore
1163.25 1120 m 1,0,-1
 991.35 139 l 1,1,2
 941.85 -146 941.85 -146 801.9 -286 c 128,-1,3
 661.95 -426 661.95 -426 425.25 -426 c 0,4,5
 337.95 -426 337.95 -426 263.25 -411.5 c 128,-1,6
 188.55 -397 188.55 -397 123.75 -367 c 1,7,-1
 154.35 -188 l 1,8,9
 215.55 -232 215.55 -232 283.95 -253 c 128,-1,10
 352.35 -274 352.35 -274 429.75 -274 c 0,11,12
 587.25 -274 587.25 -274 688.5 -178.5 c 128,-1,13
 789.75 -83 789.75 -83 822.15 96 c 1,14,-1
 836.55 180 l 1,15,16
 767.25 92 767.25 92 675.45 46 c 128,-1,17
 583.65 0 583.65 0 477.45 0 c 0,18,19
 324.45 0 324.45 0 236.7 112.5 c 128,-1,20
 148.95 225 148.95 225 148.95 422 c 0,21,22
 148.95 577 148.95 577 202.05 725.5 c 128,-1,23
 255.15 874 255.15 874 351.45 989 c 0,24,25
 415.35 1065 415.35 1065 500.4 1106 c 128,-1,26
 585.45 1147 585.45 1147 678.15 1147 c 0,27,28
 779.85 1147 779.85 1147 855.45 1094.5 c 128,-1,29
 931.05 1042 931.05 1042 967.95 946 c 1,30,-1
 996.75 1120 l 1,31,-1
 1163.25 1120 l 1,0,-1
913.95 709 m 0,32,33
 913.95 845 913.95 845 856.35 919 c 128,-1,34
 798.75 993 798.75 993 692.55 993 c 0,35,36
 626.85 993 626.85 993 567.45 964 c 128,-1,37
 508.05 935 508.05 935 465.75 883 c 0,38,39
 397.35 797 397.35 797 359.1 680.5 c 128,-1,40
 320.85 564 320.85 564 320.85 440 c 0,41,42
 320.85 302 320.85 302 378.9 228 c 128,-1,43
 436.95 154 436.95 154 545.85 154 c 0,44,45
 703.35 154 703.35 154 808.65 312.5 c 128,-1,46
 913.95 471 913.95 471 913.95 709 c 0,32,33
EndSplineSet
EndChar
StartChar: h
Encoding: 104 104 104
Width: 1229
Flags: W
Fore
1088.45 676 m 1,0,-1
 970.55 0 l 1,1,-1
 804.05 0 l 1,2,-1
 921.95 669 l 2,3,4
 930.05 716 930.05 716 934.55 752 c 128,-1,5
 939.05 788 939.05 788 939.05 809 c 0,6,7
 939.05 893 939.05 893 891.35 940 c 128,-1,8
 843.65 987 843.65 987 758.15 987 c 0,9,10
 624.95 987 624.95 987 527.3 887 c 128,-1,11
 429.65 787 429.65 787 400.85 621 c 1,12,-1
 291.95 0 l 1,13,-1
 126.35 0 l 1,14,-1
 399.05 1556 l 1,15,-1
 564.65 1556 l 1,16,-1
 457.55 944 l 1,17,18
 520.55 1038 520.55 1038 618.65 1092.5 c 128,-1,19
 716.75 1147 716.75 1147 824.75 1147 c 0,20,21
 957.95 1147 957.95 1147 1031.3 1067 c 128,-1,22
 1104.65 987 1104.65 987 1104.65 842 c 0,23,24
 1104.65 806 1104.65 806 1100.6 765 c 128,-1,25
 1096.55 724 1096.55 724 1088.45 676 c 1,0,-1
EndSplineSet
EndChar
StartChar: i
Encoding: 105 105 105
Width: 543
Flags: W
Fore
369.05 1556 m 1,0,-1
 534.65 1556 l 1,1,-1
 494.15 1323 l 1,2,-1
 328.55 1323 l 1,3,-1
 369.05 1556 l 1,0,-1
293.45 1120 m 1,4,-1
 459.05 1120 l 1,5,-1
 261.95 0 l 1,6,-1
 96.3496 0 l 1,7,-1
 293.45 1120 l 1,4,-1
EndSplineSet
EndChar
StartChar: j
Encoding: 106 106 106
Width: 528
Flags: W
Fore
284.1 1120 m 1,0,-1
 449.7 1120 l 1,1,-1
 250.8 -20 l 1,2,-1
 249.9 -25 l 2,3,4
 216.6 -216 216.6 -216 173.4 -287 c 0,5,6
 132.9 -354 132.9 -354 55.0498 -390 c 128,-1,7
 -22.7998 -426 -22.7998 -426 -129 -426 c 2,8,-1
 -191.1 -426 l 1,9,-1
 -164.1 -270 l 1,10,-1
 -121.8 -270 l 2,11,12
 -24.5996 -270 -24.5996 -270 16.3496 -225 c 128,-1,13
 57.2998 -180 57.2998 -180 85.2002 -20 c 2,14,-1
 284.1 1120 l 1,0,-1
361.5 1556 m 1,15,-1
 527.1 1556 l 1,16,-1
 486.6 1323 l 1,17,-1
 321 1323 l 1,18,-1
 361.5 1556 l 1,15,-1
EndSplineSet
EndChar
StartChar: k
Encoding: 107 107 107
Width: 1133
Flags: W
Fore
403.75 1556 m 1,0,-1
 569.35 1556 l 1,1,-1
 410.95 649 l 1,2,-1
 978.85 1120 l 1,3,-1
 1193.95 1120 l 1,4,-1
 560.35 584 l 1,5,-1
 1022.95 0 l 1,6,-1
 822.25 0 l 1,7,-1
 392.05 547 l 1,8,-1
 296.65 0 l 1,9,-1
 131.05 0 l 1,10,-1
 403.75 1556 l 1,0,-1
EndSplineSet
EndChar
StartChar: l
Encoding: 108 108 108
Width: 543
Flags: W
Fore
369.05 1556 m 1,0,-1
 534.65 1556 l 1,1,-1
 261.95 0 l 1,2,-1
 96.3496 0 l 1,3,-1
 369.05 1556 l 1,0,-1
EndSplineSet
EndChar
StartChar: m
Encoding: 109 109 109
Width: 1891
Flags: W
Fore
1751.45 676 m 2,0,-1
 1633.55 0 l 1,1,-1
 1467.95 0 l 1,2,-1
 1584.05 670 l 1,3,4
 1591.25 713 1591.25 713 1594.85 744 c 128,-1,5
 1598.45 775 1598.45 775 1598.45 797 c 0,6,7
 1598.45 887 1598.45 887 1553.45 937 c 128,-1,8
 1508.45 987 1508.45 987 1427.45 987 c 0,9,10
 1306.85 987 1306.85 987 1212.35 886.5 c 128,-1,11
 1117.85 786 1117.85 786 1089.95 625 c 1,12,-1
 979.25 0 l 1,13,-1
 813.65 0 l 1,14,-1
 931.55 670 l 1,15,16
 938.75 707 938.75 707 942.35 738.5 c 128,-1,17
 945.95 770 945.95 770 945.95 795 c 0,18,19
 945.95 886 945.95 886 900.95 936.5 c 128,-1,20
 855.95 987 855.95 987 776.75 987 c 0,21,22
 654.35 987 654.35 987 559.85 886.5 c 128,-1,23
 465.35 786 465.35 786 437.45 625 c 1,24,-1
 326.75 0 l 1,25,-1
 161.15 0 l 1,26,-1
 358.25 1120 l 1,27,-1
 523.85 1120 l 1,28,-1
 492.35 946 l 1,29,30
 559.85 1044 559.85 1044 650.3 1095.5 c 128,-1,31
 740.75 1147 740.75 1147 844.25 1147 c 0,32,33
 954.05 1147 954.05 1147 1024.7 1083 c 128,-1,34
 1095.35 1019 1095.35 1019 1109.75 905 c 1,35,36
 1185.35 1023 1185.35 1023 1284.8 1085 c 128,-1,37
 1384.25 1147 1384.25 1147 1494.95 1147 c 0,38,39
 1624.55 1147 1624.55 1147 1695.2 1064 c 128,-1,40
 1765.85 981 1765.85 981 1765.85 829 c 0,41,42
 1765.85 796 1765.85 796 1762.25 756.5 c 128,-1,43
 1758.65 717 1758.65 717 1751.45 676 c 2,0,-1
EndSplineSet
EndChar
StartChar: n
Encoding: 110 110 110
Width: 1229
Flags: W
Fore
1088.45 676 m 1,0,-1
 970.55 0 l 1,1,-1
 804.05 0 l 1,2,-1
 921.95 669 l 2,3,4
 930.05 716 930.05 716 934.55 752 c 128,-1,5
 939.05 788 939.05 788 939.05 809 c 0,6,7
 939.05 893 939.05 893 891.35 940 c 128,-1,8
 843.65 987 843.65 987 758.15 987 c 0,9,10
 624.95 987 624.95 987 528.65 888.5 c 128,-1,11
 432.35 790 432.35 790 402.65 621 c 1,12,-1
 291.95 0 l 1,13,-1
 126.35 0 l 1,14,-1
 321.65 1120 l 1,15,-1
 487.25 1120 l 1,16,-1
 453.95 944 l 1,17,18
 523.25 1041 523.25 1041 620.45 1094 c 128,-1,19
 717.65 1147 717.65 1147 824.75 1147 c 0,20,21
 957.95 1147 957.95 1147 1031.3 1067 c 128,-1,22
 1104.65 987 1104.65 987 1104.65 842 c 0,23,24
 1104.65 806 1104.65 806 1100.6 765 c 128,-1,25
 1096.55 724 1096.55 724 1088.45 676 c 1,0,-1
EndSplineSet
EndChar
StartChar: o
Encoding: 111 111 111
Width: 1190
Flags: W
Fore
530.65 -29 m 0,0,1
 353.35 -29 353.35 -29 250.3 92.5 c 128,-1,2
 147.25 214 147.25 214 147.25 424 c 0,3,4
 147.25 546 147.25 546 182.8 672.5 c 128,-1,5
 218.35 799 218.35 799 275.05 885 c 0,6,7
 364.15 1019 364.15 1019 473.95 1083 c 128,-1,8
 583.75 1147 583.75 1147 722.35 1147 c 0,9,10
 894.25 1147 894.25 1147 1000 1028 c 128,-1,11
 1105.75 909 1105.75 909 1105.75 717 c 0,12,13
 1105.75 584 1105.75 584 1070.65 452 c 128,-1,14
 1035.55 320 1035.55 320 978.85 233 c 0,15,16
 890.65 99 890.65 99 780.85 35 c 128,-1,17
 671.05 -29 671.05 -29 530.65 -29 c 0,0,1
319.15 430 m 0,18,19
 319.15 278 319.15 278 376.3 202.5 c 128,-1,20
 433.45 127 433.45 127 549.55 127 c 0,21,22
 716.05 127 716.05 127 825.4 288.5 c 128,-1,23
 934.75 450 934.75 450 934.75 698 c 0,24,25
 934.75 843 934.75 843 876.25 917 c 128,-1,26
 817.75 991 817.75 991 704.35 991 c 0,27,28
 610.75 991 610.75 991 537.85 942.5 c 128,-1,29
 464.95 894 464.95 894 407.35 795 c 0,30,31
 365.05 721 365.05 721 342.1 626 c 128,-1,32
 319.15 531 319.15 531 319.15 430 c 0,18,19
EndSplineSet
EndChar
StartChar: p
Encoding: 112 112 112
Width: 1230
Flags: W
Fore
974.4 690 m 0,0,1
 974.4 837 974.4 837 916.8 915 c 128,-1,2
 859.2 993 859.2 993 751.2 993 c 0,3,4
 677.4 993 677.4 993 610.35 951 c 128,-1,5
 543.3 909 543.3 909 491.1 829 c 0,6,7
 439.8 750 439.8 750 409.2 638 c 128,-1,8
 378.6 526 378.6 526 378.6 416 c 0,9,10
 378.6 276 378.6 276 436.2 200.5 c 128,-1,11
 493.8 125 493.8 125 600 125 c 0,12,13
 678.3 125 678.3 125 745.35 166 c 128,-1,14
 812.4 207 812.4 207 860.1 285 c 0,15,16
 911.4 367 911.4 367 942.9 478 c 128,-1,17
 974.4 589 974.4 589 974.4 690 c 0,0,1
461.4 950 m 1,18,19
 528 1047 528 1047 618.45 1097 c 128,-1,20
 708.9 1147 708.9 1147 819.6 1147 c 0,21,22
 974.4 1147 974.4 1147 1059.9 1034.5 c 128,-1,23
 1145.4 922 1145.4 922 1145.4 719 c 0,24,25
 1145.4 553 1145.4 553 1092.3 402.5 c 128,-1,26
 1039.2 252 1039.2 252 939.3 133 c 0,27,28
 872.7 54 872.7 54 789 12.5 c 128,-1,29
 705.3 -29 705.3 -29 612.6 -29 c 0,30,31
 505.5 -29 505.5 -29 432.6 20.5 c 128,-1,32
 359.7 70 359.7 70 323.7 168 c 1,33,-1
 220.2 -426 l 1,34,-1
 54.5996 -426 l 1,35,-1
 325.5 1120 l 1,36,-1
 491.1 1120 l 1,37,-1
 461.4 950 l 1,18,19
EndSplineSet
EndChar
StartChar: q
Encoding: 113 113 113
Width: 1235
Flags: W
Fore
834.45 168 m 1,0,1
 767.85 71 767.85 71 677.4 21 c 128,-1,2
 586.95 -29 586.95 -29 477.15 -29 c 0,3,4
 324.15 -29 324.15 -29 237.3 85.5 c 128,-1,5
 150.45 200 150.45 200 150.45 401 c 0,6,7
 150.45 563 150.45 563 204 714 c 128,-1,8
 257.55 865 257.55 865 357.45 985 c 0,9,10
 422.25 1063 422.25 1063 506.4 1105 c 128,-1,11
 590.55 1147 590.55 1147 683.25 1147 c 0,12,13
 794.85 1147 794.85 1147 866.85 1098 c 128,-1,14
 938.85 1049 938.85 1049 971.25 950 c 1,15,-1
 1000.05 1118 l 1,16,-1
 1166.55 1118 l 1,17,-1
 897.45 -422 l 1,18,-1
 730.95 -422 l 1,19,-1
 834.45 168 l 1,0,1
322.35 428 m 0,20,21
 322.35 280 322.35 280 378.15 202.5 c 128,-1,22
 433.95 125 433.95 125 539.25 125 c 0,23,24
 695.85 125 695.85 125 806.55 291.5 c 128,-1,25
 917.25 458 917.25 458 917.25 696 c 0,26,27
 917.25 840 917.25 840 860.1 916.5 c 128,-1,28
 802.95 993 802.95 993 695.85 993 c 0,29,30
 617.55 993 617.55 993 550.95 952.5 c 128,-1,31
 484.35 912 484.35 912 434.85 834 c 0,32,33
 382.65 752 382.65 752 352.5 642 c 128,-1,34
 322.35 532 322.35 532 322.35 428 c 0,20,21
EndSplineSet
EndChar
StartChar: r
Encoding: 114 114 114
Width: 808
Flags: W
Fore
872.7 950 m 1,0,1
 847.5 965 847.5 965 815.1 973 c 128,-1,2
 782.7 981 782.7 981 745.8 981 c 0,3,4
 613.5 981 613.5 981 514.5 869.5 c 128,-1,5
 415.5 758 415.5 758 383.1 571 c 1,6,-1
 281.4 0 l 1,7,-1
 115.8 0 l 1,8,-1
 312.9 1120 l 1,9,-1
 478.5 1120 l 1,10,-1
 447 946 l 1,11,12
 512.7 1043 512.7 1043 604.05 1095 c 128,-1,13
 695.4 1147 695.4 1147 798.9 1147 c 0,14,15
 825.9 1147 825.9 1147 852 1143.5 c 128,-1,16
 878.1 1140 878.1 1140 904.2 1132 c 1,17,-1
 872.7 950 l 1,0,1
EndSplineSet
KernsSLIFO: 46 -188 0 0 45 -112 0 0 44 -188 0 0
EndChar
StartChar: s
Encoding: 115 115 115
Width: 1012
Flags: W
Fore
973.95 1087 m 1,0,-1
 942.45 913 l 1,1,2
 876.75 953 876.75 953 803.85 973 c 128,-1,3
 730.95 993 730.95 993 653.55 993 c 0,4,5
 523.05 993 523.05 993 447.9 943.5 c 128,-1,6
 372.75 894 372.75 894 372.75 809 c 0,7,8
 372.75 710 372.75 710 547.35 657 c 0,9,10
 560.85 653 560.85 653 567.15 651 c 2,11,-1
 620.25 633 l 1,12,13
 785.85 582 785.85 582 841.2 526 c 128,-1,14
 896.55 470 896.55 470 896.55 373 c 0,15,16
 896.55 195 896.55 195 769.2 83 c 128,-1,17
 641.85 -29 641.85 -29 435.75 -29 c 0,18,19
 355.65 -29 355.65 -29 267.45 -12 c 128,-1,20
 179.25 5 179.25 5 73.0498 41 c 1,21,-1
 105.45 231 l 1,22,23
 196.35 179 196.35 179 284.55 152 c 128,-1,24
 372.75 125 372.75 125 453.75 125 c 0,25,26
 575.25 125 575.25 125 651.3 183 c 128,-1,27
 727.35 241 727.35 241 727.35 330 c 0,28,29
 727.35 426 727.35 426 527.55 485 c 2,30,-1
 510.45 490 l 1,31,-1
 453.75 506 l 2,32,33
 327.75 543 327.75 543 269.25 603.5 c 128,-1,34
 210.75 664 210.75 664 210.75 758 c 0,35,36
 210.75 937 210.75 937 331.8 1042 c 128,-1,37
 452.85 1147 452.85 1147 660.75 1147 c 0,38,39
 742.65 1147 742.65 1147 820.5 1132 c 128,-1,40
 898.35 1117 898.35 1117 973.95 1087 c 1,0,-1
EndSplineSet
EndChar
StartChar: t
Encoding: 116 116 116
Width: 772
Flags: W
Fore
829.25 1120 m 1,0,-1
 804.05 977 l 1,1,-1
 473.75 977 l 1,2,-1
 366.65 369 l 1,3,4
 361.25 335 361.25 335 358.55 312 c 128,-1,5
 355.85 289 355.85 289 355.85 276 c 0,6,7
 355.85 212 355.85 212 390.5 183 c 128,-1,8
 425.15 154 425.15 154 501.65 154 c 2,9,-1
 669.05 154 l 1,10,-1
 641.15 0 l 1,11,-1
 482.75 0 l 2,12,13
 335.15 0 335.15 0 262.7 64 c 128,-1,14
 190.25 128 190.25 128 190.25 258 c 0,15,16
 190.25 281 190.25 281 192.95 308.5 c 128,-1,17
 195.65 336 195.65 336 201.05 369 c 1,18,-1
 308.15 977 l 1,19,-1
 167.75 977 l 1,20,-1
 193.85 1120 l 1,21,-1
 331.55 1120 l 1,22,-1
 387.35 1438 l 1,23,-1
 552.95 1438 l 1,24,-1
 498.05 1120 l 1,25,-1
 829.25 1120 l 1,0,-1
EndSplineSet
EndChar
StartChar: u
Encoding: 117 117 117
Width: 1234
Flags: W
Fore
189.45 444 m 1,0,-1
 307.35 1120 l 1,1,-1
 473.85 1120 l 1,2,-1
 355.95 451 l 1,3,4
 346.95 402 346.95 402 342.9 367 c 128,-1,5
 338.85 332 338.85 332 338.85 309 c 0,6,7
 338.85 224 338.85 224 385.65 177.5 c 128,-1,8
 432.45 131 432.45 131 517.95 131 c 0,9,10
 651.15 131 651.15 131 748.35 231 c 128,-1,11
 845.55 331 845.55 331 875.25 500 c 1,12,-1
 985.95 1120 l 1,13,-1
 1151.55 1120 l 1,14,-1
 956.25 0 l 1,15,-1
 790.65 0 l 1,16,-1
 823.95 176 l 1,17,18
 753.75 78 753.75 78 657 24.5 c 128,-1,19
 560.25 -29 560.25 -29 451.35 -29 c 0,20,21
 319.05 -29 319.05 -29 245.25 51.5 c 128,-1,22
 171.45 132 171.45 132 171.45 276 c 0,23,24
 171.45 306 171.45 306 175.95 351 c 128,-1,25
 180.45 396 180.45 396 189.45 444 c 1,0,-1
EndSplineSet
EndChar
StartChar: v
Encoding: 118 118 118
Width: 1160
Flags: W
Fore
201.5 1120 m 1,0,-1
 377 1120 l 1,1,-1
 524.6 168 l 1,2,-1
 1007 1120 l 1,3,-1
 1182.5 1120 l 1,4,-1
 609.2 0 l 1,5,-1
 386 0 l 1,6,-1
 201.5 1120 l 1,0,-1
EndSplineSet
KernsSLIFO: 46 -167 0 0 44 -167 0 0
EndChar
StartChar: w
Encoding: 119 119 119
Width: 1600
Flags: W
Fore
249.15 1120 m 1,0,-1
 412.95 1120 l 1,1,-1
 455.25 219 l 1,2,-1
 831.45 1120 l 1,3,-1
 1023.15 1120 l 1,4,-1
 1078.95 219 l 1,5,-1
 1436.25 1120 l 1,6,-1
 1601.85 1120 l 1,7,-1
 1141.05 0 l 1,8,-1
 947.55 0 l 1,9,-1
 898.05 928 l 1,10,-1
 512.85 0 l 1,11,-1
 317.55 0 l 1,12,-1
 249.15 1120 l 1,0,-1
EndSplineSet
KernsSLIFO: 46 -131 0 0 44 -131 0 0
EndChar
StartChar: x
Encoding: 120 120 120
Width: 1149
Flags: W
Fore
1164.9 1120 m 1,0,-1
 702.3 571 l 1,1,-1
 985.8 0 l 1,2,-1
 795.9 0 l 1,3,-1
 582.6 444 l 1,4,-1
 211.8 0 l 1,5,-1
 11.0996 0 l 1,6,-1
 507 590 l 1,7,-1
 243.3 1120 l 1,8,-1
 433.2 1120 l 1,9,-1
 626.7 715 l 1,10,-1
 964.2 1120 l 1,11,-1
 1164.9 1120 l 1,0,-1
EndSplineSet
EndChar
StartChar: y
Encoding: 121 121 121
Width: 1150
Flags: W
Fore
516.4 -104 m 2,0,1
 401.2 -319 401.2 -319 328.75 -372.5 c 128,-1,2
 256.3 -426 256.3 -426 143.8 -426 c 2,3,-1
 13.2998 -426 l 1,4,-1
 41.2002 -272 l 1,5,-1
 136.6 -272 l 2,6,7
 205.9 -272 205.9 -272 254.5 -230 c 128,-1,8
 303.1 -188 303.1 -188 363.4 -66 c 1,9,-1
 414.7 41 l 1,10,-1
 191.5 1120 l 1,11,-1
 367 1120 l 1,12,-1
 534.4 262 l 1,13,-1
 997 1120 l 1,14,-1
 1170.7 1120 l 1,15,-1
 516.4 -104 l 2,0,1
EndSplineSet
KernsSLIFO: 46 -159 0 0 45 -73 0 0 44 -159 0 0
EndChar
StartChar: z
Encoding: 122 122 122
Width: 1022
Flags: W
Fore
269.5 1120 m 1,0,-1
 1056.1 1120 l 1,1,-1
 1026.4 952 l 1,2,-1
 267.7 147 l 1,3,-1
 894.1 147 l 1,4,-1
 868 0 l 1,5,-1
 49.9004 0 l 1,6,-1
 79.5996 168 l 1,7,-1
 838.3 973 l 1,8,-1
 243.4 973 l 1,9,-1
 269.5 1120 l 1,0,-1
EndSplineSet
EndChar
StartChar: braceleft
Encoding: 123 123 123
Width: 1247
Flags: W
Fore
1189.45 1556 m 1,0,-1
 1163.35 1413 l 1,1,-1
 1094.05 1413 l 2,2,3
 971.65 1413 971.65 1413 929.35 1373.5 c 128,-1,4
 887.05 1334 887.05 1334 859.15 1184 c 1,5,-1
 813.25 932 l 1,6,7
 784.45 772 784.45 772 730 699.5 c 128,-1,8
 675.55 627 675.55 627 575.65 606 c 1,9,10
 641.35 588 641.35 588 677.8 536.5 c 128,-1,11
 714.25 485 714.25 485 714.25 410 c 0,12,13
 714.25 386 714.25 386 710.65 353 c 128,-1,14
 707.05 320 707.05 320 700.75 282 c 1,15,-1
 658.45 38 l 1,16,17
 653.95 7 653.95 7 651.7 -19.5 c 128,-1,18
 649.45 -46 649.45 -46 649.45 -70 c 0,19,20
 649.45 -133 649.45 -133 687.7 -161.5 c 128,-1,21
 725.95 -190 725.95 -190 813.25 -190 c 2,22,-1
 883.45 -190 l 1,23,-1
 857.35 -334 l 1,24,-1
 793.45 -334 l 2,25,26
 624.25 -334 624.25 -334 551.35 -279.5 c 128,-1,27
 478.45 -225 478.45 -225 478.45 -102 c 0,28,29
 478.45 -70 478.45 -70 481.6 -36 c 128,-1,30
 484.75 -2 484.75 -2 491.05 35 c 2,31,-1
 531.55 270 l 1,32,33
 531.55 273 531.55 273 533.35 282 c 0,34,35
 542.35 332 542.35 332 542.35 377 c 0,36,37
 542.35 462 542.35 462 498.25 499.5 c 128,-1,38
 454.15 537 454.15 537 352.45 537 c 2,39,-1
 297.55 537 l 1,40,-1
 322.75 684 l 1,41,-1
 378.55 684 l 2,42,43
 508.15 684 508.15 684 565.3 738.5 c 128,-1,44
 622.45 793 622.45 793 651.25 944 c 1,45,-1
 693.55 1188 l 1,46,47
 716.95 1311 716.95 1311 748.9 1382.5 c 128,-1,48
 780.85 1454 780.85 1454 830.35 1493 c 0,49,50
 871.75 1527 871.75 1527 933.85 1541.5 c 128,-1,51
 995.95 1556 995.95 1556 1115.65 1556 c 2,52,-1
 1189.45 1556 l 1,0,-1
EndSplineSet
EndChar
StartChar: bar
Encoding: 124 124 124
Width: 655
Flags: W
Fore
421.5 1565 m 1,0,-1
 421.5 -483 l 1,1,-1
 268.5 -483 l 1,2,-1
 268.5 1565 l 1,3,-1
 421.5 1565 l 1,0,-1
EndSplineSet
EndChar
StartChar: braceright
Encoding: 125 125 125
Width: 1223
Flags: W
Fore
63.5996 -334 m 1,0,-1
 89.7002 -190 l 1,1,-1
 159.9 -190 l 2,2,3
 282.3 -190 282.3 -190 324.6 -150.5 c 128,-1,4
 366.9 -111 366.9 -111 393.9 39 c 1,5,-1
 439.8 291 l 1,6,7
 469.5 451 469.5 451 523.5 523.5 c 128,-1,8
 577.5 596 577.5 596 677.4 616 c 1,9,10
 611.7 635 611.7 635 575.7 686 c 128,-1,11
 539.7 737 539.7 737 539.7 813 c 0,12,13
 539.7 838 539.7 838 542.85 870 c 128,-1,14
 546 902 546 902 552.3 940 c 1,15,-1
 594.6 1183 l 1,16,17
 600 1217 600 1217 601.8 1242 c 128,-1,18
 603.6 1267 603.6 1267 603.6 1292 c 0,19,20
 603.6 1356 603.6 1356 565.35 1384.5 c 128,-1,21
 527.1 1413 527.1 1413 439.8 1413 c 2,22,-1
 369.6 1413 l 1,23,-1
 393.9 1556 l 1,24,-1
 460.5 1556 l 2,25,26
 628.8 1556 628.8 1556 702.15 1502 c 128,-1,27
 775.5 1448 775.5 1448 775.5 1325 c 0,28,29
 775.5 1294 775.5 1294 772.35 1260 c 128,-1,30
 769.2 1226 769.2 1226 762 1187 c 1,31,-1
 721.5 952 l 1,32,33
 721.5 949 721.5 949 719.7 940 c 0,34,35
 710.7 891 710.7 891 710.7 846 c 0,36,37
 710.7 760 710.7 760 754.8 723 c 128,-1,38
 798.9 686 798.9 686 900.6 686 c 2,39,-1
 956.4 686 l 1,40,-1
 930.3 539 l 1,41,-1
 874.5 539 l 2,42,43
 744.9 539 744.9 539 688.2 484 c 128,-1,44
 631.5 429 631.5 429 605.4 279 c 1,45,-1
 557.7 35 l 1,46,47
 534.3 -91 534.3 -91 502.8 -161.5 c 128,-1,48
 471.3 -232 471.3 -232 423.6 -270 c 0,49,50
 381.3 -304 381.3 -304 319.2 -319 c 128,-1,51
 257.1 -334 257.1 -334 137.4 -334 c 2,52,-1
 63.5996 -334 l 1,0,-1
EndSplineSet
EndChar
StartChar: asciitilde
Encoding: 126 126 126
Width: 1630
Flags: W
Fore
1434.9 817 m 1,0,-1
 1434.9 639 l 1,1,2
 1340.4 560 1340.4 560 1259.85 526 c 128,-1,3
 1179.3 492 1179.3 492 1092 492 c 0,4,5
 993 492 993 492 861.6 551 c 0,6,7
 851.7 555 851.7 555 847.2 557 c 0,8,9
 840.9 560 840.9 560 827.4 565 c 0,10,11
 687.9 627 687.9 627 603.3 627 c 0,12,13
 524.1 627 524.1 627 446.7 588.5 c 128,-1,14
 369.3 550 369.3 550 281.1 467 c 1,15,-1
 281.1 645 l 1,16,17
 375.6 724 375.6 724 456.15 758.5 c 128,-1,18
 536.7 793 536.7 793 624 793 c 0,19,20
 723 793 723 793 855.3 733 c 0,21,22
 864.3 729 864.3 729 868.8 727 c 0,23,24
 876 724 876 724 888.6 719 c 0,25,26
 1028.1 657 1028.1 657 1112.7 657 c 0,27,28
 1190.1 657 1190.1 657 1266.15 695 c 128,-1,29
 1342.2 733 1342.2 733 1434.9 817 c 1,0,-1
EndSplineSet
EndChar
StartChar: exclamdown
Encoding: 161 161 161
Width: 781
Flags: W
Fore
381.4 0 m 1,0,-1
 198.7 0 l 1,1,-1
 313 655 l 1,2,-1
 394 1012 l 1,3,-1
 539.8 1012 l 1,4,-1
 495.7 655 l 1,5,-1
 381.4 0 l 1,0,-1
596.5 1239 m 1,6,-1
 414.7 1239 l 1,7,-1
 458.8 1493 l 1,8,-1
 643.3 1493 l 1,9,-1
 596.5 1239 l 1,6,-1
EndSplineSet
EndChar
StartChar: cent
Encoding: 162 162 162
Width: 1237
Flags: W
Fore
747.45 985 m 1,0,1
 587.25 962 587.25 962 479.25 801.5 c 128,-1,2
 371.25 641 371.25 641 371.25 426 c 0,3,4
 371.25 292 371.25 292 426.15 218.5 c 128,-1,5
 481.05 145 481.05 145 596.25 125 c 1,6,-1
 747.45 985 l 1,0,1
865.35 1145 m 1,7,8
 931.05 1138 931.05 1138 989.1 1121.5 c 128,-1,9
 1047.15 1105 1047.15 1105 1102.95 1077 c 1,10,-1
 1071.45 895 l 1,11,12
 1029.15 932 1029.15 932 973.35 954.5 c 128,-1,13
 917.55 977 917.55 977 837.45 989 c 1,14,-1
 686.25 127 l 1,15,16
 745.65 132 745.65 132 812.25 154.5 c 128,-1,17
 878.85 177 878.85 177 953.55 219 c 1,18,-1
 922.05 37 l 1,19,20
 863.55 9 863.55 9 797.85 -7.5 c 128,-1,21
 732.15 -24 732.15 -24 662.85 -29 c 1,22,-1
 608.85 -313 l 1,23,-1
 518.85 -313 l 1,24,-1
 571.95 -29 l 1,25,26
 394.65 -16 394.65 -16 298.35 95.5 c 128,-1,27
 202.05 207 202.05 207 202.05 401 c 0,28,29
 202.05 707 202.05 707 361.35 914.5 c 128,-1,30
 520.65 1122 520.65 1122 774.45 1145 c 1,31,-1
 824.85 1430 l 1,32,-1
 914.85 1430 l 1,33,-1
 865.35 1145 l 1,7,8
EndSplineSet
EndChar
StartChar: sterling
Encoding: 163 163 163
Width: 1240
Flags: W
Fore
1242.2 1460 m 1,0,-1
 1210.7 1278 l 1,1,2
 1155.8 1318 1155.8 1318 1096.85 1339 c 128,-1,3
 1037.9 1360 1037.9 1360 980.3 1360 c 0,4,5
 848 1360 848 1360 781.4 1280.5 c 128,-1,6
 714.8 1201 714.8 1201 677.9 993 c 1,7,-1
 641 778 l 1,8,-1
 992.9 778 l 1,9,-1
 966.8 635 l 1,10,-1
 614.9 635 l 1,11,-1
 533.9 170 l 1,12,-1
 1017.2 170 l 1,13,-1
 987.5 0 l 1,14,-1
 111.8 0 l 1,15,-1
 141.5 170 l 1,16,-1
 353 170 l 1,17,-1
 434.9 635 l 1,18,-1
 255.8 635 l 1,19,-1
 281.9 778 l 1,20,-1
 460.1 778 l 1,21,-1
 500.6 1016 l 1,22,23
 547.4 1278 547.4 1278 664.85 1399 c 128,-1,24
 782.3 1520 782.3 1520 991.1 1520 c 0,25,26
 1054.1 1520 1054.1 1520 1117.1 1505 c 128,-1,27
 1180.1 1490 1180.1 1490 1242.2 1460 c 1,0,-1
EndSplineSet
EndChar
StartChar: currency
Encoding: 164 164 164
Width: 1238
Flags: W
Fore
867.2 993 m 1,0,-1
 1053.5 1202 l 1,1,-1
 1156.1 1087 l 1,2,-1
 970.7 881 l 1,3,4
 1004 822 1004 822 1020.2 762.5 c 128,-1,5
 1036.4 703 1036.4 703 1036.4 641 c 0,6,7
 1036.4 578 1036.4 578 1019.3 520.5 c 128,-1,8
 1002.2 463 1002.2 463 966.2 406 c 1,9,-1
 1154.3 199 l 1,10,-1
 1051.7 86 l 1,11,-1
 865.4 293 l 1,12,13
 812.3 253 812.3 253 760.1 234 c 128,-1,14
 707.9 215 707.9 215 653 215 c 0,15,16
 600.8 215 600.8 215 546.8 233.5 c 128,-1,17
 492.8 252 492.8 252 437.9 289 c 1,18,-1
 251.6 82 l 1,19,-1
 149.9 197 l 1,20,-1
 336.2 403 l 1,21,22
 302.9 465 302.9 465 286.25 524 c 128,-1,23
 269.6 583 269.6 583 269.6 641 c 0,24,25
 269.6 705 269.6 705 286.7 763 c 128,-1,26
 303.8 821 303.8 821 338 877 c 1,27,-1
 151.7 1083 l 1,28,-1
 255.2 1198 l 1,29,-1
 441.5 991 l 1,30,31
 491 1030 491 1030 543.2 1048.5 c 128,-1,32
 595.4 1067 595.4 1067 653 1067 c 0,33,34
 707 1067 707 1067 759.65 1049 c 128,-1,35
 812.3 1031 812.3 1031 867.2 993 c 1,0,-1
895.1 643 m 0,36,37
 895.1 755 895.1 755 825.35 832 c 128,-1,38
 755.6 909 755.6 909 653 909 c 0,39,40
 552.2 909 552.2 909 481.1 832 c 128,-1,41
 410 755 410 755 410 643 c 0,42,43
 410 529 410 529 480.65 451 c 128,-1,44
 551.3 373 551.3 373 653 373 c 0,45,46
 754.7 373 754.7 373 824.9 451.5 c 128,-1,47
 895.1 530 895.1 530 895.1 643 c 0,36,37
EndSplineSet
EndChar
StartChar: yen
Encoding: 165 165 165
Width: 1246
Flags: W
Fore
1083.3 455 m 1,0,-1
 713.4 455 l 1,1,-1
 634.2 0 l 1,2,-1
 451.5 0 l 1,3,-1
 530.7 455 l 1,4,-1
 156.3 455 l 1,5,-1
 177 578 l 1,6,-1
 552.3 578 l 1,7,-1
 562.2 629 l 1,8,-1
 513.6 784 l 1,9,-1
 213.9 784 l 1,10,-1
 235.5 907 l 1,11,-1
 474.9 907 l 1,12,-1
 291.3 1493 l 1,13,-1
 462.3 1493 l 1,14,-1
 678.3 793 l 1,15,-1
 1139.1 1493 l 1,16,-1
 1313.7 1493 l 1,17,-1
 926.7 907 l 1,18,-1
 1162.5 907 l 1,19,-1
 1140.9 784 l 1,20,-1
 845.7 784 l 1,21,-1
 744 629 l 1,22,-1
 735 578 l 1,23,-1
 1104 578 l 1,24,-1
 1083.3 455 l 1,0,-1
EndSplineSet
EndChar
StartChar: brokenbar
Encoding: 166 166 166
Width: 655
Flags: W
Fore
421.5 408 m 1,0,-1
 421.5 -350 l 1,1,-1
 268.5 -350 l 1,2,-1
 268.5 408 l 1,3,-1
 421.5 408 l 1,0,-1
421.5 1432 m 1,4,-1
 421.5 674 l 1,5,-1
 268.5 674 l 1,6,-1
 268.5 1432 l 1,7,-1
 421.5 1432 l 1,4,-1
EndSplineSet
EndChar
StartChar: section
Encoding: 167 167 167
Width: 972
Flags: W
Fore
592.7 410 m 1,0,1
 666.5 459 666.5 459 705.2 514.5 c 128,-1,2
 743.9 570 743.9 570 743.9 627 c 0,3,4
 743.9 681 743.9 681 695.75 737.5 c 128,-1,5
 647.6 794 647.6 794 518.9 885 c 2,6,-1
 446.9 936 l 1,7,8
 374 885 374 885 335.75 829 c 128,-1,9
 297.5 773 297.5 773 297.5 717 c 0,10,11
 297.5 667 297.5 667 335.75 618.5 c 128,-1,12
 374 570 374 570 487.4 487 c 2,13,-1
 592.7 410 l 1,0,1
944.6 1462 m 1,14,-1
 915.8 1298 l 1,15,16
 851 1337 851 1337 789.35 1356.5 c 128,-1,17
 727.7 1376 727.7 1376 675.5 1376 c 0,18,19
 582.8 1376 582.8 1376 523.4 1327.5 c 128,-1,20
 464 1279 464 1279 464 1206 c 0,21,22
 464 1127 464 1127 585.5 1037 c 0,23,24
 612.5 1017 612.5 1017 627.8 1006 c 2,25,-1
 707 946 l 2,26,27
 816.8 861 816.8 861 855.05 802.5 c 128,-1,28
 893.3 744 893.3 744 893.3 674 c 0,29,30
 893.3 573 893.3 573 833.9 483 c 128,-1,31
 774.5 393 774.5 393 671.9 340 c 1,32,33
 708.8 305 708.8 305 727.25 260 c 128,-1,34
 745.7 215 745.7 215 745.7 160 c 0,35,36
 745.7 3 745.7 3 636.35 -96 c 128,-1,37
 527 -195 527 -195 347.9 -195 c 0,38,39
 285.8 -195 285.8 -195 216.5 -180.5 c 128,-1,40
 147.2 -166 147.2 -166 73.4004 -137 c 1,41,-1
 102.2 27 l 1,42,43
 170.6 -11 170.6 -11 235.4 -31 c 128,-1,44
 300.2 -51 300.2 -51 353.3 -51 c 0,45,46
 454.1 -51 454.1 -51 514.4 -3.5 c 128,-1,47
 574.7 44 574.7 44 574.7 123 c 0,48,49
 574.7 221 574.7 221 412.7 342 c 2,50,-1
 399.2 352 l 1,51,-1
 330.8 403 l 2,52,53
 220.1 487 220.1 487 183.2 543.5 c 128,-1,54
 146.3 600 146.3 600 146.3 674 c 0,55,56
 146.3 770 146.3 770 203.9 856.5 c 128,-1,57
 261.5 943 261.5 943 367.7 1006 c 1,58,59
 329 1044 329 1044 311.45 1084.5 c 128,-1,60
 293.9 1125 293.9 1125 293.9 1176 c 0,61,62
 293.9 1323 293.9 1323 403.25 1421.5 c 128,-1,63
 512.6 1520 512.6 1520 680.9 1520 c 0,64,65
 744.8 1520 744.8 1520 810.05 1505.5 c 128,-1,66
 875.3 1491 875.3 1491 944.6 1462 c 1,14,-1
EndSplineSet
EndChar
StartChar: dieresis
Encoding: 168 168 168
Width: 990
Flags: W
Fore
443.75 1552 m 1,0,-1
 628.25 1552 l 1,1,-1
 591.35 1350 l 1,2,-1
 408.65 1350 l 1,3,-1
 443.75 1552 l 1,0,-1
795.65 1552 m 1,4,-1
 978.35 1552 l 1,5,-1
 943.25 1350 l 1,6,-1
 760.55 1350 l 1,7,-1
 795.65 1552 l 1,4,-1
EndSplineSet
Ligature: 0 1 'liga' space uni0308
EndChar
StartChar: copyright
Encoding: 169 169 169
Width: 1945
Flags: W
Fore
1024 1485 m 0,0,1
 1160.8 1485 1160.8 1485 1279.15 1430 c 128,-1,2
 1397.5 1375 1397.5 1375 1495.6 1266 c 0,3,4
 1593.7 1157 1593.7 1157 1642.3 1026 c 128,-1,5
 1690.9 895 1690.9 895 1690.9 741 c 0,6,7
 1690.9 589 1690.9 589 1642.3 458.5 c 128,-1,8
 1593.7 328 1593.7 328 1495.6 219 c 0,9,10
 1397.5 110 1397.5 110 1279.15 55 c 128,-1,11
 1160.8 0 1160.8 0 1024 0 c 0,12,13
 887.2 0 887.2 0 768.85 55 c 128,-1,14
 650.5 110 650.5 110 552.4 219 c 0,15,16
 454.3 328 454.3 328 405.7 458.5 c 128,-1,17
 357.1 589 357.1 589 357.1 741 c 0,18,19
 357.1 895 357.1 895 405.7 1026 c 128,-1,20
 454.3 1157 454.3 1157 552.4 1266 c 0,21,22
 650.5 1375 650.5 1375 768.85 1430 c 128,-1,23
 887.2 1485 887.2 1485 1024 1485 c 0,0,1
1024 1382 m 0,24,25
 906.1 1382 906.1 1382 804.4 1335 c 128,-1,26
 702.7 1288 702.7 1288 618.1 1194 c 0,27,28
 533.5 1100 533.5 1100 490.3 985.5 c 128,-1,29
 447.1 871 447.1 871 447.1 741 c 0,30,31
 447.1 612 447.1 612 490.3 498.5 c 128,-1,32
 533.5 385 533.5 385 618.1 291 c 0,33,34
 702.7 197 702.7 197 804.4 149.5 c 128,-1,35
 906.1 102 906.1 102 1024 102 c 0,36,37
 1142.8 102 1142.8 102 1244.95 149.5 c 128,-1,38
 1347.1 197 1347.1 197 1431.7 291 c 0,39,40
 1515.4 384 1515.4 384 1557.25 497 c 128,-1,41
 1599.1 610 1599.1 610 1599.1 741 c 0,42,43
 1599.1 874 1599.1 874 1556.8 987.5 c 128,-1,44
 1514.5 1101 1514.5 1101 1431.7 1194 c 0,45,46
 1347.1 1288 1347.1 1288 1244.95 1335 c 128,-1,47
 1142.8 1382 1142.8 1382 1024 1382 c 0,24,25
1293.1 1137 m 1,48,-1
 1293.1 1008 l 1,49,50
 1233.7 1041 1233.7 1041 1175.2 1057 c 128,-1,51
 1116.7 1073 1116.7 1073 1057.3 1073 c 0,52,53
 923.2 1073 923.2 1073 848.05 985.5 c 128,-1,54
 772.9 898 772.9 898 772.9 741 c 0,55,56
 772.9 582 772.9 582 849.85 495 c 128,-1,57
 926.8 408 926.8 408 1066.3 408 c 0,58,59
 1123.9 408 1123.9 408 1178.8 423.5 c 128,-1,60
 1233.7 439 1233.7 439 1293.1 473 c 1,61,-1
 1293.1 346 l 1,62,63
 1232.8 317 1232.8 317 1171.15 303 c 128,-1,64
 1109.5 289 1109.5 289 1046.5 289 c 0,65,66
 852.1 289 852.1 289 739.15 411 c 128,-1,67
 626.2 533 626.2 533 626.2 741 c 0,68,69
 626.2 950 626.2 950 739.15 1071 c 128,-1,70
 852.1 1192 852.1 1192 1046.5 1192 c 0,71,72
 1112.2 1192 1112.2 1192 1173.4 1178 c 128,-1,73
 1234.6 1164 1234.6 1164 1293.1 1137 c 1,48,-1
EndSplineSet
EndChar
StartChar: ordfeminine
Encoding: 170 170 170
Width: 918
Flags: W
Fore
584.35 1104 m 2,0,1
 443.05 1104 443.05 1104 379.15 1066.5 c 128,-1,2
 315.25 1029 315.25 1029 315.25 946 c 0,3,4
 315.25 887 315.25 887 349.45 852 c 128,-1,5
 383.65 817 383.65 817 442.15 817 c 0,6,7
 545.65 817 545.65 817 616.3 884.5 c 128,-1,8
 686.95 952 686.95 952 711.25 1075 c 1,9,-1
 716.65 1104 l 1,10,-1
 584.35 1104 l 2,0,1
862.45 1165 m 1,11,-1
 783.25 717 l 1,12,-1
 649.15 717 l 1,13,-1
 668.95 829 l 1,14,15
 616.75 764 616.75 764 547.9 731 c 128,-1,16
 479.05 698 479.05 698 392.65 698 c 0,17,18
 296.35 698 296.35 698 237.4 759 c 128,-1,19
 178.45 820 178.45 820 178.45 920 c 0,20,21
 178.45 1060 178.45 1060 282.4 1139.5 c 128,-1,22
 386.35 1219 386.35 1219 573.55 1219 c 2,23,-1
 737.35 1219 l 1,24,-1
 737.35 1223 l 1,25,26
 739.15 1242 739.15 1242 740.05 1252.5 c 128,-1,27
 740.95 1263 740.95 1263 740.95 1270 c 0,28,29
 740.95 1340 740.95 1340 699.1 1372.5 c 128,-1,30
 657.25 1405 657.25 1405 567.25 1405 c 0,31,32
 504.25 1405 504.25 1405 439 1388 c 128,-1,33
 373.75 1371 373.75 1371 308.05 1337 c 1,34,-1
 329.65 1464 l 1,35,36
 400.75 1492 400.75 1492 469.15 1506 c 128,-1,37
 537.55 1520 537.55 1520 598.75 1520 c 0,38,39
 733.75 1520 733.75 1520 802.6 1458 c 128,-1,40
 871.45 1396 871.45 1396 871.45 1276 c 0,41,42
 871.45 1249 871.45 1249 869.2 1221.5 c 128,-1,43
 866.95 1194 866.95 1194 862.45 1165 c 1,11,-1
143.35 592 m 1,44,-1
 763.45 592 l 1,45,-1
 742.75 469 l 1,46,-1
 123.55 469 l 1,47,-1
 143.35 592 l 1,44,-1
EndSplineSet
EndChar
StartChar: guillemotleft
Encoding: 171 171 171
Width: 1200
Flags: W
Fore
686 1059 m 1,0,-1
 650.9 858 l 1,1,-1
 332.3 588 l 1,2,-1
 559.1 322 l 1,3,-1
 525.8 141 l 1,4,-1
 177.5 559 l 1,5,-1
 191.9 641 l 1,6,-1
 686 1059 l 1,0,-1
1086.5 1059 m 1,7,-1
 1051.4 858 l 1,8,-1
 731.9 588 l 1,9,-1
 958.7 322 l 1,10,-1
 925.4 141 l 1,11,-1
 577.1 559 l 1,12,-1
 592.4 641 l 1,13,-1
 1086.5 1059 l 1,7,-1
EndSplineSet
EndChar
StartChar: logicalnot
Encoding: 172 172 172
Width: 1630
Flags: W
Fore
281.1 862 m 1,0,-1
 1434.9 862 l 1,1,-1
 1434.9 287 l 1,2,-1
 1283.7 287 l 1,3,-1
 1283.7 692 l 1,4,-1
 281.1 692 l 1,5,-1
 281.1 862 l 1,0,-1
EndSplineSet
EndChar
StartChar: sfthyphen
Encoding: 173 173 173
Width: 702
Flags: W
Fore
150.3 643 m 1,0,-1
 635.4 643 l 1,1,-1
 607.5 479 l 1,2,-1
 120.6 479 l 1,3,-1
 150.3 643 l 1,0,-1
EndSplineSet
EndChar
StartChar: registered
Encoding: 174 174 174
Width: 1945
Flags: W
Fore
1024 1382 m 0,0,1
 906.1 1382 906.1 1382 804.4 1335 c 128,-1,2
 702.7 1288 702.7 1288 618.1 1194 c 0,3,4
 533.5 1100 533.5 1100 490.3 985.5 c 128,-1,5
 447.1 871 447.1 871 447.1 741 c 0,6,7
 447.1 612 447.1 612 490.3 498.5 c 128,-1,8
 533.5 385 533.5 385 618.1 291 c 0,9,10
 702.7 197 702.7 197 804.4 149.5 c 128,-1,11
 906.1 102 906.1 102 1024 102 c 0,12,13
 1142.8 102 1142.8 102 1244.95 149.5 c 128,-1,14
 1347.1 197 1347.1 197 1431.7 291 c 0,15,16
 1515.4 384 1515.4 384 1557.25 497 c 128,-1,17
 1599.1 610 1599.1 610 1599.1 741 c 0,18,19
 1599.1 874 1599.1 874 1556.8 987.5 c 128,-1,20
 1514.5 1101 1514.5 1101 1431.7 1194 c 0,21,22
 1347.1 1288 1347.1 1288 1244.95 1335 c 128,-1,23
 1142.8 1382 1142.8 1382 1024 1382 c 0,0,1
1024 1485 m 0,24,25
 1160.8 1485 1160.8 1485 1279.15 1430 c 128,-1,26
 1397.5 1375 1397.5 1375 1495.6 1266 c 0,27,28
 1593.7 1157 1593.7 1157 1642.3 1026 c 128,-1,29
 1690.9 895 1690.9 895 1690.9 741 c 0,30,31
 1690.9 589 1690.9 589 1642.3 458.5 c 128,-1,32
 1593.7 328 1593.7 328 1495.6 219 c 0,33,34
 1397.5 110 1397.5 110 1279.15 55 c 128,-1,35
 1160.8 0 1160.8 0 1024 0 c 0,36,37
 887.2 0 887.2 0 768.85 55 c 128,-1,38
 650.5 110 650.5 110 552.4 219 c 0,39,40
 454.3 328 454.3 328 405.7 458.5 c 128,-1,41
 357.1 589 357.1 589 357.1 741 c 0,42,43
 357.1 895 357.1 895 405.7 1026 c 128,-1,44
 454.3 1157 454.3 1157 552.4 1266 c 0,45,46
 650.5 1375 650.5 1375 768.85 1430 c 128,-1,47
 887.2 1485 887.2 1485 1024 1485 c 0,24,25
999.7 1071 m 2,48,-1
 889 1071 l 1,49,-1
 889 795 l 1,50,-1
 999.7 795 l 2,51,52
 1098.7 795 1098.7 795 1137.85 826 c 128,-1,53
 1177 857 1177 857 1177 932 c 0,54,55
 1177 1008 1177 1008 1137.4 1039.5 c 128,-1,56
 1097.8 1071 1097.8 1071 999.7 1071 c 2,48,-1
1006 1174 m 2,57,58
 1164.4 1174 1164.4 1174 1242.7 1114.5 c 128,-1,59
 1321 1055 1321 1055 1321 934 c 0,60,61
 1321 848 1321 848 1273.75 792 c 128,-1,62
 1226.5 736 1226.5 736 1140.1 719 c 1,63,64
 1161.7 711 1161.7 711 1191.85 672.5 c 128,-1,65
 1222 634 1222 634 1263.4 561 c 1,66,-1
 1386.7 338 l 1,67,-1
 1231.9 338 l 1,68,-1
 1115.8 547 l 2,69,70
 1062.7 643 1062.7 643 1029.85 668.5 c 128,-1,71
 997 694 997 694 948.4 694 c 2,72,-1
 889 694 l 1,73,-1
 889 338 l 1,74,-1
 749.5 338 l 1,75,-1
 749.5 1174 l 1,76,-1
 1006 1174 l 2,57,58
EndSplineSet
EndChar
StartChar: macron
Encoding: 175 175 175
Width: 991
Flags: W
Fore
438.45 1526 m 1,0,-1
 976.65 1526 l 1,1,-1
 950.55 1378 l 1,2,-1
 412.35 1378 l 1,3,-1
 438.45 1526 l 1,0,-1
EndSplineSet
Ligature: 0 1 'liga' space uni0304
EndChar
StartChar: degree
Encoding: 176 176 176
Width: 972
Flags: W
Fore
512 1391 m 0,0,1
 440 1391 440 1391 390.5 1335.5 c 128,-1,2
 341 1280 341 1280 341 1200 c 0,3,4
 341 1121 341 1121 390.5 1066.5 c 128,-1,5
 440 1012 440 1012 512 1012 c 0,6,7
 584 1012 584 1012 633.5 1066.5 c 128,-1,8
 683 1121 683 1121 683 1200 c 0,9,10
 683 1279 683 1279 633.05 1335 c 128,-1,11
 583.1 1391 583.1 1391 512 1391 c 0,0,1
512 1520 m 0,12,13
 569.6 1520 569.6 1520 622.7 1495.5 c 128,-1,14
 675.8 1471 675.8 1471 714.5 1425 c 1,15,16
 755.9 1380 755.9 1380 776.6 1323 c 128,-1,17
 797.3 1266 797.3 1266 797.3 1200 c 0,18,19
 797.3 1068 797.3 1068 714.05 976.5 c 128,-1,20
 630.8 885 630.8 885 510.2 885 c 0,21,22
 388.7 885 388.7 885 307.7 975 c 128,-1,23
 226.7 1065 226.7 1065 226.7 1200 c 0,24,25
 226.7 1334 226.7 1334 309.5 1427 c 128,-1,26
 392.3 1520 392.3 1520 512 1520 c 0,12,13
EndSplineSet
EndChar
StartChar: plusminus
Encoding: 177 177 177
Width: 1630
Flags: W
Fore
933.6 1284 m 1,0,-1
 933.6 897 l 1,1,-1
 1434.9 897 l 1,2,-1
 1434.9 727 l 1,3,-1
 933.6 727 l 1,4,-1
 933.6 340 l 1,5,-1
 782.4 340 l 1,6,-1
 782.4 727 l 1,7,-1
 281.1 727 l 1,8,-1
 281.1 897 l 1,9,-1
 782.4 897 l 1,10,-1
 782.4 1284 l 1,11,-1
 933.6 1284 l 1,0,-1
281.1 170 m 1,12,-1
 1434.9 170 l 1,13,-1
 1434.9 0 l 1,14,-1
 281.1 0 l 1,15,-1
 281.1 170 l 1,12,-1
EndSplineSet
EndChar
StartChar: twosuperior
Encoding: 178 178 178
Width: 782
Flags: W
Fore
636.2 1090 m 2,0,-1
 289.7 782 l 1,1,-1
 686.6 782 l 1,2,-1
 665.9 668 l 1,3,-1
 109.7 668 l 1,4,-1
 129.5 778 l 1,5,-1
 509.3 1118 l 1,6,7
 562.4 1164 562.4 1164 588.5 1207 c 128,-1,8
 614.6 1250 614.6 1250 614.6 1290 c 0,9,10
 614.6 1344 614.6 1344 576.8 1377.5 c 128,-1,11
 539 1411 539 1411 476 1411 c 0,12,13
 426.5 1411 426.5 1411 367.1 1394 c 128,-1,14
 307.7 1377 307.7 1377 233 1341 c 1,15,-1
 255.5 1464 l 1,16,17
 323.9 1492 323.9 1492 385.1 1506 c 128,-1,18
 446.3 1520 446.3 1520 503.9 1520 c 0,19,20
 614.6 1520 614.6 1520 683.45 1463 c 128,-1,21
 752.3 1406 752.3 1406 752.3 1317 c 0,22,23
 752.3 1255 752.3 1255 723.5 1198.5 c 128,-1,24
 694.7 1142 694.7 1142 636.2 1090 c 2,0,-1
EndSplineSet
EndChar
StartChar: threesuperior
Encoding: 179 179 179
Width: 778
Flags: W
Fore
232.85 1485 m 1,0,1
 307.55 1503 307.55 1503 364.25 1511.5 c 128,-1,2
 420.95 1520 420.95 1520 470.45 1520 c 0,3,4
 582.95 1520 582.95 1520 650.45 1467.5 c 128,-1,5
 717.95 1415 717.95 1415 717.95 1329 c 0,6,7
 717.95 1252 717.95 1252 666.65 1195 c 128,-1,8
 615.35 1138 615.35 1138 528.05 1120 c 1,9,10
 595.55 1104 595.55 1104 631.55 1057 c 128,-1,11
 667.55 1010 667.55 1010 667.55 938 c 0,12,13
 667.55 811 667.55 811 567.2 732 c 128,-1,14
 466.85 653 466.85 653 301.25 653 c 0,15,16
 243.65 653 243.65 653 185.15 663.5 c 128,-1,17
 126.65 674 126.65 674 69.0498 694 c 1,18,-1
 90.6504 815 l 1,19,20
 138.35 788 138.35 788 188.75 775 c 128,-1,21
 239.15 762 239.15 762 295.85 762 c 0,22,23
 406.55 762 406.55 762 469.1 808 c 128,-1,24
 531.65 854 531.65 854 531.65 936 c 0,25,26
 531.65 998 531.65 998 488 1029.5 c 128,-1,27
 444.35 1061 444.35 1061 356.15 1061 c 2,28,-1
 278.75 1061 l 1,29,-1
 299.45 1169 l 1,30,-1
 382.25 1169 l 2,31,32
 474.05 1169 474.05 1169 525.8 1205 c 128,-1,33
 577.55 1241 577.55 1241 577.55 1305 c 0,34,35
 577.55 1358 577.55 1358 540.65 1384.5 c 128,-1,36
 503.75 1411 503.75 1411 429.95 1411 c 0,37,38
 379.55 1411 379.55 1411 323.75 1400.5 c 128,-1,39
 267.95 1390 267.95 1390 213.05 1370 c 1,40,-1
 232.85 1485 l 1,0,1
EndSplineSet
EndChar
StartChar: acute
Encoding: 180 180 180
Width: 1000
Flags: W
Fore
862.25 1638 m 1,0,-1
 1041.35 1638 l 1,1,-1
 682.25 1262 l 1,2,-1
 543.65 1262 l 1,3,-1
 862.25 1638 l 1,0,-1
EndSplineSet
LCarets: 0 65535 '    ' 1 0 
Ligature: 0 1 'liga' space acutecomb
EndChar
StartChar: mu
Encoding: 181 181 181
Width: 1231
Flags: W
Fore
34.9502 -426 m 1,0,-1
 305.85 1120 l 1,1,-1
 472.35 1120 l 1,2,-1
 349.95 423 l 2,3,4
 346.35 402 346.35 402 343.65 376 c 128,-1,5
 340.95 350 340.95 350 340.95 324 c 0,6,7
 340.95 231 340.95 231 393.6 181 c 128,-1,8
 446.25 131 446.25 131 544.35 131 c 0,9,10
 677.55 131 677.55 131 759.45 215 c 128,-1,11
 841.35 299 841.35 299 870.15 467 c 1,12,-1
 984.45 1120 l 1,13,-1
 1150.05 1120 l 1,14,-1
 999.75 259 l 1,15,16
 996.15 240 996.15 240 994.8 226 c 128,-1,17
 993.45 212 993.45 212 993.45 201 c 0,18,19
 993.45 170 993.45 170 1004.7 155.5 c 128,-1,20
 1015.95 141 1015.95 141 1040.25 141 c 0,21,22
 1049.25 141 1049.25 141 1065 146 c 128,-1,23
 1080.75 151 1080.75 151 1109.55 164 c 1,24,-1
 1084.35 16 l 1,25,26
 1044.75 -6 1044.75 -6 1008.75 -17.5 c 128,-1,27
 972.75 -29 972.75 -29 938.55 -29 c 0,28,29
 879.15 -29 879.15 -29 845.4 13 c 128,-1,30
 811.65 55 811.65 55 811.65 129 c 1,31,32
 761.25 49 761.25 49 691.5 10 c 128,-1,33
 621.75 -29 621.75 -29 527.25 -29 c 0,34,35
 443.55 -29 443.55 -29 381 14 c 128,-1,36
 318.45 57 318.45 57 298.65 127 c 1,37,-1
 201.45 -426 l 1,38,-1
 34.9502 -426 l 1,0,-1
EndSplineSet
EndChar
StartChar: paragraph
Encoding: 182 182 182
Width: 1239
Flags: W
Fore
757.9 1493 m 2,0,-1
 1123.3 1493 l 1,1,-1
 828.1 -197 l 1,2,-1
 703 -197 l 1,3,-1
 977.5 1370 l 1,4,-1
 805.6 1370 l 1,5,-1
 531.1 -197 l 1,6,-1
 404.2 -197 l 1,7,-1
 551.8 649 l 1,8,9
 391.6 655 391.6 655 301.15 749 c 128,-1,10
 210.7 843 210.7 843 210.7 1001 c 0,11,12
 210.7 1212 210.7 1212 365.5 1352.5 c 128,-1,13
 520.3 1493 520.3 1493 757.9 1493 c 2,0,-1
EndSplineSet
EndChar
StartChar: periodcentered
Encoding: 183 183 183
Width: 622
Flags: W
Fore
291.05 838 m 1,0,-1
 480.95 838 l 1,1,-1
 435.95 584 l 1,2,-1
 246.05 584 l 1,3,-1
 291.05 838 l 1,0,-1
EndSplineSet
EndChar
StartChar: cedilla
Encoding: 184 184 184
Width: 953
Flags: W
Fore
461.65 0 m 1,0,1
 494.05 -51 494.05 -51 509.35 -94.5 c 128,-1,2
 524.65 -138 524.65 -138 524.65 -180 c 0,3,4
 524.65 -280 524.65 -280 458.5 -337.5 c 128,-1,5
 392.35 -395 392.35 -395 277.15 -395 c 0,6,7
 238.45 -395 238.45 -395 199.75 -389 c 128,-1,8
 161.05 -383 161.05 -383 122.35 -371 c 1,9,-1
 143.05 -240 l 1,10,11
 178.15 -256 178.15 -256 213.7 -264 c 128,-1,12
 249.25 -272 249.25 -272 287.05 -272 c 0,13,14
 341.05 -272 341.05 -272 373 -241.5 c 128,-1,15
 404.95 -211 404.95 -211 404.95 -158 c 0,16,17
 404.95 -129 404.95 -129 393.7 -93 c 128,-1,18
 382.45 -57 382.45 -57 354.55 0 c 1,19,-1
 461.65 0 l 1,0,1
EndSplineSet
Ligature: 0 1 'liga' space uni0327
EndChar
StartChar: onesuperior
Encoding: 185 185 185
Width: 781
Flags: W
Fore
182.7 778 m 1,0,-1
 366.3 778 l 1,1,-1
 473.4 1389 l 1,2,-1
 267.3 1348 l 1,3,-1
 287.1 1464 l 1,4,-1
 494.1 1503 l 1,5,-1
 624.6 1503 l 1,6,-1
 497.7 778 l 1,7,-1
 682.2 778 l 1,8,-1
 661.5 668 l 1,9,-1
 163.8 668 l 1,10,-1
 182.7 778 l 1,0,-1
EndSplineSet
EndChar
StartChar: ordmasculine
Encoding: 186 186 186
Width: 919
Flags: W
Fore
760.6 1180 m 0,0,1
 760.6 1290 760.6 1290 716.05 1347.5 c 128,-1,2
 671.5 1405 671.5 1405 584.2 1405 c 0,3,4
 479.8 1405 479.8 1405 403.75 1298 c 128,-1,5
 327.7 1191 327.7 1191 327.7 1040 c 0,6,7
 327.7 931 327.7 931 372.25 872 c 128,-1,8
 416.8 813 416.8 813 499.6 813 c 0,9,10
 609.4 813 609.4 813 685 918.5 c 128,-1,11
 760.6 1024 760.6 1024 760.6 1180 c 0,0,1
610.3 1520 m 0,12,13
 743.5 1520 743.5 1520 823.15 1434 c 128,-1,14
 902.8 1348 902.8 1348 902.8 1204 c 0,15,16
 902.8 984 902.8 984 783.1 841 c 128,-1,17
 663.4 698 663.4 698 480.7 698 c 0,18,19
 345.7 698 345.7 698 266.95 788 c 128,-1,20
 188.2 878 188.2 878 188.2 1032 c 0,21,22
 188.2 1100 188.2 1100 205.3 1166.5 c 128,-1,23
 222.4 1233 222.4 1233 255.7 1296 c 0,24,25
 311.5 1402 311.5 1402 405.1 1461 c 128,-1,26
 498.7 1520 498.7 1520 610.3 1520 c 0,12,13
145 592 m 1,27,-1
 765.1 592 l 1,28,-1
 744.4 469 l 1,29,-1
 125.2 469 l 1,30,-1
 145 592 l 1,27,-1
EndSplineSet
EndChar
StartChar: guillemotright
Encoding: 187 187 187
Width: 1200
Flags: W
Fore
575.2 141 m 1,0,-1
 610.3 342 l 1,1,-1
 929.8 612 l 1,2,-1
 703 879 l 1,3,-1
 738.1 1059 l 1,4,-1
 1084.6 641 l 1,5,-1
 1071.1 559 l 1,6,-1
 575.2 141 l 1,0,-1
177.4 141 m 1,7,-1
 212.5 342 l 1,8,-1
 529.3 612 l 1,9,-1
 304.3 879 l 1,10,-1
 337.6 1059 l 1,11,-1
 684.1 641 l 1,12,-1
 671.5 559 l 1,13,-1
 177.4 141 l 1,7,-1
EndSplineSet
EndChar
StartChar: questiondown
Encoding: 191 191 191
Width: 1025
Flags: W
Fore
598.1 1239 m 1,0,-1
 643.1 1493 l 1,1,-1
 824.9 1493 l 1,2,-1
 780.8 1239 l 1,3,-1
 598.1 1239 l 1,0,-1
797.9 86 m 1,4,5
 705.2 29 705.2 29 614.3 1 c 128,-1,6
 523.4 -27 523.4 -27 427.1 -27 c 0,7,8
 282.2 -27 282.2 -27 198.95 48 c 128,-1,9
 115.7 123 115.7 123 115.7 252 c 0,10,11
 115.7 355 115.7 355 163.85 445 c 128,-1,12
 212 535 212 535 320 633 c 2,13,-1
 412.7 717 l 2,14,15
 489.2 785 489.2 785 514.85 832 c 128,-1,16
 540.5 879 540.5 879 555.8 969 c 1,17,-1
 578.3 1092 l 1,18,-1
 749.3 1092 l 1,19,-1
 722.3 938 l 1,20,21
 705.2 844 705.2 844 670.1 778.5 c 128,-1,22
 635 713 635 713 536 621 c 2,23,-1
 439.7 532 l 2,24,25
 364.1 462 364.1 462 333.95 409 c 128,-1,26
 303.8 356 303.8 356 303.8 299 c 0,27,28
 303.8 223 303.8 223 352.85 180 c 128,-1,29
 401.9 137 401.9 137 487.4 137 c 0,30,31
 560.3 137 560.3 137 648.5 172.5 c 128,-1,32
 736.7 208 736.7 208 830.3 274 c 1,33,-1
 797.9 86 l 1,4,5
EndSplineSet
EndChar
StartChar: Aring
Encoding: 197 197 197
Width: 1318
Flags: W
Fore
975.55 1626 m 0,0,1
 975.55 1689 975.55 1689 935.5 1733.5 c 128,-1,2
 895.45 1778 895.45 1778 838.75 1778 c 0,3,4
 781.15 1778 781.15 1778 742 1734.5 c 128,-1,5
 702.85 1691 702.85 1691 702.85 1626 c 0,6,7
 702.85 1563 702.85 1563 742 1519 c 128,-1,8
 781.15 1475 781.15 1475 838.75 1475 c 0,9,10
 895.45 1475 895.45 1475 935.5 1519 c 128,-1,11
 975.55 1563 975.55 1563 975.55 1626 c 0,0,1
692.05 1407 m 1,12,13
 643.45 1444 643.45 1444 617.8 1500.5 c 128,-1,14
 592.15 1557 592.15 1557 592.15 1626 c 0,15,16
 592.15 1740 592.15 1740 664.15 1820.5 c 128,-1,17
 736.15 1901 736.15 1901 838.75 1901 c 0,18,19
 941.35 1901 941.35 1901 1013.8 1820.5 c 128,-1,20
 1086.25 1740 1086.25 1740 1086.25 1626 c 0,21,22
 1086.25 1547 1086.25 1547 1053.4 1486 c 128,-1,23
 1020.55 1425 1020.55 1425 958.45 1389 c 1,24,-1
 1191.55 0 l 1,25,-1
 1001.65 0 l 1,26,-1
 945.85 383 l 1,27,-1
 341.05 383 l 1,28,-1
 151.15 0 l 1,29,-1
 -40.5498 0 l 1,30,-1
 692.05 1407 l 1,12,13
801.85 1294 m 1,31,-1
 424.75 551 l 1,32,-1
 917.95 551 l 1,33,-1
 801.85 1294 l 1,31,-1
EndSplineSet
Ligature: 0 0 'liga' A uni030A
EndChar
StartChar: AE
Encoding: 198 198 198
Width: 1892
Flags: W
Fore
936 1335 m 1,0,-1
 501.3 551 l 1,1,-1
 913.5 551 l 1,2,-1
 1052.1 1335 l 1,3,-1
 936 1335 l 1,0,-1
1929.6 1493 m 1,4,-1
 1899.9 1323 l 1,5,-1
 1233 1323 l 1,6,-1
 1153.8 881 l 1,7,-1
 1794.6 881 l 1,8,-1
 1764.9 711 l 1,9,-1
 1124.1 711 l 1,10,-1
 1029.6 170 l 1,11,-1
 1713.6 170 l 1,12,-1
 1683.9 0 l 1,13,-1
 818.1 0 l 1,14,-1
 883.8 383 l 1,15,-1
 410.4 383 l 1,16,-1
 198.9 0 l 1,17,-1
 14.4004 0 l 1,18,-1
 837.9 1493 l 1,19,-1
 1929.6 1493 l 1,4,-1
EndSplineSet
KernsSLIFO: 45 -36 0 0
EndChar
StartChar: Eth
Encoding: 208 208 208
Width: 1502
Flags: W
Fore
394.85 1493 m 1,0,-1
 786.35 1493 l 2,1,2
 1096.85 1493 1096.85 1493 1255.7 1346.5 c 128,-1,3
 1414.55 1200 1414.55 1200 1414.55 911 c 0,4,5
 1414.55 721 1414.55 721 1353.8 544.5 c 128,-1,6
 1293.05 368 1293.05 368 1185.95 246 c 0,7,8
 1078.85 122 1078.85 122 915.05 61 c 128,-1,9
 751.25 0 751.25 0 526.25 0 c 2,10,-1
 133.85 0 l 1,11,-1
 255.35 700 l 1,12,-1
 74.4502 700 l 1,13,-1
 100.55 844 l 1,14,-1
 280.55 844 l 1,15,-1
 394.85 1493 l 1,0,-1
547.85 1327 m 1,16,-1
 463.25 844 l 1,17,-1
 765.65 844 l 1,18,-1
 739.55 700 l 1,19,-1
 437.15 700 l 1,20,-1
 345.35 166 l 1,21,-1
 582.95 166 l 2,22,23
 888.95 166 888.95 166 1055.9 361 c 128,-1,24
 1222.85 556 1222.85 556 1222.85 911 c 0,25,26
 1222.85 1126 1222.85 1126 1114.85 1226.5 c 128,-1,27
 1006.85 1327 1006.85 1327 776.45 1327 c 2,28,-1
 547.85 1327 l 1,16,-1
EndSplineSet
KernsSLIFO: 45 38 0 0
EndChar
StartChar: multiply
Encoding: 215 215 215
Width: 1630
Flags: W
Fore
1378.25 1100 m 1,0,-1
 966.95 641 l 1,1,-1
 1378.25 184 l 1,2,-1
 1271.15 63 l 1,3,-1
 858.05 522 l 1,4,-1
 444.95 63 l 1,5,-1
 338.75 184 l 1,6,-1
 749.15 641 l 1,7,-1
 338.75 1100 l 1,8,-1
 444.95 1221 l 1,9,-1
 858.05 762 l 1,10,-1
 1271.15 1221 l 1,11,-1
 1378.25 1100 l 1,0,-1
EndSplineSet
EndChar
StartChar: Oslash
Encoding: 216 216 216
Width: 1530
Flags: W
Fore
1180.05 1235 m 1,0,1
 1139.55 1295 1139.55 1295 1073.85 1325.5 c 128,-1,2
 1008.15 1356 1008.15 1356 919.95 1356 c 0,3,4
 771.45 1356 771.45 1356 656.7 1275 c 128,-1,5
 541.95 1194 541.95 1194 459.15 1032 c 0,6,7
 403.35 923 403.35 923 374.1 804 c 128,-1,8
 344.85 685 344.85 685 344.85 571 c 0,9,10
 344.85 526 344.85 526 350.25 482.5 c 128,-1,11
 355.65 439 355.65 439 366.45 395 c 1,12,-1
 1180.05 1235 l 1,0,1
1238.55 1116 m 1,13,-1
 422.25 270 l 1,14,15
 468.15 202 468.15 202 534.3 168.5 c 128,-1,16
 600.45 135 600.45 135 689.55 135 c 0,17,18
 837.15 135 837.15 135 952.8 216.5 c 128,-1,19
 1068.45 298 1068.45 298 1150.35 459 c 0,20,21
 1206.15 571 1206.15 571 1234.5 688.5 c 128,-1,22
 1262.85 806 1262.85 806 1262.85 928 c 0,23,24
 1262.85 984 1262.85 984 1257 1030.5 c 128,-1,25
 1251.15 1077 1251.15 1077 1238.55 1116 c 1,13,-1
223.35 246 m 1,26,27
 188.25 326 188.25 326 170.7 408 c 128,-1,28
 153.15 490 153.15 490 153.15 575 c 0,29,30
 153.15 741 153.15 741 208.05 909 c 128,-1,31
 262.95 1077 262.95 1077 361.05 1212 c 0,32,33
 473.55 1366 473.55 1366 614.4 1443 c 128,-1,34
 755.25 1520 755.25 1520 925.35 1520 c 0,35,36
 1042.35 1520 1042.35 1520 1136.85 1481.5 c 128,-1,37
 1231.35 1443 1231.35 1443 1306.95 1366 c 1,38,-1
 1489.65 1559 l 1,39,-1
 1570.65 1460 l 1,40,-1
 1382.55 1262 l 1,41,42
 1418.55 1189 1418.55 1189 1436.55 1104.5 c 128,-1,43
 1454.55 1020 1454.55 1020 1454.55 922 c 0,44,45
 1454.55 745 1454.55 745 1401.45 579.5 c 128,-1,46
 1348.35 414 1348.35 414 1247.55 279 c 0,47,48
 1132.35 123 1132.35 123 993.3 47 c 128,-1,49
 854.25 -29 854.25 -29 684.15 -29 c 0,50,51
 559.05 -29 559.05 -29 461.4 13 c 128,-1,52
 363.75 55 363.75 55 295.35 137 c 1,53,-1
 97.3496 -66 l 1,54,-1
 16.3496 33 l 1,55,-1
 223.35 246 l 1,26,27
EndSplineSet
KernsSLIFO: 88 -36 0 0 59 38 0 0 58 38 0 0 46 -83 0 0 45 38 0 0 44 -83 0 0
EndChar
StartChar: Thorn
Encoding: 222 222 222
Width: 1182
Flags: W
Fore
583.85 338 m 2,0,-1
 353.45 338 l 1,1,-1
 294.05 0 l 1,2,-1
 111.35 0 l 1,3,-1
 373.25 1493 l 1,4,-1
 555.95 1493 l 1,5,-1
 510.05 1229 l 1,6,-1
 749.45 1229 l 2,7,8
 933.05 1229 933.05 1229 1029.35 1134 c 128,-1,9
 1125.65 1039 1125.65 1039 1125.65 856 c 0,10,11
 1125.65 610 1125.65 610 983.45 474 c 128,-1,12
 841.25 338 841.25 338 583.85 338 c 2,0,-1
482.15 1063 m 1,13,-1
 384.05 504 l 1,14,-1
 612.65 504 l 2,15,16
 767.45 504 767.45 504 850.7 591.5 c 128,-1,17
 933.95 679 933.95 679 933.95 844 c 0,18,19
 933.95 948 933.95 948 878.15 1005.5 c 128,-1,20
 822.35 1063 822.35 1063 719.75 1063 c 2,21,-1
 482.15 1063 l 1,13,-1
EndSplineSet
KernsSLIFO: 46 -149 0 0 45 75 0 0 44 -149 0 0
EndChar
StartChar: germandbls
Encoding: 223 223 223
Width: 1226
Flags: W
Fore
350.5 1137 m 1,0,1
 384.7 1334 384.7 1334 503.95 1445 c 128,-1,2
 623.2 1556 623.2 1556 800.5 1556 c 0,3,4
 957.1 1556 957.1 1556 1054.75 1463 c 128,-1,5
 1152.4 1370 1152.4 1370 1152.4 1223 c 0,6,7
 1152.4 1198 1152.4 1198 1149.7 1167.5 c 128,-1,8
 1147 1137 1147 1137 1141.6 1100 c 1,9,10
 995.8 1092 995.8 1092 905.8 1024.5 c 128,-1,11
 815.8 957 815.8 957 815.8 860 c 0,12,13
 815.8 820 815.8 820 834.7 784 c 128,-1,14
 853.6 748 853.6 748 896.8 711 c 2,15,-1
 940.9 672 l 2,16,17
 1048 578 1048 578 1084.9 512.5 c 128,-1,18
 1121.8 447 1121.8 447 1121.8 367 c 0,19,20
 1121.8 195 1121.8 195 996.7 83 c 128,-1,21
 871.6 -29 871.6 -29 675.4 -29 c 0,22,23
 607 -29 607 -29 544 -16.5 c 128,-1,24
 481 -4 481 -4 424.3 20 c 1,25,-1
 452.2 184 l 1,26,27
 510.7 155 510.7 155 573.25 140 c 128,-1,28
 635.8 125 635.8 125 699.7 125 c 0,29,30
 811.3 125 811.3 125 880.6 182 c 128,-1,31
 949.9 239 949.9 239 949.9 330 c 0,32,33
 949.9 375 949.9 375 928.75 414 c 128,-1,34
 907.6 453 907.6 453 837.4 520 c 2,35,-1
 791.5 563 l 2,36,37
 704.2 645 704.2 645 674.05 700.5 c 128,-1,38
 643.9 756 643.9 756 643.9 823 c 0,39,40
 643.9 949 643.9 949 739.3 1050 c 128,-1,41
 834.7 1151 834.7 1151 990.4 1188 c 1,42,43
 992.2 1196 992.2 1196 993.1 1206 c 128,-1,44
 994 1216 994 1216 994 1235 c 0,45,46
 994 1313 994 1313 943.15 1358 c 128,-1,47
 892.3 1403 892.3 1403 802.3 1403 c 0,48,49
 682.6 1403 682.6 1403 610.6 1335 c 128,-1,50
 538.6 1267 538.6 1267 515.2 1133 c 2,51,-1
 318.1 0 l 1,52,-1
 151.6 0 l 1,53,-1
 350.5 1137 l 1,0,1
EndSplineSet
EndChar
StartChar: ae
Encoding: 230 230 230
Width: 1935
Flags: W
Fore
1688.3 660 m 1,0,1
 1691 676 1691 676 1692.35 693 c 128,-1,2
 1693.7 710 1693.7 710 1693.7 727 c 0,3,4
 1693.7 849 1693.7 849 1629.8 920 c 128,-1,5
 1565.9 991 1565.9 991 1454.3 991 c 0,6,7
 1331 991 1331 991 1236.5 904.5 c 128,-1,8
 1142 818 1142 818 1093.4 659 c 1,9,-1
 1688.3 660 l 1,0,1
388.7 1069 m 1,10,11
 482.3 1108 482.3 1108 571.85 1127.5 c 128,-1,12
 661.4 1147 661.4 1147 745.1 1147 c 0,13,14
 874.7 1147 874.7 1147 958.4 1102 c 128,-1,15
 1042.1 1057 1042.1 1057 1082.6 965 c 1,16,17
 1160 1055 1160 1055 1260.8 1101 c 128,-1,18
 1361.6 1147 1361.6 1147 1480.4 1147 c 0,19,20
 1651.4 1147 1651.4 1147 1753.1 1033 c 128,-1,21
 1854.8 919 1854.8 919 1854.8 727 c 0,22,23
 1854.8 681 1854.8 681 1848.95 628.5 c 128,-1,24
 1843.1 576 1843.1 576 1832.3 516 c 1,25,-1
 1061.9 516 l 1,26,27
 1056.5 478 1056.5 478 1054.7 456 c 128,-1,28
 1052.9 434 1052.9 434 1052.9 418 c 0,29,30
 1052.9 279 1052.9 279 1129.85 203 c 128,-1,31
 1206.8 127 1206.8 127 1347.2 127 c 0,32,33
 1455.2 127 1455.2 127 1551.95 154 c 128,-1,34
 1648.7 181 1648.7 181 1730.6 233 c 1,35,-1
 1700 51 l 1,36,37
 1610 11 1610 11 1515.05 -9 c 128,-1,38
 1420.1 -29 1420.1 -29 1322 -29 c 0,39,40
 1170.8 -29 1170.8 -29 1068.65 28.5 c 128,-1,41
 966.5 86 966.5 86 916.1 199 c 1,42,43
 824.3 81 824.3 81 725.3 26 c 128,-1,44
 626.3 -29 626.3 -29 507.5 -29 c 0,45,46
 350.9 -29 350.9 -29 264.05 53 c 128,-1,47
 177.2 135 177.2 135 177.2 283 c 0,48,49
 177.2 479 177.2 479 318.05 593 c 128,-1,50
 458.9 707 458.9 707 706.4 707 c 2,51,-1
 936.8 707 l 1,52,-1
 945.8 756 l 1,53,54
 947.6 764 947.6 764 948.5 773.5 c 128,-1,55
 949.4 783 949.4 783 949.4 803 c 0,56,57
 949.4 892 949.4 892 884.15 941.5 c 128,-1,58
 818.9 991 818.9 991 701 991 c 0,59,60
 620 991 620 991 534.95 968 c 128,-1,61
 449.9 945 449.9 945 359.9 899 c 1,62,-1
 388.7 1069 l 1,10,11
912.5 563 m 1,63,-1
 746.9 563 l 2,64,65
 543.5 563 543.5 563 445.85 502.5 c 128,-1,66
 348.2 442 348.2 442 348.2 315 c 0,67,68
 348.2 227 348.2 227 398.15 177 c 128,-1,69
 448.1 127 448.1 127 536.3 127 c 0,70,71
 671.3 127 671.3 127 772.1 234.5 c 128,-1,72
 872.9 342 872.9 342 905.3 522 c 2,73,-1
 912.5 563 l 1,63,-1
EndSplineSet
EndChar
StartChar: eth
Encoding: 240 240 240
Width: 1192
Flags: W
Fore
979.1 1141 m 1,0,1
 1040.3 1039 1040.3 1039 1071.35 928.5 c 128,-1,2
 1102.4 818 1102.4 818 1102.4 700 c 0,3,4
 1102.4 564 1102.4 564 1066.85 437.5 c 128,-1,5
 1031.3 311 1031.3 311 963.8 211 c 1,6,7
 888.2 95 888.2 95 777.95 33 c 128,-1,8
 667.7 -29 667.7 -29 538.1 -29 c 0,9,10
 359.9 -29 359.9 -29 253.7 88.5 c 128,-1,11
 147.5 206 147.5 206 147.5 401 c 0,12,13
 147.5 521 147.5 521 184.4 639 c 128,-1,14
 221.3 757 221.3 757 289.7 858 c 0,15,16
 368.9 974 368.9 974 477.8 1036 c 128,-1,17
 586.7 1098 586.7 1098 711.8 1098 c 0,18,19
 729.8 1098 729.8 1098 755.9 1095.5 c 128,-1,20
 782 1093 782 1093 818 1088 c 1,21,-1
 706.4 1268 l 1,22,-1
 390.5 1161 l 1,23,-1
 361.7 1255 l 1,24,-1
 656 1352 l 1,25,-1
 530.9 1556 l 1,26,-1
 726.2 1556 l 1,27,-1
 812.6 1411 l 1,28,-1
 1115 1520 l 1,29,-1
 1146.5 1425 l 1,30,-1
 864.8 1327 l 1,31,-1
 979.1 1141 l 1,0,1
886.4 915 m 1,32,33
 847.7 932 847.7 932 808.55 940 c 128,-1,34
 769.4 948 769.4 948 729.8 948 c 0,35,36
 548 948 548 948 433.7 797.5 c 128,-1,37
 319.4 647 319.4 647 319.4 408 c 0,38,39
 319.4 270 319.4 270 378.35 198.5 c 128,-1,40
 437.3 127 437.3 127 551.6 127 c 0,41,42
 715.4 127 715.4 127 825.2 288.5 c 128,-1,43
 935 450 935 450 935 694 c 0,44,45
 935 762 935 762 923.3 816 c 128,-1,46
 911.6 870 911.6 870 886.4 915 c 1,32,33
EndSplineSet
EndChar
StartChar: divide
Encoding: 247 247 247
Width: 1630
Flags: W
Fore
747.3 1135 m 1,0,-1
 968.7 1135 l 1,1,-1
 968.7 889 l 1,2,-1
 747.3 889 l 1,3,-1
 747.3 1135 l 1,0,-1
747.3 395 m 1,4,-1
 968.7 395 l 1,5,-1
 968.7 150 l 1,6,-1
 747.3 150 l 1,7,-1
 747.3 395 l 1,4,-1
281.1 727 m 1,8,-1
 1434.9 727 l 1,9,-1
 1434.9 557 l 1,10,-1
 281.1 557 l 1,11,-1
 281.1 727 l 1,8,-1
EndSplineSet
EndChar
StartChar: oslash
Encoding: 248 248 248
Width: 1189
Flags: W
Fore
873.15 922 m 1,0,1
 839.85 957 839.85 957 798 974 c 128,-1,2
 756.15 991 756.15 991 703.95 991 c 0,3,4
 536.55 991 536.55 991 428.55 830.5 c 128,-1,5
 320.55 670 320.55 670 320.55 420 c 0,6,7
 320.55 373 320.55 373 321.9 352.5 c 128,-1,8
 323.25 332 323.25 332 327.75 315 c 1,9,-1
 873.15 922 l 1,0,1
200.85 172 m 1,10,11
 173.85 221 173.85 221 160.35 284 c 128,-1,12
 146.85 347 146.85 347 146.85 422 c 0,13,14
 146.85 544 146.85 544 182.4 671.5 c 128,-1,15
 217.95 799 217.95 799 274.65 885 c 0,16,17
 362.85 1019 362.85 1019 472.2 1083 c 128,-1,18
 581.55 1147 581.55 1147 721.95 1147 c 0,19,20
 800.25 1147 800.25 1147 866.85 1121 c 128,-1,21
 933.45 1095 933.45 1095 985.65 1044 c 1,22,-1
 1131.45 1208 l 1,23,-1
 1208.85 1122 l 1,24,-1
 1054.05 950 l 1,25,26
 1079.25 895 1079.25 895 1092.3 832.5 c 128,-1,27
 1105.35 770 1105.35 770 1105.35 702 c 0,28,29
 1105.35 578 1105.35 578 1069.8 448.5 c 128,-1,30
 1034.25 319 1034.25 319 978.45 233 c 0,31,32
 891.15 99 891.15 99 781.8 35 c 128,-1,33
 672.45 -29 672.45 -29 530.25 -29 c 0,34,35
 451.95 -29 451.95 -29 385.8 -2.5 c 128,-1,36
 319.65 24 319.65 24 268.35 76 c 1,37,-1
 113.55 -94 l 1,38,-1
 36.1504 -10 l 1,39,-1
 200.85 172 l 1,10,11
927.15 809 m 1,40,-1
 379.05 199 l 1,41,42
 414.15 162 414.15 162 455.1 144.5 c 128,-1,43
 496.05 127 496.05 127 549.15 127 c 0,44,45
 719.25 127 719.25 127 826.8 290.5 c 128,-1,46
 934.35 454 934.35 454 934.35 717 c 0,47,48
 934.35 756 934.35 756 932.55 775 c 128,-1,49
 930.75 794 930.75 794 927.15 809 c 1,40,-1
EndSplineSet
EndChar
StartChar: thorn
Encoding: 254 254 254
Width: 1230
Flags: W
Fore
974.4 690 m 0,0,1
 974.4 837 974.4 837 916.8 915 c 128,-1,2
 859.2 993 859.2 993 751.2 993 c 0,3,4
 677.4 993 677.4 993 610.35 951 c 128,-1,5
 543.3 909 543.3 909 491.1 829 c 0,6,7
 439.8 750 439.8 750 409.2 638 c 128,-1,8
 378.6 526 378.6 526 378.6 416 c 0,9,10
 378.6 276 378.6 276 436.2 200.5 c 128,-1,11
 493.8 125 493.8 125 600 125 c 0,12,13
 678.3 125 678.3 125 745.35 166 c 128,-1,14
 812.4 207 812.4 207 860.1 285 c 0,15,16
 911.4 367 911.4 367 942.9 478 c 128,-1,17
 974.4 589 974.4 589 974.4 690 c 0,0,1
461.4 950 m 1,18,19
 528 1047 528 1047 618.45 1097 c 128,-1,20
 708.9 1147 708.9 1147 819.6 1147 c 0,21,22
 974.4 1147 974.4 1147 1059.9 1034.5 c 128,-1,23
 1145.4 922 1145.4 922 1145.4 719 c 0,24,25
 1145.4 553 1145.4 553 1092.3 402.5 c 128,-1,26
 1039.2 252 1039.2 252 939.3 133 c 0,27,28
 872.7 54 872.7 54 789 12.5 c 128,-1,29
 705.3 -29 705.3 -29 612.6 -29 c 0,30,31
 505.5 -29 505.5 -29 432.6 20.5 c 128,-1,32
 359.7 70 359.7 70 323.7 168 c 1,33,-1
 220.2 -426 l 1,34,-1
 54.5996 -426 l 1,35,-1
 397.5 1556 l 1,36,-1
 563.1 1556 l 1,37,-1
 461.4 950 l 1,18,19
EndSplineSet
EndChar
StartChar: Dcroat
Encoding: 272 272 272
Width: 1502
Flags: W
Fore
394.85 1493 m 1,0,-1
 786.35 1493 l 2,1,2
 1096.85 1493 1096.85 1493 1255.7 1346.5 c 128,-1,3
 1414.55 1200 1414.55 1200 1414.55 911 c 0,4,5
 1414.55 721 1414.55 721 1353.8 544.5 c 128,-1,6
 1293.05 368 1293.05 368 1185.95 246 c 0,7,8
 1078.85 122 1078.85 122 915.05 61 c 128,-1,9
 751.25 0 751.25 0 526.25 0 c 2,10,-1
 133.85 0 l 1,11,-1
 255.35 700 l 1,12,-1
 74.4502 700 l 1,13,-1
 100.55 844 l 1,14,-1
 280.55 844 l 1,15,-1
 394.85 1493 l 1,0,-1
547.85 1327 m 1,16,-1
 463.25 844 l 1,17,-1
 765.65 844 l 1,18,-1
 739.55 700 l 1,19,-1
 437.15 700 l 1,20,-1
 345.35 166 l 1,21,-1
 582.95 166 l 2,22,23
 888.95 166 888.95 166 1055.9 361 c 128,-1,24
 1222.85 556 1222.85 556 1222.85 911 c 0,25,26
 1222.85 1126 1222.85 1126 1114.85 1226.5 c 128,-1,27
 1006.85 1327 1006.85 1327 776.45 1327 c 2,28,-1
 547.85 1327 l 1,16,-1
EndSplineSet
EndChar
StartChar: dcroat
Encoding: 273 273 273
Width: 1246
Flags: W
Fore
846.9 168 m 1,0,1
 780.3 71 780.3 71 689.4 21 c 128,-1,2
 598.5 -29 598.5 -29 487.8 -29 c 0,3,4
 336.6 -29 336.6 -29 248.85 85.5 c 128,-1,5
 161.1 200 161.1 200 161.1 399 c 0,6,7
 161.1 565 161.1 565 214.2 715.5 c 128,-1,8
 267.3 866 267.3 866 368.1 985 c 0,9,10
 434.7 1064 434.7 1064 518.4 1105.5 c 128,-1,11
 602.1 1147 602.1 1147 693.9 1147 c 0,12,13
 791.1 1147 791.1 1147 865.35 1095 c 128,-1,14
 939.6 1043 939.6 1043 980.1 946 c 1,15,-1
 1040.4 1284 l 1,16,-1
 747 1284 l 1,17,-1
 771.3 1407 l 1,18,-1
 1064.7 1407 l 1,19,-1
 1088.1 1556 l 1,20,-1
 1254.6 1556 l 1,21,-1
 1230.3 1407 l 1,22,-1
 1368.9 1407 l 1,23,-1
 1344.6 1284 l 1,24,-1
 1206 1284 l 1,25,-1
 981.9 0 l 1,26,-1
 815.4 0 l 1,27,-1
 846.9 168 l 1,0,1
333 432 m 0,28,29
 333 287 333 287 391.95 206 c 128,-1,30
 450.9 125 450.9 125 555.3 125 c 0,31,32
 632.7 125 632.7 125 698.85 166.5 c 128,-1,33
 765 208 765 208 815.4 289 c 0,34,35
 868.5 373 868.5 373 899.1 483 c 128,-1,36
 929.7 593 929.7 593 929.7 700 c 0,37,38
 929.7 839 929.7 839 870.75 917 c 128,-1,39
 811.8 995 811.8 995 708.3 995 c 0,40,41
 630 995 630 995 562.5 954 c 128,-1,42
 495 913 495 913 447.3 836 c 0,43,44
 395.1 753 395.1 753 364.05 643 c 128,-1,45
 333 533 333 533 333 432 c 0,28,29
EndSplineSet
EndChar
StartChar: Hbar
Encoding: 294 294 294
Width: 1788
Flags: W
Fore
562.65 1493 m 1,0,-1
 744.45 1493 l 1,1,-1
 705.75 1269 l 1,0,0
 1366.35 1269 l 1,0,0
 1405.05 1493 l 1,4,-1
 1586.85 1493 l 1,5,-1
 1548.15 1269 l 1,0,0
 1699.35 1269 l 1,1,-1
 1670.55 1105 l 1,2,-1
 1519.35 1105 l 1,0,0
 1325.85 0 l 1,6,-1
 1144.05 0 l 1,7,-1
 1268.25 711 l 1,8,-1
 607.65 711 l 1,9,-1
 483.45 0 l 1,10,-1
 301.65 0 l 1,11,-1
 495.15 1105 l 1,0,0
 343.95 1105 l 1,3,-1
 372.75 1269 l 1,0,-1
 523.95 1269 l 1,0,0
 562.65 1493 l 1,0,-1
676.95 1105 m 1,0,0
 637.35 881 l 1,2,-1
 1297.95 881 l 1,3,-1
 1337.55 1105 l 1,0,0
 676.95 1105 l 1,0,0
EndSplineSet
EndChar
StartChar: hbar
Encoding: 295 295 295
Width: 1344
Flags: W
Fore
1110.4 676 m 2,0,-1
 992.5 0 l 1,1,-1
 826.9 0 l 1,2,-1
 943.9 670 l 17,3,4
 954.7 733 954.7 733 954.7 784 c 0,0,0
 954.7 860.5 954.7 860.5 929.95 908 c 128,-1,5
 887.65 987 887.65 987 776.05 987 c 0,6,7
 642.4 987 642.4 987 547.9 892 c 128,-1,8
 454.3 797 454.3 797 425.5 633 c 9,9,-1
 314.8 0 l 1,10,-1
 148.3 0 l 1,11,-1
 370.6 1270 l 1,0,0
 258.1 1270 l 1,3,-1
 286.9 1434 l 1,0,-1
 399.4 1434 l 1,0,0
 420.1 1556 l 1,12,-1
 586.6 1556 l 1,13,-1
 565.9 1434 l 1,0,0
 882.7 1434 l 1,1,-1
 853.9 1270 l 1,2,-1
 537.1 1270 l 1,0,0
 480.4 946 l 1,14,15
 556.9 1047 556.9 1047 646.45 1097 c 128,-1,16
 735.55 1147 735.55 1147 840.85 1147 c 0,17,18
 1014.55 1147 1014.55 1147 1082.95 1027.5 c 128,-1,19
 1125.7 952.5 1125.7 952.5 1125.7 833.5 c 0,0,0
 1125.7 762.5 1125.7 762.5 1110.4 676 c 2,0,-1
EndSplineSet
EndChar
StartChar: dotlessi
Encoding: 305 305 305
Width: 539
Flags: W
Fore
289.25 1120 m 1,0,-1
 454.85 1120 l 1,1,-1
 257.75 0 l 1,2,-1
 92.1504 0 l 1,3,-1
 289.25 1120 l 1,0,-1
EndSplineSet
EndChar
StartChar: kgreenlandic
Encoding: 312 312 312
Width: 1134
Flags: W
Fore
332.55 1120 m 1,0,-1
 499.05 1120 l 1,1,-1
 414.45 635 l 1,2,-1
 993.15 1120 l 1,3,-1
 1204.65 1120 l 1,4,-1
 578.25 594 l 1,5,-1
 1030.95 0 l 1,6,-1
 814.95 0 l 1,7,-1
 398.25 545 l 1,8,-1
 302.85 0 l 1,9,-1
 136.35 0 l 1,10,-1
 332.55 1120 l 1,0,-1
EndSplineSet
EndChar
StartChar: Lslash
Encoding: 321 321 321
Width: 1085
Flags: W
Fore
367.95 1493 m 1,0,-1
 550.65 1493 l 1,1,-1
 438.15 860 l 1,2,-1
 754.95 1016 l 1,3,-1
 805.35 891 l 1,4,-1
 410.25 698 l 1,5,-1
 320.25 168 l 1,6,-1
 974.55 168 l 1,7,-1
 944.85 0 l 1,8,-1
 108.75 0 l 1,9,-1
 211.35 600 l 1,10,-1
 63.75 524 l 1,11,-1
 12.4502 647 l 1,12,-1
 239.25 760 l 1,13,-1
 367.95 1493 l 1,0,-1
EndSplineSet
KernsSLIFO: 356 -139 0 0 253 -73 0 0 221 -196 0 0 210 -63 0 0 212 -63 0 0 211 -63 0 0 376 -196 0 0 255 -73 0 0 8217 -368 0 0 8216 -188 0 0 8221 -368 0 0 8220 -188 0 0 338 -63 0 0 213 -63 0 0 216 -63 0 0 214 -63 0 0 121 -73 0 0 89 -196 0 0 87 -83 0 0 86 -149 0 0 84 -139 0 0 79 -63 0 0 45 -159 0 0
EndChar
StartChar: lslash
Encoding: 322 322 322
Width: 563
Flags: W
Fore
384.4 1556 m 1,0,-1
 550 1556 l 1,1,-1
 445.6 950 l 1,2,-1
 572.5 1014 l 1,3,-1
 620.2 895 l 1,4,-1
 419.5 793 l 1,5,-1
 277.3 0 l 1,6,-1
 111.7 0 l 1,7,-1
 235 700 l 1,8,-1
 113.5 639 l 1,9,-1
 65.7998 758 l 1,10,-1
 262.9 856 l 1,11,-1
 384.4 1556 l 1,0,-1
EndSplineSet
EndChar
StartChar: Eng
Encoding: 330 330 330
Width: 1456
Flags: W
Fore
408.75 1493 m 1,0,-1
 574.35 1493 l 1,1,-1
 1036.95 344 l 1,2,-1
 1238.55 1493 l 1,3,-1
 1404.15 1493 l 1,4,-1
 1139.1 -20 l 18,5,-1
 1101.3 -234 1101.3 -234 1010.85 -330 c 128,-1,4
 921.3 -426 921.3 -426 758.4 -426 c 2,5,-1
 529.8 -426 l 1,6,-1
 556.8 -270 l 1,7,-1
 766.5 -270 l 2,8,9
 861 -270 861 -270 903.75 -222 c 128,-1,10
 951.45 -157 951.45 -157 976.65 0 c 1,6,-1
 514.05 1149 l 1,7,-1
 312.45 0 l 1,8,-1
 146.85 0 l 1,9,-1
 408.75 1493 l 1,0,-1
EndSplineSet
EndChar
StartChar: eng
Encoding: 331 331 331
Width: 1234
Flags: W
Fore
1132.4 676 m 2,0,-1
 1010.9 -20 l 2,2,3
 973.1 -234 973.1 -234 883.1 -330 c 128,-1,4
 793.1 -426 793.1 -426 630.2 -426 c 2,5,-1
 401.6 -426 l 1,6,-1
 428.6 -270 l 1,7,-1
 638.3 -270 l 2,8,9
 732.8 -270 732.8 -270 776 -222 c 128,-1,10
 818.3 -173 818.3 -173 845.3 -20 c 2,11,-1
 965.9 670 l 2,3,4
 976.7 733 976.7 733 976.7 784 c 0,0,0
 976.7 860 976.7 860 951.5 908 c 128,-1,5
 910.1 987 910.1 987 798.5 987 c 0,6,7
 664.4 987 664.4 987 569.9 892 c 128,-1,8
 476.3 797 476.3 797 447.5 633 c 2,9,-1
 336.8 0 l 1,10,-1
 170.3 0 l 1,11,-1
 366.5 1120 l 1,12,-1
 533 1120 l 1,13,-1
 502.4 946 l 1,14,15
 578.9 1047 578.9 1047 668.9 1097 c 128,-1,16
 758 1147 758 1147 863.3 1147 c 0,17,18
 1037 1147 1037 1147 1105.4 1028 c 128,-1,19
 1147.7 953 1147.7 953 1147.7 833 c 0,0,0
 1147.7 763 1147.7 763 1132.4 676 c 2,0,-1
EndSplineSet
EndChar
StartChar: OE
Encoding: 338 338 338
Width: 2085
Flags: W
Fore
1202.95 1323 m 1,0,-1
 1094.95 1323 l 2,1,2
 945.55 1323 945.55 1323 829 1285 c 128,-1,3
 712.45 1247 712.45 1247 634.15 1174 c 0,4,5
 514.45 1064 514.45 1064 452.35 913.5 c 128,-1,6
 390.25 763 390.25 763 390.25 582 c 0,7,8
 390.25 379 390.25 379 504.1 274.5 c 128,-1,9
 617.95 170 617.95 170 840.25 170 c 2,10,-1
 884.35 170 l 1,11,-1
 1000.45 170 l 1,12,-1
 1202.95 1323 l 1,0,-1
2080.45 1493 m 1,13,-1
 2050.75 1323 l 1,14,-1
 1385.65 1323 l 1,15,-1
 1306.45 881 l 1,16,-1
 1946.35 881 l 1,17,-1
 1916.65 711 l 1,18,-1
 1276.75 711 l 1,19,-1
 1183.15 170 l 1,20,-1
 1867.15 170 l 1,21,-1
 1837.45 0 l 1,22,-1
 856.45 0 l 2,23,24
 710.65 0 710.65 0 631 15.5 c 128,-1,25
 551.35 31 551.35 31 481.15 66 c 0,26,27
 339.85 136 339.85 136 269.2 265 c 128,-1,28
 198.55 394 198.55 394 198.55 582 c 0,29,30
 198.55 791 198.55 791 281.8 977 c 128,-1,31
 365.05 1163 365.05 1163 519.85 1298 c 0,32,33
 630.55 1396 630.55 1396 788.05 1444.5 c 128,-1,34
 945.55 1493 945.55 1493 1148.05 1493 c 2,35,-1
 2080.45 1493 l 1,13,-1
EndSplineSet
EndChar
StartChar: oe
Encoding: 339 339 339
Width: 1999
Flags: W
Fore
1897.35 516 m 1,0,-1
 1126.95 516 l 1,1,2
 1123.35 489 1123.35 489 1121.1 464 c 128,-1,3
 1118.85 439 1118.85 439 1118.85 418 c 0,4,5
 1118.85 279 1118.85 279 1195.35 203 c 128,-1,6
 1271.85 127 1271.85 127 1412.25 127 c 0,7,8
 1520.25 127 1520.25 127 1617.9 154 c 128,-1,9
 1715.55 181 1715.55 181 1797.45 233 c 1,10,-1
 1764.15 51 l 1,11,12
 1675.05 12 1675.05 12 1580.55 -8.5 c 128,-1,13
 1486.05 -29 1486.05 -29 1387.95 -29 c 0,14,15
 1243.05 -29 1243.05 -29 1139.55 26 c 128,-1,16
 1036.05 81 1036.05 81 993.75 180 c 1,17,18
 902.85 75 902.85 75 798.9 23 c 128,-1,19
 694.95 -29 694.95 -29 573.45 -29 c 0,20,21
 401.55 -29 401.55 -29 295.8 90 c 128,-1,22
 190.05 209 190.05 209 190.05 401 c 0,23,24
 190.05 538 190.05 538 224.25 667.5 c 128,-1,25
 258.45 797 258.45 797 317.85 885 c 0,26,27
 406.95 1019 406.95 1019 516.75 1083 c 128,-1,28
 626.55 1147 626.55 1147 765.15 1147 c 0,29,30
 882.15 1147 882.15 1147 971.7 1088.5 c 128,-1,31
 1061.25 1030 1061.25 1030 1109.85 922 c 1,32,33
 1198.95 1034 1198.95 1034 1307.85 1090.5 c 128,-1,34
 1416.75 1147 1416.75 1147 1544.55 1147 c 0,35,36
 1716.45 1147 1716.45 1147 1817.7 1033 c 128,-1,37
 1918.95 919 1918.95 919 1918.95 727 c 0,38,39
 1918.95 681 1918.95 681 1913.55 628.5 c 128,-1,40
 1908.15 576 1908.15 576 1897.35 516 c 1,0,-1
1753.35 660 m 1,41,42
 1756.05 676 1756.05 676 1757.4 693 c 128,-1,43
 1758.75 710 1758.75 710 1758.75 727 c 0,44,45
 1758.75 849 1758.75 849 1694.4 920 c 128,-1,46
 1630.05 991 1630.05 991 1519.35 991 c 0,47,48
 1395.15 991 1395.15 991 1301.1 904.5 c 128,-1,49
 1207.05 818 1207.05 818 1157.55 659 c 1,50,-1
 1753.35 660 l 1,41,42
361.95 430 m 0,51,52
 361.95 278 361.95 278 419.1 202.5 c 128,-1,53
 476.25 127 476.25 127 592.35 127 c 0,54,55
 758.85 127 758.85 127 868.2 287 c 128,-1,56
 977.55 447 977.55 447 977.55 696 c 0,57,58
 977.55 843 977.55 843 919.5 917 c 128,-1,59
 861.45 991 861.45 991 747.15 991 c 0,60,61
 653.55 991 653.55 991 580.65 942.5 c 128,-1,62
 507.75 894 507.75 894 450.15 795 c 0,63,64
 407.85 721 407.85 721 384.9 626 c 128,-1,65
 361.95 531 361.95 531 361.95 430 c 0,51,52
EndSplineSet
EndChar
StartChar: Tbar
Encoding: 358 358 358
Width: 1201
Flags: W
TeX: 0 0 0 0
Fore
200.5 1493 m 1,0,-1
 1337.2 1493 l 1,1,-1
 1307.5 1323 l 1,2,-1
 830.5 1323 l 1,3,-1
 729.7 747 l 1,4,-1
 968.2 747 l 1,5,-1
 938.5 577 l 1,6,-1
 700 577 l 1,7,-1
 599.2 0 l 1,8,-1
 416.5 0 l 1,9,-1
 517.3 577 l 1,10,-1
 275.2 577 l 1,11,-1
 304.9 747 l 1,12,-1
 547 747 l 1,13,-1
 647.8 1323 l 1,14,-1
 170.8 1323 l 1,15,-1
 200.5 1493 l 1,0,-1
EndSplineSet
EndChar
StartChar: tbar
Encoding: 359 359 359
Width: 765
Flags: W
TeX: 0 0 0 0
Fore
506.7 1438 m 1,0,-1
 450.9 1120 l 1,1,-1
 792 1120 l 1,2,-1
 766.8 977 l 1,3,-1
 425.7 977 l 1,4,-1
 385.2 744 l 1,0,0
 556.2 744 l 1,0,0
 531 602 l 1,0,0
 360 602 l 1,0,0
 319.5 369 l 2,5,6
 307.8 304 307.8 304 307.8 261 c 0,0,0
 307.8 214 307.8 214 322.2 193 c 128,-1,7
 349.2 154 349.2 154 452.7 154 c 2,8,-1
 622.8 154 l 1,9,-1
 595.8 0 l 1,10,-1
 425.7 0 l 2,11,12
 234 0 234 0 175.5 80 c 128,-1,13
 138.6 129 138.6 129 138.6 227 c 0,0,0
 138.6 289 138.6 289 153 369 c 2,14,-1
 193.5 602 l 1,0,0
 72 602 l 1,0,0
 97.2002 744 l 1,0,0
 218.7 744 l 1,0,0
 259.2 977 l 1,15,-1
 137.7 977 l 1,16,-1
 162.9 1120 l 1,17,-1
 284.4 1120 l 1,18,-1
 340.2 1438 l 1,19,-1
 506.7 1438 l 1,0,-1
EndSplineSet
EndChar
StartChar: longs
Encoding: 383 383 383
Width: 704
Flags: W
TeX: 0 0 0 0
Fore
347.5 0 m 1,10,-1
 181 0 l 1,11,-1
 352.9 977 l 1,12,-1
 194.5 977 l 1,13,-1
 217.9 1120 l 1,14,-1
 376.3 1120 l 1,15,-1
 389.8 1198 l 2,16,17
 424.083 1396.08 424.083 1396.08 509.95 1476 c 128,-1,18
 595.9 1556 595.9 1556 780.4 1556 c 2,19,-1
 937 1556 l 1,0,-1
 910.9 1403 l 1,1,-1
 752.5 1403 l 2,2,3
 662.5 1403 662.5 1403 621.55 1363.5 c 128,-1,4
 580.6 1324 580.6 1324 560.8 1219 c 1,5,-1
 347.5 0 l 1,10,-1
EndSplineSet
EndChar
StartChar: uni0180
Encoding: 384 384 384
Width: 1230
Flags: W
TeX: 117 0 0 0
Fore
921.71 559 m 0,0,1
 957.223 762 957.223 762 902.279 877.5 c 0,2,3
 847.335 993 847.335 993 715.935 993 c 0,4,5
 584.535 993 584.535 993 489.179 877.5 c 0,6,7
 393.823 762 393.823 762 358.31 559 c 0,8,9
 322.797 356 322.797 356 377.741 240.5 c 0,10,11
 432.686 125 432.686 125 564.085 125 c 0,12,13
 695.485 125 695.485 125 790.841 240.5 c 0,14,15
 886.197 356 886.197 356 921.71 559 c 0,0,1
426.713 950 m 1,16,17
 496.408 1050.01 496.408 1050.01 584.541 1098.5 c 0,18,19
 672.685 1147 672.685 1147 783.376 1147 c 0,20,21
 966.972 1147 966.972 1147 1053.39 985 c 0,22,23
 1139.8 823 1139.8 823 1093.61 559 c 0,24,25
 1047.42 295 1047.42 295 904.335 133 c 0,26,27
 761.243 -29 761.243 -29 577.644 -29 c 0,28,29
 466.943 -29 466.943 -29 395.778 19.5 c 0,30,31
 324.614 68 324.614 68 289.907 168 c 1,32,-1
 260.518 0 l 1,33,-1
 94.0176 0 l 1,34,-1
 318.644 1284 l 1,35,-1
 180.043 1284 l 1,36,-1
 201.911 1409 l 1,37,-1
 340.512 1409 l 1,38,-1
 366.229 1556 l 1,39,-1
 532.729 1556 l 1,40,-1
 507.012 1409 l 1,41,-1
 799.512 1409 l 1,42,-1
 777.644 1284 l 1,43,-1
 485.144 1284 l 1,44,-1
 426.713 950 l 1,16,17
EndSplineSet
EndChar
StartChar: uni0186
Encoding: 390 390 390
Width: 1353
Flags: W
TeX: 117 0 0 0
Fore
280.808 1378 m 1,0,-1
 386.828 1449 386.828 1449 499.689 1484.5 c 128,-1,25
 612.551 1520 612.551 1520 733.15 1520 c 0,23,24
 1038.25 1520 1038.25 1520 1177.45 1312.5 c 128,-1,22
 1316.65 1105 1316.65 1105 1253.67 745 c 0,20,21
 1190.87 386 1190.87 386 979.068 178.5 c 128,-1,19
 767.264 -29 767.264 -29 462.164 -29 c 0,17,18
 343.364 -29 343.364 -29 243.012 7 c 128,-1,16
 142.66 43 142.66 43 59.8564 115 c 1,14,15
 96.7686 326 l 1,13,-1
 171.949 231 171.949 231 267.677 184 c 128,-1,12
 363.405 137 363.405 137 480.405 137 c 0,10,11
 710.805 137 710.805 137 860.583 293.5 c 128,-1,9
 1010.36 450 1010.36 450 1061.97 745 c 0,7,8
 1113.75 1041 1113.75 1041 1018.73 1197.5 c 128,-1,6
 923.709 1354 923.709 1354 693.31 1354 c 0,4,5
 576.31 1354 576.31 1354 464.138 1307 c 128,-1,3
 351.965 1260 351.965 1260 243.546 1165 c 1,1,2
 280.808 1378 l 1,0,-1
EndSplineSet
EndChar
StartChar: uni0190
Encoding: 400 400 400
Width: 1238
Flags: W
TeX: 117 0 0 0
Fore
493.849 805 m 1,0,1
 381.722 838 381.722 838 332.78 923.5 c 128,-1,40
 283.837 1009 283.837 1009 305.529 1133 c 0,38,39
 336.67 1311 336.67 1311 475.551 1415.5 c 128,-1,37
 614.433 1520 614.433 1520 821.433 1520 c 0,35,36
 901.533 1520 901.533 1520 989.186 1504 c 128,-1,34
 1076.84 1488 1076.84 1488 1174.74 1456 c 1,32,33
 1143.25 1276 l 1,31,-1
 1047.29 1314 1047.29 1314 964.943 1332 c 128,-1,30
 882.593 1350 882.593 1350 807.893 1350 c 0,28,29
 671.093 1350 671.093 1350 586.984 1288.5 c 128,-1,27
 502.874 1227 502.874 1227 482.756 1112 c 0,25,26
 463.163 1000 463.163 1000 523.854 940.5 c 128,-1,24
 584.545 881 584.545 881 718.645 881 c 2,22,23
 882.445 881 l 1,21,-1
 853.403 715 l 1,20,-1
 696.804 715 l 2,19,-1
 548.304 715 548.304 715 452.021 640.5 c 128,-1,18
 355.737 566 355.737 566 332.645 434 c 0,16,17
 307.628 291 307.628 291 384.058 216 c 128,-1,15
 460.487 141 460.487 141 631.487 141 c 0,13,14
 729.587 141 729.587 141 823.96 166 c 128,-1,12
 918.334 191 918.334 191 1002.51 240 c 1,10,11
 968.396 45 l 1,9,-1
 866.521 8 866.521 8 773.734 -10.5 c 128,-1,8
 680.946 -29 680.946 -29 596.347 -29 c 0,6,7
 344.347 -29 344.347 -29 228.716 92 c 128,-1,5
 113.083 213 113.083 213 151.745 434 c 0,3,4
 176.937 578 176.937 578 267.431 676 c 128,-1,2
 357.926 774 357.926 774 493.849 805 c 1,0,1
EndSplineSet
EndChar
StartChar: florin
Encoding: 402 402 402
Width: 1233
Flags: W
Fore
1200.35 1509 m 1,0,-1
 1172.45 1356 l 1,1,2
 1138.25 1385 1138.25 1385 1102.25 1399 c 128,-1,3
 1066.25 1413 1066.25 1413 1026.65 1413 c 0,4,5
 940.25 1413 940.25 1413 888.95 1352 c 128,-1,6
 837.65 1291 837.65 1291 815.15 1159 c 1,7,-1
 761.15 848 l 1,8,-1
 1047.35 848 l 1,9,-1
 1019.45 705 l 1,10,-1
 734.15 705 l 1,11,-1
 619.85 70 l 1,12,13
 568.55 -209 568.55 -209 484.85 -317.5 c 128,-1,14
 401.15 -426 401.15 -426 245.45 -426 c 0,15,16
 178.85 -426 178.85 -426 123.5 -413.5 c 128,-1,17
 68.1504 -401 68.1504 -401 18.6504 -375 c 1,18,-1
 46.5498 -217 l 1,19,20
 93.3496 -250 93.3496 -250 137 -266.5 c 128,-1,21
 180.65 -283 180.65 -283 222.95 -283 c 0,22,23
 310.25 -283 310.25 -283 359.3 -214.5 c 128,-1,24
 408.35 -146 408.35 -146 438.95 20 c 1,25,-1
 562.25 705 l 1,26,-1
 312.05 705 l 1,27,-1
 339.05 848 l 1,28,-1
 590.15 848 l 1,29,-1
 646.85 1178 l 1,30,31
 680.15 1369 680.15 1369 771.05 1462.5 c 128,-1,32
 861.95 1556 861.95 1556 1014.05 1556 c 0,33,34
 1055.45 1556 1055.45 1556 1100 1545 c 128,-1,35
 1144.55 1534 1144.55 1534 1200.35 1509 c 1,0,-1
EndSplineSet
EndChar
StartChar: uni0194
Encoding: 404 404 404
Width: 1345
Flags: W
TeX: 0 0 0 0
Fore
864.397 650 m 1,0,1
 1080.14 201 1080.14 201 1008.34 -194 c 8,2,3
 964.36 -430 964.36 -430 592.66 -430 c 8,4,5
 225.46 -430 225.46 -430 237.946 -194 c 16,6,7
 257.875 172 257.875 172 651.422 657 c 1,8,-1
 354.682 1353 l 1,9,-1
 549.981 1353 l 1,10,-1
 786.789 798 l 1,11,-1
 1219.58 1353 l 1,12,-1
 1414.88 1353 l 1,13,-1
 864.397 650 l 1,0,1
720.281 495 m 1,14,15
 482.224 194 482.224 194 431.843 -130 c 8,16,17
 410.4 -268 410.4 -268 602.1 -268 c 16,18,19
 786.6 -268 786.6 -268 809.843 -130 c 16,20,21
 864.874 200 864.874 200 720.281 495 c 1,14,15
EndSplineSet
EndChar
StartChar: dotlessj
Encoding: 567 567 567
Width: 524
Flags: W
Fore
279.8 1120 m 1,0,-1
 445.4 1120 l 1,1,-1
 246.5 -20 l 1,2,-1
 245.6 -25 l 2,3,4
 212.3 -216 212.3 -216 169.1 -287 c 0,5,6
 128.6 -354 128.6 -354 50.75 -390 c 128,-1,7
 -27.0996 -426 -27.0996 -426 -133.3 -426 c 2,8,-1
 -195.4 -426 l 1,9,-1
 -168.4 -270 l 1,10,-1
 -126.1 -270 l 2,11,12
 -28.9004 -270 -28.9004 -270 12.0498 -225 c 128,-1,13
 53 -180 53 -180 80.9004 -20 c 2,14,-1
 279.8 1120 l 1,0,-1
EndSplineSet
EndChar
StartChar: uni0250
Encoding: 592 592 592
Width: 1190
Flags: W
Fore
500.971 555 m 2,0,1
 701.671 555 701.671 555 787.992 606 c 128,-1,2
 874.314 657 874.314 657 895.832 780 c 0,3,4
 912.977 878 912.977 878 864.623 936 c 0,5,6
 816.995 993 816.995 993 717.095 993 c 0,7,8
 579.396 993 579.396 993 477.527 884 c 0,9,10
 374.934 776 374.934 776 343.443 596 c 2,11,-1
 336.271 555 l 1,12,-1
 500.971 555 l 2,0,1
157.374 479 m 2,13,-1
 269.162 1118 l 1,14,-1
 434.763 1118 l 1,15,-1
 405.022 948 l 1,16,17
 479.566 1050 479.566 1050 572.564 1098 c 0,18,19
 665.736 1147 665.736 1147 788.137 1147 c 0,20,21
 942.937 1147 942.937 1147 1017.77 1050 c 0,22,23
 1091.87 954 1091.87 954 1063.53 792 c 0,24,25
 1030.46 603 1030.46 603 899.374 507 c 0,26,27
 769.178 411 769.178 411 543.278 411 c 2,28,-1
 311.078 411 l 1,29,-1
 307.929 393 l 2,30,31
 285.713 266 285.713 266 348.166 196 c 0,32,33
 411.694 127 411.694 127 547.595 127 c 0,34,35
 633.994 127 633.994 127 719.918 150 c 128,-1,36
 805.843 173 805.843 173 889.49 219 c 1,37,-1
 859.75 49 l 1,38,39
 762.026 10 762.026 10 673.027 -10 c 0,40,41
 584.204 -29 584.204 -29 503.204 -29 c 0,42,43
 284.504 -29 284.504 -29 198.547 97 c 128,-1,44
 112.59 223 112.59 223 157.374 479 c 2,13,-1
EndSplineSet
EndChar
StartChar: uni0251
Encoding: 593 593 593
Width: 1235
Flags: W
TeX: 0 0 0 0
Fore
971.306 950 m 1,0,-1
 1001.05 1120 l 1,1,-1
 1166.65 1120 l 1,2,-1
 970.712 0 l 1,3,-1
 805.113 0 l 1,4,-1
 834.503 168 l 1,5,6
 764.81 68 764.81 68 677.212 20 c 0,7,8
 588.539 -29 588.539 -29 476.939 -29 c 0,9,10
 294.239 -29 294.239 -29 207.38 133 c 0,11,12
 121.421 295 121.421 295 167.605 559 c 128,-1,13
 213.79 823 213.79 823 356.432 985 c 0,14,15
 499.972 1147 499.972 1147 682.672 1147 c 0,16,17
 794.272 1147 794.272 1147 865.8 1098 c 0,18,19
 936.602 1050 936.602 1050 971.306 950 c 1,0,-1
338.605 559 m 0,20,21
 303.093 356 303.093 356 357.499 240 c 0,22,23
 412.98 125 412.98 125 544.381 125 c 128,-1,24
 675.781 125 675.781 125 771.499 240 c 0,25,26
 867.393 356 867.393 356 902.905 559 c 128,-1,27
 938.419 762 938.419 762 883.112 878 c 0,28,29
 827.631 993 827.631 993 696.23 993 c 128,-1,30
 564.831 993 564.831 993 469.112 878 c 0,31,32
 374.119 762 374.119 762 338.605 559 c 0,20,21
EndSplineSet
EndChar
StartChar: uni0252
Encoding: 594 594 594
Width: 1226
Flags: W
TeX: 0 0 0 0
Fore
255.686 168 m 1,0,-1
 225.946 -2 l 1,1,-1
 60.3467 -2 l 1,2,-1
 256.28 1118 l 1,3,-1
 421.881 1118 l 1,4,-1
 392.491 950 l 1,5,6
 462.185 1050 462.185 1050 550.683 1098 c 0,7,8
 638.455 1147 638.455 1147 750.055 1147 c 0,9,10
 932.755 1147 932.755 1147 1018.72 985 c 0,11,12
 1105.58 823 1105.58 823 1059.39 559 c 128,-1,13
 1013.2 295 1013.2 295 869.663 133 c 0,14,15
 727.022 -29 727.022 -29 544.322 -29 c 0,16,17
 432.722 -29 432.722 -29 362.095 20 c 0,18,19
 290.393 68 290.393 68 255.686 168 c 1,0,-1
888.389 559 m 0,20,21
 923.901 762 923.901 762 868.595 878 c 0,22,23
 814.014 993 814.014 993 682.613 993 c 128,-1,24
 551.213 993 551.213 993 455.495 878 c 0,25,26
 359.602 762 359.602 762 324.089 559 c 128,-1,27
 288.575 356 288.575 356 343.882 240 c 0,28,29
 399.363 125 399.363 125 530.764 125 c 128,-1,30
 662.163 125 662.163 125 756.982 240 c 0,31,32
 852.875 356 852.875 356 888.389 559 c 0,20,21
EndSplineSet
EndChar
StartChar: uni0253
Encoding: 595 595 595
Width: 1230
Flags: W
TeX: 0 0 0 0
Fore
921.707 559 m 0,0,1
 957.22 762 957.22 762 902.814 878 c 0,2,3
 847.332 993 847.332 993 715.932 993 c 128,-1,4
 584.532 993 584.532 993 488.814 878 c 0,5,6
 393.82 762 393.82 762 358.307 559 c 128,-1,7
 322.794 356 322.794 356 377.2 240 c 0,8,9
 432.682 125 432.682 125 564.082 125 c 128,-1,10
 695.482 125 695.482 125 791.2 240 c 0,11,12
 886.193 356 886.193 356 921.707 559 c 0,0,1
425.81 950 m 1,13,14
 495.504 1050 495.504 1050 584.901 1098 c 0,15,16
 672.673 1147 672.673 1147 783.373 1147 c 0,17,18
 966.969 1147 966.969 1147 1052.94 985 c 0,19,20
 1139.8 823 1139.8 823 1093.61 559 c 128,-1,21
 1047.42 295 1047.42 295 903.882 133 c 0,22,23
 761.24 -29 761.24 -29 577.641 -29 c 0,24,25
 466.94 -29 466.94 -29 396.313 20 c 0,26,27
 324.611 68 324.611 68 289.904 168 c 1,28,-1
 260.515 0 l 1,29,-1
 94.0146 0 l 1,30,-1
 269.306 1002 l 1,31,-1
 295.198 1150 l 2,32,33
 332.637 1364 332.637 1364 423.23 1460 c 0,34,35
 512.925 1556 512.925 1556 675.825 1556 c 2,36,-1
 904.425 1556 l 1,37,-1
 877.134 1400 l 1,38,-1
 667.434 1400 l 2,39,40
 569.334 1400 569.334 1400 530.337 1352 c 0,41,42
 487.039 1300 487.039 1300 460.798 1150 c 2,43,-1
 434.906 1002 l 1,44,-1
 425.81 950 l 1,13,14
EndSplineSet
EndChar
StartChar: uni0254
Encoding: 596 596 596
Width: 1064
Flags: W
Fore
243.722 1077 m 1,0,1
 318.244 1112 318.244 1112 394.293 1130 c 0,2,3
 470.168 1147 470.168 1147 546.668 1147 c 0,4,5
 782.468 1147 782.468 1147 890.002 990 c 0,6,7
 998.436 833 998.436 833 950.501 559 c 0,8,9
 903.268 289 903.268 289 741.352 130 c 128,-1,10
 579.435 -29 579.435 -29 351.735 -29 c 0,11,12
 268.035 -29 268.035 -29 196.484 -11 c 0,13,14
 125.833 7 125.833 7 62.8311 43 c 1,15,-1
 92.5713 213 l 1,16,17
 155.249 170 155.249 170 222.499 148 c 0,18,19
 289.025 127 289.025 127 361.025 127 c 0,20,21
 522.126 127 522.126 127 630.995 240 c 0,22,23
 740.038 354 740.038 354 775.901 559 c 128,-1,24
 811.765 764 811.765 764 742.607 878 c 0,25,26
 673.277 991 673.277 991 512.177 991 c 0,27,28
 440.177 991 440.177 991 366.304 970 c 0,29,30
 291.354 948 291.354 948 213.632 905 c 1,31,-1
 243.722 1077 l 1,0,1
EndSplineSet
EndChar
StartChar: uni0255
Encoding: 597 597 597
Width: 1074
Flags: W
TeX: 0 0 0 0
Fore
492.86 146 m 1,0,1
 542.153 127 542.153 127 611.037 127 c 0,2,3
 742.438 127 742.438 127 752.409 184 c 0,4,5
 764.18 259 764.18 259 646.729 259 c 0,6,7
 556.021 259 556.021 259 492.86 146 c 1,0,1
432.12 -16 m 1,8,9
 416.749 -73 416.749 -73 404.853 -141 c 1,10,-1
 266.628 -144 l 1,11,12
 284.822 -40 284.822 -40 310.317 44 c 1,13,14
 264.975 78.5596 264.975 78.5596 231.763 130 c 0,15,16
 125.835 291.04 125.835 291.04 172.713 559 c 0,17,18
 220.65 833.02 220.65 833.02 384.013 990 c 0,19,20
 546.05 1147 546.05 1147 782.279 1147 c 0,21,22
 856.569 1147 856.569 1147 928.705 1130 c 0,23,24
 995.721 1112.7 995.721 1112.7 1060.74 1077 c 1,25,-1
 1030.64 905 l 1,26,27
 970.557 946.757 970.557 946.757 900.714 970 c 0,28,29
 834.188 991 834.188 991 762.188 991 c 0,30,31
 601.483 991 601.483 991 492.22 878 c 0,32,33
 383.175 764 383.175 764 347.312 559 c 0,34,35
 311.449 354 311.449 354 380.606 240 c 0,36,37
 383.331 235 383.331 235 389.856 226 c 1,38,39
 496.462 402 496.462 402 672.646 402 c 0,40,41
 941.297 402 941.297 402 899.611 156 c 0,42,43
 867.897 -33 867.897 -33 566.847 -33 c 0,44,45
 494.519 -33 494.519 -33 432.12 -16 c 1,8,9
EndSplineSet
EndChar
StartChar: uni0256
Encoding: 598 598 598
Width: 1240
Flags: W
TeX: 0 0 0 0
Fore
341.677 559 m 0,0,1
 306.164 356 306.164 356 360.57 240 c 0,2,3
 416.053 125 416.053 125 547.452 125 c 0,4,5
 678.852 125 678.852 125 774.569 240 c 0,6,7
 870.464 356.001 870.464 356.001 905.977 559 c 0,8,9
 941.49 761.999 941.49 761.999 886.184 878 c 0,10,11
 830.7 993 830.7 993 699.301 993 c 0,12,13
 567.902 993 567.902 993 472.184 878 c 0,14,15
 377.19 762 377.19 762 341.677 559 c 0,0,1
974.383 950 m 1,16,-1
 1080.39 1556 l 1,17,-1
 1245.99 1556 l 1,18,-1
 970.287 -20 l 2,19,20
 943.519 -173.002 943.519 -173.002 969.146 -222 c 0,21,22
 994.947 -270 994.947 -270 1089.45 -270 c 2,23,-1
 1133.55 -270 l 1,24,-1
 1106.26 -426 l 1,25,-1
 1043.26 -426 l 2,26,27
 880.358 -426 880.358 -426 824.253 -330 c 0,28,29
 767.247 -233.999 767.247 -233.999 804.685 -20 c 2,30,-1
 830.577 128 l 1,31,-1
 837.574 168 l 1,32,33
 767.882 68.001 767.882 68.001 680.282 20 c 0,34,35
 591.608 -29 591.608 -29 480.011 -29 c 0,36,37
 297.312 -29 297.312 -29 210.451 133 c 0,38,39
 124.492 295.001 124.492 295.001 170.677 559 c 0,40,41
 216.861 822.999 216.861 822.999 359.503 985 c 0,42,43
 503.043 1147 503.043 1147 685.742 1147 c 0,44,45
 797.34 1147 797.34 1147 868.87 1098 c 0,46,47
 939.674 1050 939.674 1050 974.383 950 c 1,16,-1
EndSplineSet
EndChar
StartChar: uni0257
Encoding: 599 599 599
Width: 1426
Flags: W
TeX: 0 0 0 0
Fore
1131.19 1002 m 1,0,-1
 955.9 0 l 1,1,-1
 790.3 0 l 1,2,-1
 819.689 168 l 1,3,4
 749.996 68 749.996 68 662.399 20 c 0,5,6
 573.726 -29 573.726 -29 462.126 -29 c 0,7,8
 279.426 -29 279.426 -29 192.567 133 c 0,9,10
 106.607 295 106.607 295 152.792 559 c 128,-1,11
 198.977 823 198.977 823 341.618 985 c 0,12,13
 485.159 1147 485.159 1147 667.858 1147 c 0,14,15
 779.459 1147 779.459 1147 850.987 1098 c 0,16,17
 921.789 1050 921.789 1050 956.495 950 c 1,18,-1
 965.591 1002 l 1,19,-1
 991.485 1150 l 2,20,21
 1028.92 1364 1028.92 1364 1119.52 1460 c 0,22,23
 1209.21 1556 1209.21 1556 1372.11 1556 c 2,24,-1
 1600.71 1556 l 1,25,-1
 1573.42 1400 l 1,26,-1
 1363.72 1400 l 2,27,28
 1265.62 1400 1265.62 1400 1226.62 1352 c 0,29,30
 1183.33 1300 1183.33 1300 1157.08 1150 c 2,31,-1
 1131.19 1002 l 1,0,-1
323.792 559 m 0,32,33
 288.279 356 288.279 356 342.686 240 c 0,34,35
 398.167 125 398.167 125 529.567 125 c 128,-1,36
 660.968 125 660.968 125 756.686 240 c 0,37,38
 852.579 356 852.579 356 888.093 559 c 128,-1,39
 923.605 762 923.605 762 868.3 878 c 0,40,41
 812.817 993 812.817 993 681.417 993 c 128,-1,42
 550.018 993 550.018 993 454.3 878 c 0,43,44
 359.306 762 359.306 762 323.792 559 c 0,32,33
EndSplineSet
EndChar
StartChar: uni0258
Encoding: 600 600 600
Width: 1195
Flags: W
Fore
171.132 606 m 2,0,1
 214.866 856 214.866 856 358.309 1002 c 0,2,3
 502.476 1147 502.476 1147 705.876 1147 c 0,4,5
 932.676 1147 932.676 1147 1037.71 986 c 0,6,7
 1143.47 824 1143.47 824 1095.36 549 c 0,8,9
 1048.82 283 1048.82 283 880.233 127 c 0,10,11
 712.543 -29 712.543 -29 471.343 -29 c 0,12,13
 375.043 -29 375.043 -29 285.292 -7 c 128,-1,14
 195.541 15 195.541 15 113.788 57 c 1,15,-1
 144.229 231 l 1,16,17
 223.332 179 223.332 179 308.783 153 c 0,18,19
 393.334 127 393.334 127 488.734 127 c 0,20,21
 653.434 127 653.434 127 762.554 226 c 0,22,23
 872.748 326 872.748 326 916.787 516 c 1,24,-1
 155.388 516 l 1,25,-1
 171.132 606 l 2,0,1
346.18 660 m 1,26,-1
 936.403 659 l 1,27,28
 951.444 817 951.444 817 882.966 904 c 0,29,30
 815.386 991 815.386 991 676.785 991 c 0,31,32
 554.386 991 554.386 991 464.841 901 c 0,33,34
 374.395 811 374.395 811 346.18 660 c 1,26,-1
EndSplineSet
EndChar
StartChar: uni0259
Encoding: 601 601 601
Width: 1196
Flags: W
Fore
156.286 512 m 2,0,-1
 172.031 602 l 1,1,-1
 933.431 602 l 1,2,3
 955.871 792 955.871 792 880.665 892 c 0,4,5
 806.185 991 806.185 991 641.484 991 c 0,6,7
 546.085 991 546.085 991 452.435 965 c 0,8,9
 357.887 939 357.887 939 260.59 887 c 1,10,-1
 291.03 1061 l 1,11,12
 387.478 1103 387.478 1103 484.927 1125 c 128,-1,13
 582.375 1147 582.375 1147 678.675 1147 c 0,14,15
 919.875 1147 919.875 1147 1032.98 991 c 0,16,17
 1146.99 835 1146.99 835 1100.46 569 c 0,18,19
 1052.35 294 1052.35 294 889.909 132 c 0,20,21
 728.542 -29 728.542 -29 501.742 -29 c 0,22,23
 298.343 -29 298.343 -29 204.91 116 c 0,24,25
 112.552 262 112.552 262 156.286 512 c 2,0,-1
312.439 458 m 1,26,27
 287.824 307 287.824 307 346.777 217 c 0,28,29
 404.833 127 404.833 127 527.233 127 c 0,30,31
 665.833 127 665.833 127 763.854 214 c 0,32,33
 862.773 301 862.773 301 903.015 459 c 1,34,-1
 312.439 458 l 1,26,27
EndSplineSet
EndChar
StartChar: uni025A
Encoding: 602 602 602
Width: 1554
Flags: W
TeX: 0 0 0 0
Fore
789.601 214 m 1,0,1
 905.545 352.001 905.545 352.001 939.956 559 c 0,2,3
 951.386 621.088 951.386 621.088 952.278 677.116 c 1,4,-1
 334.692 320.668 l 1,5,6
 349.671 252.429 349.671 252.429 372.525 217 c 0,7,8
 430.58 127 430.58 127 552.98 127 c 0,9,10
 703.88 127 703.88 127 789.601 214 c 1,0,1
1135.92 783.111 m 1,11,12
 1146.82 686.852 1146.82 686.852 1126.2 569 c 0,13,14
 1078.1 293.999 1078.1 293.999 915.656 132 c 0,15,16
 754.292 -29 754.292 -29 527.49 -29 c 0,17,18
 322.383 -29 322.383 -29 230.657 116 c 0,19,20
 165.608 219.33 165.608 219.33 168.359 375.314 c 1,21,-1
 935.235 818.253 l 1,22,23
 924.311 857.132 924.311 857.132 906.412 892 c 0,24,25
 855.808 991.984 855.808 991.984 667.232 991 c 0,26,27
 570.004 990.493 570.004 990.493 478.183 965 c 0,28,29
 383.635 938.999 383.635 938.999 286.338 887 c 1,30,-1
 316.777 1061 l 1,31,32
 413.23 1103 413.23 1103 510.674 1125 c 0,33,34
 608.128 1147 608.128 1147 704.423 1147 c 0,35,36
 945.623 1147 945.623 1147 1058.73 991 c 0,37,38
 1084.56 955.655 1084.56 955.655 1102.15 914.662 c 1,39,-1
 1305.3 1032 l 1,40,-1
 1470.9 1032 l 1,41,-1
 1445.01 884 l 2,42,43
 1418.24 730.998 1418.24 730.998 1443.88 682 c 0,44,45
 1469.68 634 1469.68 634 1564.18 634 c 2,46,-1
 1602.88 634 l 1,47,-1
 1575.58 478 l 1,48,-1
 1517.98 478 l 2,49,50
 1360.91 478 1360.91 478 1298.98 574 c 0,51,52
 1240.93 664 1240.93 664 1276.08 864 c 1,53,-1
 1135.92 783.111 l 1,11,12
EndSplineSet
EndChar
StartChar: uni025B
Encoding: 603 603 603
Width: 1060
Flags: W
TeX: 0 0 0 0
Fore
418.069 607 m 1,0,1
 315.343 632 315.343 632 268.215 697 c 0,2,3
 221.811 761 221.811 761 238.255 855 c 0,4,5
 261.696 989 261.696 989 385.317 1068 c 128,-1,6
 508.938 1147 508.938 1147 697.037 1147 c 0,7,8
 769.938 1147 769.938 1147 849.738 1135 c 0,9,10
 930.439 1123 930.439 1123 1020.75 1099 c 1,11,-1
 991.522 932 l 1,12,13
 902.648 959 902.648 959 826.623 972 c 0,14,15
 751.323 984 751.323 984 682.923 984 c 0,16,17
 558.723 984 558.723 984 484.6 941 c 128,-1,18
 410.478 898 410.478 898 397.531 824 c 0,19,20
 386.86 763 386.86 763 444.138 720 c 0,21,22
 501.24 676 501.24 676 622.74 676 c 2,23,-1
 772.14 676 l 1,24,-1
 746.948 532 l 1,25,-1
 603.848 532 l 2,26,27
 468.848 532 468.848 532 383.627 477 c 128,-1,28
 298.404 422 298.404 422 284.233 341 c 0,29,30
 267.091 243 267.091 243 338.818 190 c 0,31,32
 411.62 138 411.62 138 567.32 138 c 0,33,34
 656.421 138 656.421 138 741.47 156 c 0,35,36
 826.344 173 826.344 173 901.592 207 c 1,37,-1
 871.327 34 l 1,38,39
 779.128 6 779.128 6 695.68 -8 c 0,40,41
 611.33 -22 611.33 -22 533.931 -22 c 0,42,43
 305.331 -22 305.331 -22 196.149 69 c 0,44,45
 88.0449 161 88.0449 161 117.085 327 c 0,46,47
 136.154 436 136.154 436 215.699 510 c 128,-1,48
 295.245 584 295.245 584 418.069 607 c 1,0,1
EndSplineSet
EndChar
StartChar: uni025C
Encoding: 604 604 604
Width: 1056
Flags: W
TeX: 0 0 0 0
Fore
714.497 607 m 1,0,1
 829.273 584 829.273 584 882.928 510 c 0,2,3
 937.482 436 937.482 436 918.414 327 c 0,4,5
 889.372 161 889.372 161 748.178 69 c 0,6,7
 608.059 -22 608.059 -22 378.559 -22 c 0,8,9
 302.059 -22 302.059 -22 222.607 -8 c 128,-1,10
 143.156 6 143.156 6 61.6543 34 c 1,11,-1
 91.9199 207 l 1,12,13
 154.372 173 154.372 173 233.298 156 c 0,14,15
 312.049 138 312.049 138 402.049 138 c 0,16,17
 557.748 138 557.748 138 647.847 190 c 0,18,19
 739.019 243 739.019 243 756.161 341 c 0,20,21
 770.332 422 770.332 422 703.455 477 c 0,22,23
 637.476 532 637.476 532 502.476 532 c 2,24,-1
 360.276 532 l 1,25,-1
 385.468 676 l 1,26,-1
 533.968 676 l 2,27,28
 656.368 676 656.368 676 728.865 720 c 0,29,30
 801.188 763 801.188 763 811.859 824 c 0,31,32
 824.806 898 824.806 898 765.728 941 c 0,33,34
 705.751 984 705.751 984 581.551 984 c 0,35,36
 514.051 984 514.051 984 433.651 972 c 0,37,38
 353.977 959 353.977 959 255.652 932 c 1,39,-1
 284.868 1099 l 1,40,41
 383.567 1123 383.567 1123 467.566 1135 c 0,42,43
 552.466 1147 552.466 1147 624.466 1147 c 0,44,45
 813.466 1147 813.466 1147 909.445 1068 c 128,-1,46
 1005.42 989 1005.42 989 981.986 855 c 0,47,48
 965.534 761 965.534 761 895.843 697 c 0,49,50
 825.971 632 825.971 632 714.497 607 c 1,0,1
EndSplineSet
EndChar
StartChar: uni025D
Encoding: 605 605 605
Width: 1491
Flags: W
TeX: 0 0 0 0
Fore
743.594 607 m 1,0,1
 858.37 583.999 858.37 583.999 912.024 510 c 0,2,3
 966.578 435.999 966.578 435.999 947.51 327 c 0,4,5
 918.47 161.002 918.47 161.002 777.274 69 c 0,6,7
 637.154 -22 637.154 -22 407.655 -22 c 0,8,9
 331.148 -22 331.148 -22 251.704 -8 c 0,10,11
 172.252 6.00098 172.252 6.00098 90.751 34 c 1,12,-1
 121.017 207 l 1,13,14
 183.467 173.002 183.467 173.002 262.395 156 c 0,15,16
 341.145 138 341.145 138 431.145 138 c 0,17,18
 586.843 138 586.843 138 676.943 190 c 0,19,20
 768.115 243.002 768.115 243.002 785.258 341 c 0,21,22
 799.429 422 799.429 422 732.552 477 c 0,23,24
 666.571 532 666.571 532 531.572 532 c 2,25,-1
 389.372 532 l 1,26,-1
 414.564 676 l 1,27,-1
 563.064 676 l 2,28,29
 685.466 676 685.466 676 757.962 720 c 0,30,31
 830.284 762.999 830.284 762.999 840.955 824 c 0,32,33
 853.902 898.002 853.902 898.002 794.824 941 c 0,34,35
 734.846 984 734.846 984 610.647 984 c 0,36,37
 543.147 984 543.147 984 462.748 972 c 0,38,39
 383.085 959.003 383.085 959.003 284.749 932 c 1,40,-1
 313.965 1099 l 1,41,42
 412.662 1123 412.662 1123 496.663 1135 c 0,43,44
 581.562 1147 581.562 1147 653.562 1147 c 0,45,46
 842.56 1147 842.56 1147 938.542 1068 c 0,47,48
 1017.28 1003.19 1017.28 1003.19 1015.65 901.352 c 1,49,-1
 1241.84 1032 l 1,50,-1
 1407.44 1032 l 1,51,-1
 1381.55 884 l 2,52,53
 1354.78 730.998 1354.78 730.998 1380.42 682 c 0,54,55
 1406.22 634 1406.22 634 1500.72 634 c 2,56,-1
 1539.42 634 l 1,57,-1
 1512.13 478 l 1,58,-1
 1454.53 478 l 2,59,60
 1297.44 478 1297.44 478 1235.52 574 c 0,61,62
 1177.47 664 1177.47 664 1212.62 864 c 1,63,-1
 932.134 702.115 l 1,64,-1
 931.698 703.401 l 1,65,-1
 924.939 697 l 2,66,67
 855.064 631.998 855.064 631.998 743.594 607 c 1,0,1
EndSplineSet
EndChar
StartChar: uni025E
Encoding: 606 606 606
Width: 1328
Flags: W
TeX: 0 0 0 0
Fore
843.88 984 m 0,0,1
 437.079 984 437.079 984 363.054 566 c 1,2,3
 285.03 120 285.03 120 692.556 119 c 0,4,5
 833.855 119 833.855 119 909.003 173 c 0,6,7
 996.695 237 996.695 237 1009.65 311 c 0,8,9
 1023.29 389 1023.29 389 961.637 443 c 0,10,11
 928.185 473 928.185 473 761.685 473 c 2,12,-1
 597.884 473 l 9,13,-1
 625.351 630 l 1,14,-1
 789.15 630 l 2,15,16
 955.65 630 955.65 630 999.602 660 c 0,17,18
 1080.32 715 1080.32 715 1093.79 792 c 128,-1,19
 1107.26 869 1107.26 869 1041.43 930 c 0,20,21
 982.484 984 982.484 984 843.88 984 c 0,0,1
600.299 1099 m 0,22,23
 708.972 1144 708.972 1144 888.246 1145 c 0,24,25
 1095.25 1145 1095.25 1145 1200.8 1059 c 0,26,27
 1306.18 972 1306.18 972 1280.29 824 c 0,28,29
 1262.27 721 1262.27 721 1185.95 650 c 128,-1,30
 1109.63 579 1109.63 579 987.002 552 c 1,31,32
 1100.01 524 1100.01 524 1151.49 453 c 128,-1,33
 1202.97 382 1202.97 382 1184.95 279 c 0,34,35
 1159.05 131 1159.05 131 1023.41 45 c 0,36,37
 887.59 -42 887.59 -42 680.59 -42 c 0,38,39
 503.84 -44 503.84 -44 411.186 18 c 0,40,41
 114.824 212 114.824 212 175.005 556 c 0,42,43
 244.457 953 244.457 953 600.299 1099 c 0,22,23
EndSplineSet
EndChar
StartChar: uni025F
Encoding: 607 607 607
Width: 686
Flags: W
Fore
129.995 0 m 1,0,-1
 -32.9053 0 l 1,1,-1
 -7.64941 143 l 1,2,-1
 155.25 143 l 1,3,-1
 325.931 1120 l 1,4,-1
 491.53 1120 l 1,5,-1
 320.583 143 l 1,6,-1
 478.982 143 l 1,7,-1
 453.728 0 l 1,8,-1
 295.566 0 l 1,9,-1
 295.595 0 l 1,10,-1
 292.096 -20 l 2,11,12
 254.658 -234 254.658 -234 164.964 -330 c 0,13,14
 74.3701 -426 74.3701 -426 -88.5303 -426 c 2,15,-1
 -151.53 -426 l 1,16,-1
 -124.239 -270 l 1,17,-1
 -80.1396 -270 l 2,18,19
 14.3594 -270 14.3594 -270 56.958 -222 c 0,20,21
 99.9043 -172 99.9043 -172 126.496 -20 c 2,22,-1
 129.995 0 l 1,23,-1
 129.995 0 l 1,0,-1
EndSplineSet
EndChar
StartChar: uni0260
Encoding: 608 608 608
Width: 1254
Flags: W
TeX: 0 0 0 0
Fore
918.573 573 m 2,0,-1
 992.044 993 l 1,1,-1
 709.448 993 l 2,2,3
 576.248 993 576.248 993 483.204 883 c 0,4,5
 389.262 773 389.262 773 354.272 573 c 0,6,7
 319.459 374 319.459 374 374.915 264 c 0,8,9
 429.472 154 429.472 154 562.672 154 c 0,10,11
 696.771 154 696.771 154 790.715 264 c 0,12,13
 883.759 374 883.759 374 918.573 573 c 2,0,-1
1014.27 1120 m 1,14,-1
 1019.51 1150 l 2,15,16
 1056.95 1364 1056.95 1364 1147.55 1460 c 0,17,18
 1237.24 1556 1237.24 1556 1400.14 1556 c 2,19,-1
 1463.14 1556 l 1,20,-1
 1435.85 1400 l 1,21,-1
 1391.75 1400 l 2,22,23
 1297.25 1400 1297.25 1400 1254.66 1352 c 0,24,25
 1211.88 1303 1211.88 1303 1185.11 1150 c 2,26,-1
 1179.87 1120 l 1,27,-1
 1172.34 1077 l 1,28,-1
 1008.24 139 l 2,29,30
 958.302 -146.501 958.302 -146.501 819.598 -286 c 0,31,32
 680.396 -426 680.396 -426 445.006 -426 c 0,33,34
 357.705 -426 357.705 -426 282.755 -412 c 0,35,36
 207.979 -397 207.979 -397 140.327 -367 c 1,37,-1
 171.643 -188 l 1,38,39
 236.845 -232 236.845 -232 304.271 -253 c 0,40,41
 371.697 -274 371.697 -274 445.497 -274 c 0,42,43
 608.396 -274 608.396 -274 705.842 -180 c 0,44,45
 803.46 -85 803.46 -85 836.874 106 c 2,46,-1
 852.795 197 l 1,47,48
 784.176 98 784.176 98 695.503 49 c 0,49,50
 606.831 0 606.831 0 495.23 0 c 0,51,52
 309.831 0 309.831 0 223.896 157 c 0,53,54
 137.963 314 137.963 314 183.272 573 c 0,55,56
 224.035 805.999 224.035 805.999 364.9 963 c 0,57,58
 505.766 1120 505.766 1120 691.166 1120 c 2,59,-1
 1014.27 1120 l 1,14,-1
EndSplineSet
EndChar
StartChar: uni0261
Encoding: 609 609 609
Width: 1238
Flags: W
TeX: 0 0 0 0
Fore
945.211 573 m 1,0,-1
 1018.69 993 l 1,1,-1
 736.086 993 l 1,2,3
 602.886 993 602.886 993 509.843 883 c 0,4,5
 415.899 773 415.899 773 380.911 573 c 0,6,7
 346.097 374 346.097 374 401.553 264 c 0,8,9
 456.109 154 456.109 154 589.31 154 c 0,10,11
 723.409 154 723.409 154 817.354 264 c 0,12,13
 910.396 374 910.396 374 945.211 573 c 1,0,-1
1206.51 1120 m 1,14,-1
 1034.89 139 l 2,15,16
 984.855 -147 984.855 -147 846.235 -286 c 0,17,18
 707.443 -426 707.443 -426 471.644 -426 c 0,19,20
 384.343 -426 384.343 -426 309.393 -412 c 0,21,22
 234.616 -397 234.616 -397 166.966 -367 c 1,23,-1
 198.28 -188 l 1,24,25
 263.482 -232 263.482 -232 330.908 -253 c 128,-1,26
 398.335 -274 398.335 -274 472.135 -274 c 0,27,28
 635.034 -274 635.034 -274 732.479 -180 c 0,29,30
 830.098 -85 830.098 -85 863.513 106 c 2,31,-1
 879.433 197 l 1,32,33
 810.813 98 810.813 98 722.141 49 c 128,-1,34
 633.469 0 633.469 0 521.868 0 c 0,35,36
 336.469 0 336.469 0 250.534 157 c 128,-1,37
 164.601 314 164.601 314 209.911 573 c 0,38,39
 250.673 806 250.673 806 391.538 963 c 0,40,41
 532.402 1120 532.402 1120 717.804 1120 c 2,42,-1
 1206.51 1120 l 1,14,-1
EndSplineSet
EndChar
StartChar: uni0262
Encoding: 610 610 610
Width: 1223
Flags: W
TeX: 0 0 0 0
Fore
834.712 178 m 0,1,-1
 884.045 460 l 1,2,-1
 744.545 460 l 1,3,-1
 769.038 600 l 1,4,-1
 1057.94 600 l 1,5,-1
 965.568 72 l 1,6,7
 894.82 38 894.82 38 813.021 18 c 0,8,9
 739.672 0 739.672 0 557.872 0 c 0,10,11
 330.172 0 330.172 0 223.888 159 c 128,-1,12
 117.604 318 117.604 318 164.838 588 c 0,13,14
 212.772 862 212.772 862 376.139 1019 c 0,15,16
 538.604 1176 538.604 1176 774.404 1176 c 0,17,18
 830.204 1176 830.204 1176 920.655 1158 c 0,19,20
 1011.28 1141 1011.28 1141 1112.46 1066 c 1,21,-1
 1082.37 894 l 1,22,23
 987.843 971 987.843 971 892.664 998 c 0,24,25
 818.214 1020 818.214 1020 754.313 1020 c 0,26,27
 593.214 1020 593.214 1020 484.169 906 c 0,28,29
 375.302 793 375.302 793 339.438 588 c 128,-1,30
 303.575 383 303.575 383 372.907 270 c 0,31,32
 442.062 156 442.062 156 603.162 156 c 0,33,34
 758.862 156 758.862 156 834.712 178 c 0,1,-1
EndSplineSet
EndChar
StartChar: uni0263
Encoding: 611 611 611
Width: 1342
Flags: W
TeX: 0 0 0 0
Fore
876.195 572 m 1,0,1
 1052.9 126.136 1052.9 126.136 996.891 -194 c 0,2,3
 956.347 -425.749 956.347 -425.749 610.002 -430 c 0,4,5
 228.832 -434.857 228.832 -434.857 269.688 -194 c 0,6,7
 327.536 147.713 327.536 147.713 663.22 579 c 1,8,-1
 400.563 1120 l 1,9,-1
 595.863 1120 l 1,10,-1
 798.587 720 l 1,11,-1
 1130.46 1120 l 1,12,-1
 1325.76 1120 l 1,13,-1
 876.195 572 l 1,0,1
746.302 452 m 1,14,15
 494.419 144 494.419 144 449.186 -130 c 0,16,17
 427.282 -268.01 427.282 -268.01 619.443 -268 c 16,18,19
 802.549 -267.986 802.549 -267.986 827.186 -130 c 0,20,21
 871.82 120 871.82 120 746.302 452 c 1,14,15
EndSplineSet
EndChar
StartChar: uni0264
Encoding: 612 612 612
Width: 1162
Flags: W
TeX: 0 0 0 0
Fore
521.034 586 m 1,0,-1
 256.253 1120 l 1,1,-1
 451.553 1120 l 1,2,-1
 649.051 721 l 1,3,-1
 986.15 1120 l 1,4,-1
 1181.45 1120 l 1,5,-1
 721.609 575 l 1,6,7
 840.548 334 840.548 334 811.376 167.25 c 0,8,9
 783.377 0.000976562 783.377 0.000976562 524.942 0 c 0,10,11
 252.917 0 252.917 0 282.177 167.25 c 0,12,13
 313.098 344 313.098 344 521.034 586 c 1,0,-1
592.692 440 m 1,14,15
 459.188 282 459.188 282 448.823 222.75 c 0,16,17
 430.291 119.241 430.291 119.241 541.079 119.25 c 16,18,19
 643.342 119.25 643.342 119.25 661.448 222.75 c 0,20,21
 672.514 286 672.514 286 592.692 440 c 1,14,15
EndSplineSet
EndChar
StartChar: uni0265
Encoding: 613 613 613
Width: 1240
Flags: W
Fore
245.127 442 m 2,0,-1
 363.737 1120 l 1,1,-1
 529.338 1120 l 1,2,-1
 411.951 449 l 2,3,4
 384.135 290 384.135 290 425.94 210 c 0,5,6
 467.92 131 467.92 131 579.52 131 c 0,7,8
 713.62 131 713.62 131 808.539 226 c 0,9,10
 902.559 321 902.559 321 931.249 485 c 2,11,-1
 1042.34 1120 l 1,12,-1
 1207.94 1120 l 1,13,-1
 937.477 -426 l 1,14,-1
 771.877 -426 l 1,15,-1
 876.492 172 l 1,16,17
 798.348 70 798.348 70 709.501 20 c 0,18,19
 621.729 -29 621.729 -29 516.429 -29 c 0,20,21
 342.729 -29 342.729 -29 273.722 91 c 128,-1,22
 204.715 211 204.715 211 245.127 442 c 2,0,-1
EndSplineSet
EndChar
StartChar: uni0266
Encoding: 614 614 614
Width: 1225
Flags: W
Fore
420.18 946 m 1,0,-1
 421.079 946 l 1,1,2
 498.148 1047 498.148 1047 586.995 1097 c 0,3,4
 676.743 1147 676.743 1147 782.043 1147 c 0,5,6
 955.743 1147 955.743 1147 1024.02 1028 c 0,7,8
 1092.13 908 1092.13 908 1051.54 676 c 2,9,-1
 933.284 0 l 1,10,-1
 767.684 0 l 1,11,-1
 884.896 670 l 2,12,13
 912.711 829 912.711 829 870.732 908 c 128,-1,14
 828.752 987 828.752 987 717.151 987 c 0,15,16
 583.052 987 583.052 987 489.032 892 c 128,-1,17
 395.013 797 395.013 797 366.321 633 c 2,18,-1
 255.584 0 l 1,19,-1
 89.084 0 l 1,20,-1
 264.376 1002 l 1,21,-1
 290.269 1150 l 2,22,23
 327.705 1364 327.705 1364 418.3 1460 c 0,24,25
 507.994 1556 507.994 1556 670.895 1556 c 2,26,-1
 899.494 1556 l 1,27,-1
 872.203 1400 l 1,28,-1
 662.503 1400 l 2,29,30
 568.003 1400 568.003 1400 525.405 1352 c 0,31,32
 482.634 1303 482.634 1303 455.868 1150 c 2,33,-1
 420.18 946 l 1,0,-1
EndSplineSet
EndChar
StartChar: uni0267
Encoding: 615 615 615
Width: 1230
Flags: W
Fore
461.583 946 m 1,0,-1
 462.482 946 l 1,1,2
 539.551 1047 539.551 1047 628.398 1097 c 0,3,4
 718.144 1147 718.144 1147 823.445 1147 c 0,5,6
 997.146 1147 997.146 1147 1065.43 1028 c 0,7,8
 1133.53 908 1133.53 908 1092.95 676 c 2,9,-1
 971.19 -20 l 2,10,11
 933.751 -233.999 933.751 -233.999 843.155 -330 c 0,12,13
 753.462 -426 753.462 -426 590.562 -426 c 2,14,-1
 361.962 -426 l 1,15,-1
 389.252 -270 l 1,16,-1
 598.952 -270 l 2,17,18
 693.451 -270 693.451 -270 736.049 -222 c 0,19,20
 778.822 -173.002 778.822 -173.002 805.588 -20 c 2,21,-1
 926.299 670 l 2,22,23
 954.114 829.002 954.114 829.002 912.135 908 c 0,24,25
 870.153 987 870.153 987 758.555 987 c 0,26,27
 624.455 987 624.455 987 530.436 892 c 0,28,29
 436.417 797 436.417 797 407.726 633 c 2,30,-1
 296.987 0 l 1,31,-1
 130.487 0 l 1,32,-1
 305.779 1002 l 1,33,-1
 331.671 1150 l 2,34,35
 369.108 1364 369.108 1364 459.703 1460 c 0,36,37
 549.397 1556 549.397 1556 712.298 1556 c 2,38,-1
 940.897 1556 l 1,39,-1
 913.606 1400 l 1,40,-1
 703.906 1400 l 2,41,42
 609.407 1400 609.407 1400 566.81 1352 c 0,43,44
 524.037 1303 524.037 1303 497.271 1150 c 2,45,-1
 461.583 946 l 1,0,-1
EndSplineSet
EndChar
StartChar: uni0268
Encoding: 616 616 616
Width: 719
Flags: W
Fore
82.0615 452 m 1,0,-1
 110.753 616 l 1,1,-1
 272.753 616 l 1,2,-1
 360.924 1120 l 1,3,-1
 526.524 1120 l 1,4,-1
 438.353 616 l 1,5,-1
 585.953 616 l 1,6,-1
 557.262 452 l 1,7,-1
 409.662 452 l 1,8,-1
 330.588 0 l 1,9,-1
 164.988 0 l 1,10,-1
 244.062 452 l 1,11,-1
 82.0615 452 l 1,0,-1
437.198 1556 m 1,12,-1
 602.798 1556 l 1,13,-1
 562.037 1323 l 1,14,-1
 396.438 1323 l 1,15,-1
 437.198 1556 l 1,12,-1
EndSplineSet
EndChar
StartChar: uni0269
Encoding: 617 617 617
Width: 747
Flags: W
TeX: 0 0 0 0
Fore
471.012 1120 m 1,0,-1
 346.103 406 l 2,13,-1
 319.337 253 319.337 253 344.965 204 c 0,11,12
 370.769 156 370.769 156 465.269 156 c 2,9,10
 509.368 156 l 1,8,-1
 482.077 0 l 1,7,-1
 419.077 0 l 2,6,-1
 256.177 0 256.177 0 199.172 96 c 0,4,5
 143.065 192 143.065 192 180.503 406 c 2,2,3
 305.412 1120 l 1,1,-1
 471.012 1120 l 1,0,-1
EndSplineSet
EndChar
StartChar: uni026A
Encoding: 618 618 618
Width: 722
Flags: W
TeX: 0 0 0 0
Fore
212.178 956 m 1,0,-1
 240.868 1120 l 1,1,-1
 398.368 1120 l 1,2,-1
 563.968 1120 l 1,3,-1
 716.067 1120 l 1,4,-1
 687.378 956 l 1,5,-1
 535.277 956 l 1,6,-1
 396.723 164 l 1,7,-1
 548.822 164 l 1,8,-1
 520.132 0 l 1,9,-1
 368.032 0 l 1,10,-1
 202.433 0 l 1,11,-1
 44.9326 0 l 1,12,-1
 73.623 164 l 1,13,-1
 231.122 164 l 1,14,-1
 369.678 956 l 1,15,-1
 212.178 956 l 1,0,-1
EndSplineSet
EndChar
StartChar: uni026B
Encoding: 619 619 619
Width: 948
Flags: W
Fore
562.788 1556 m 1,0,-1
 728.389 1556 l 1,1,-1
 590.652 768.679 l 1,2,3
 591.876 767.776 591.876 767.776 593.059 767 c 0,4,5
 606.785 758 606.785 758 618.484 758 c 0,6,7
 652.685 758 652.685 758 675.357 795 c 0,8,9
 697.854 830.998 697.854 830.998 714 913 c 1,10,-1
 826.5 913 l 1,11,12
 801.082 777.998 801.082 777.998 742.413 705 c 0,13,14
 683.567 631 683.567 631 601.667 631 c 0,15,16
 583.341 631 583.341 631 567.27 635.019 c 1,17,-1
 456.178 0 l 1,18,-1
 290.578 0 l 1,19,-1
 425.298 770.082 l 1,20,21
 420.719 774.303 420.719 774.303 416.608 777 c 0,22,23
 402.882 786 402.882 786 391.183 786 c 0,24,25
 356.982 786 356.982 786 334.311 749 c 0,26,27
 311.812 713.002 311.812 713.002 295.667 631 c 1,28,-1
 183.167 631 l 1,29,30
 208.586 766.002 208.586 766.002 267.255 839 c 0,31,32
 326.1 913 326.1 913 408 913 c 0,33,34
 430.3 913 430.3 913 449.26 907.049 c 1,35,-1
 562.788 1556 l 1,0,-1
EndSplineSet
EndChar
StartChar: uni026C
Encoding: 620 620 620
Width: 944
Flags: W
TeX: 0 0 0 0
Fore
558.969 1556 m 1,0,-1
 724.568 1556 l 1,1,-1
 589.862 786 l 1,2,-1
 814.862 786 l 1,3,-1
 786.872 626 l 1,4,-1
 561.872 626 l 1,5,-1
 452.358 0 l 1,6,-1
 286.758 0 l 1,7,-1
 391.001 595.868 l 1,8,9
 393.324 611.304 393.324 611.304 395.359 626 c 1,10,-1
 340.472 626 l 2,11,12
 88.4727 626 88.4727 626 122.437 815 c 0,13,14
 166.371 1061 166.371 1061 386.872 1061 c 0,15,16
 434.732 1061 434.732 1061 468.017 1036.1 c 1,17,-1
 558.969 1556 l 1,0,-1
409.68 786 m 1,18,19
 411.871 918 411.871 918 362.755 918 c 0,20,21
 293.454 918 293.454 918 279.435 843 c 0,22,23
 269.463 786 269.463 786 352.263 786 c 2,24,-1
 409.68 786 l 1,18,19
EndSplineSet
EndChar
StartChar: uni026D
Encoding: 621 621 621
Width: 544
Flags: W
Fore
128.872 128 m 1,0,-1
 378.689 1556 l 1,1,-1
 544.289 1556 l 1,2,-1
 294.472 128 l 1,3,-1
 268.58 -20 l 2,4,5
 241.813 -173 241.813 -173 267.441 -222 c 0,6,7
 293.244 -270 293.244 -270 387.744 -270 c 2,8,-1
 431.844 -270 l 1,9,-1
 404.554 -426 l 1,10,-1
 341.554 -426 l 2,11,12
 178.653 -426 178.653 -426 122.548 -330 c 0,13,14
 65.543 -234 65.543 -234 102.979 -20 c 2,15,-1
 128.872 128 l 1,0,-1
EndSplineSet
EndChar
StartChar: uni026E
Encoding: 622 622 622
Width: 1230
Flags: W
TeX: 0 0 0 0
Fore
926.298 670 m 2,0,1
 954.113 829.002 954.113 829.002 912.135 908 c 0,2,3
 870.152 987 870.152 987 758.554 987 c 0,4,5
 624.454 987 624.454 987 530.435 892 c 0,6,7
 436.416 797 436.416 797 407.725 633 c 2,8,-1
 296.986 0 l 1,9,-1
 130.486 0 l 1,10,-1
 402.696 1556 l 1,11,-1
 569.196 1556 l 1,12,-1
 462.481 946 l 1,13,14
 539.548 1047 539.548 1047 628.848 1097 c 0,15,16
 718.143 1147 718.143 1147 823.445 1147 c 0,17,18
 997.146 1147 997.146 1147 1065.34 1027.5 c 0,19,20
 1133.53 908.001 1133.53 908.001 1092.95 676 c 2,21,-1
 971.189 -20 l 2,22,23
 933.75 -233.999 933.75 -233.999 843.155 -330 c 0,24,25
 753.461 -426 753.461 -426 590.561 -426 c 2,26,-1
 361.961 -426 l 1,27,-1
 389.252 -270 l 1,28,-1
 598.951 -270 l 2,29,30
 693.451 -270 693.451 -270 736.049 -222 c 0,31,32
 778.821 -173.002 778.821 -173.002 805.587 -20 c 2,33,-1
 926.298 670 l 2,0,1
EndSplineSet
EndChar
StartChar: uni026F
Encoding: 623 623 623
Width: 1899
Flags: W
Fore
893.817 216 m 1,0,1
 810.024 92 810.024 92 713.479 34 c 0,2,3
 616.582 -26 616.582 -26 499.582 -26 c 0,4,5
 342.082 -26 342.082 -26 278.1 97 c 128,-1,6
 214.117 220 214.117 220 253.654 446 c 2,7,-1
 371.915 1122 l 1,8,-1
 538.415 1122 l 1,9,-1
 421.204 452 l 2,10,11
 392.863 290 392.863 290 430.518 212 c 128,-1,12
 468.172 134 468.172 134 573.472 134 c 0,13,14
 702.172 134 702.172 134 793.667 230 c 0,15,16
 884.812 324 884.812 324 913.502 488 c 2,17,-1
 1024.41 1122 l 1,18,-1
 1190.91 1122 l 1,19,-1
 1073.7 452 l 2,20,21
 1045.36 290 1045.36 290 1083.02 212 c 128,-1,22
 1120.68 134 1120.68 134 1227.78 134 c 0,23,24
 1354.68 134 1354.68 134 1446.17 230 c 128,-1,25
 1537.66 326 1537.66 326 1566 488 c 2,26,-1
 1676.91 1122 l 1,27,-1
 1843.41 1122 l 1,28,-1
 1647.48 2 l 1,29,-1
 1480.98 2 l 1,30,-1
 1511.42 176 l 1,31,32
 1436.52 72 1436.52 72 1348.92 24 c 0,33,34
 1260.99 -26 1260.99 -26 1152.08 -26 c 0,35,36
 1042.29 -26 1042.29 -26 975.729 36 c 0,37,38
 910.074 98 910.074 98 893.817 216 c 1,0,1
EndSplineSet
EndChar
StartChar: uni0270
Encoding: 624 624 624
Width: 1903
Flags: W
Fore
932.771 216 m 1,0,1
 848.979 92 848.979 92 752.257 33 c 128,-1,2
 655.535 -26 655.535 -26 538.535 -26 c 0,3,4
 381.035 -26 381.035 -26 316.878 96 c 0,5,6
 252.896 219 252.896 219 292.433 445 c 2,7,-1
 410.694 1121 l 1,8,-1
 577.194 1121 l 1,9,-1
 459.982 451 l 2,10,11
 431.817 290 431.817 290 469.471 212 c 128,-1,12
 507.126 134 507.126 134 612.426 134 c 0,13,14
 741.126 134 741.126 134 832.445 229 c 128,-1,15
 923.765 324 923.765 324 952.456 488 c 2,16,-1
 1063.19 1121 l 1,17,-1
 1229.69 1121 l 1,18,-1
 1112.48 451 l 2,19,20
 1084.14 289 1084.14 289 1121.97 212 c 0,21,22
 1159.63 134 1159.63 134 1266.73 134 c 0,23,24
 1393.63 134 1393.63 134 1485.12 230 c 0,25,26
 1576.44 325 1576.44 325 1604.96 488 c 2,27,-1
 1715.69 1121 l 1,28,-1
 1882.19 1121 l 1,29,-1
 1611.56 -426 l 1,30,-1
 1445.06 -426 l 1,31,-1
 1550.2 175 l 1,32,33
 1475.48 72 1475.48 72 1387.7 23 c 128,-1,34
 1299.94 -26 1299.94 -26 1191.04 -26 c 0,35,36
 1081.24 -26 1081.24 -26 1014.68 36 c 0,37,38
 949.028 98 949.028 98 932.771 216 c 1,0,1
EndSplineSet
EndChar
StartChar: uni0271
Encoding: 625 625 625
Width: 1896
Flags: W
Fore
1154.51 905 m 1,0,1
 1238.3 1029 1238.3 1029 1335.02 1088 c 0,2,3
 1431.74 1147 1431.74 1147 1548.74 1147 c 0,4,5
 1706.24 1147 1706.24 1147 1770.22 1024 c 0,6,7
 1834.38 902 1834.38 902 1794.85 676 c 2,8,-1
 1673.09 -20 l 2,9,10
 1635.65 -233.999 1635.65 -233.999 1545.05 -330 c 0,11,12
 1455.36 -426 1455.36 -426 1292.46 -426 c 2,13,-1
 1063.86 -426 l 1,14,-1
 1091.15 -270 l 1,15,-1
 1300.85 -270 l 2,16,17
 1395.35 -270 1395.35 -270 1437.94 -222 c 0,18,19
 1480.72 -173.002 1480.72 -173.002 1507.49 -20 c 1,20,21
 1520.45 65.957 1520.45 65.957 1594.75 480.41 c 0,22,23
 1614.4 590.006 1614.4 590.006 1627.29 670 c 0,24,25
 1655.46 831 1655.46 831 1617.81 909 c 0,26,27
 1580.15 987 1580.15 987 1474.85 987 c 0,28,29
 1346.15 987 1346.15 987 1254.83 892 c 0,30,31
 1163.52 797 1163.52 797 1134.82 633 c 2,32,-1
 1024.09 0 l 1,33,-1
 857.584 0 l 1,34,-1
 974.795 670 l 2,35,36
 1003.14 832 1003.14 832 965.481 910 c 0,37,38
 927.652 987 927.652 987 820.552 987 c 0,39,40
 693.651 987 693.651 987 602.332 892 c 0,41,42
 510.837 796.001 510.837 796.001 482.322 633 c 2,43,-1
 371.584 0 l 1,44,-1
 205.084 0 l 1,45,-1
 401.02 1120 l 1,46,-1
 567.52 1120 l 1,47,-1
 537.079 946 l 1,48,49
 611.799 1049 611.799 1049 699.569 1098 c 0,50,51
 787.343 1147 787.343 1147 896.242 1147 c 0,52,53
 1006.04 1147 1006.04 1147 1071.7 1085 c 0,54,55
 1138.25 1023 1138.25 1023 1154.51 905 c 1,0,1
EndSplineSet
EndChar
StartChar: uni0272
Encoding: 626 626 626
Width: 1241
Flags: W
Fore
323.698 -20 m 1,0,1
 286.261 -234 286.261 -234 196.566 -330 c 0,2,3
 105.973 -426 105.973 -426 -56.9277 -426 c 2,4,-1
 -119.928 -426 l 1,5,-1
 -92.6367 -270 l 1,6,-1
 -48.5371 -270 l 2,7,8
 45.9629 -270 45.9629 -270 88.5605 -222 c 0,9,10
 131.332 -173 131.332 -173 158.099 -20 c 1,11,-1
 357.533 1120 l 1,12,-1
 524.033 1120 l 1,13,-1
 493.594 946 l 1,14,15
 570.662 1047 570.662 1047 660.409 1097 c 0,16,17
 749.256 1147 749.256 1147 854.557 1147 c 0,18,19
 1028.26 1147 1028.26 1147 1096.54 1028 c 0,20,21
 1164.64 908 1164.64 908 1124.06 676 c 2,22,-1
 1005.8 0 l 1,23,-1
 840.197 0 l 1,24,-1
 957.408 670 l 2,25,26
 985.228 829 985.228 829 943.245 908 c 128,-1,27
 901.266 987 901.266 987 789.665 987 c 0,28,29
 655.565 987 655.565 987 561.546 892 c 128,-1,30
 467.526 797 467.526 797 438.836 633 c 2,31,-1
 323.698 -20 l 1,0,1
EndSplineSet
EndChar
StartChar: uni0273
Encoding: 627 627 627
Width: 1250
Flags: W
Fore
967.513 670 m 2,0,1
 995.331 829.002 995.331 829.002 953.349 908 c 0,2,3
 911.367 987 911.367 987 799.77 987 c 0,4,5
 665.669 987 665.669 987 571.65 892 c 0,6,7
 477.631 797 477.631 797 448.94 633 c 2,8,-1
 338.202 0 l 1,9,-1
 171.702 0 l 1,10,-1
 367.637 1120 l 1,11,-1
 534.137 1120 l 1,12,-1
 503.697 946 l 1,13,14
 580.766 1047 580.766 1047 669.613 1097 c 0,15,16
 759.358 1147 759.358 1147 864.66 1147 c 0,17,18
 1038.36 1147 1038.36 1147 1106.64 1028 c 0,19,20
 1174.75 908 1174.75 908 1134.17 676 c 2,21,-1
 1012.4 -20 l 2,22,23
 985.639 -173.002 985.639 -173.002 1011.26 -222 c 0,24,25
 1037.06 -270 1037.06 -270 1131.56 -270 c 2,26,-1
 1175.66 -270 l 1,27,-1
 1148.38 -426 l 1,28,-1
 1085.38 -426 l 2,29,30
 922.477 -426 922.477 -426 866.37 -330 c 0,31,32
 809.365 -233.999 809.365 -233.999 846.803 -20 c 2,33,-1
 967.513 670 l 2,0,1
EndSplineSet
EndChar
StartChar: uni0274
Encoding: 628 628 628
Width: 1233
Flags: W
TeX: 0 0 0 0
Fore
326.58 1147 m 1,0,-1
 571.38 1147 l 1,1,-1
 842.707 244 l 1,2,-1
 1000.68 1147 l 1,3,-1
 1177.08 1147 l 1,4,-1
 976.418 0 l 1,5,-1
 731.62 0 l 1,6,-1
 460.293 903 l 1,7,-1
 302.32 0 l 1,8,-1
 125.92 0 l 1,9,-1
 326.58 1147 l 1,0,-1
EndSplineSet
EndChar
StartChar: uni0275
Encoding: 629 629 629
Width: 1190
Flags: W
Fore
729.872 1147 m 0,0,1
 945.871 1147 945.871 1147 1041.88 991 c 0,2,3
 1137.89 835.001 1137.89 835.001 1089.61 559 c 0,4,5
 1041.49 283.999 1041.49 283.999 890.905 128 c 0,6,7
 740.137 -29 740.137 -29 524.139 -29 c 0,8,9
 307.239 -29 307.239 -29 212.306 128 c 0,10,11
 116.296 283.999 116.296 283.999 164.405 559 c 0,12,13
 212.689 835.001 212.689 835.001 363.281 991 c 0,14,15
 512.971 1147 512.971 1147 729.872 1147 c 0,0,1
702.581 991 m 0,16,17
 569.383 991 569.383 991 471.861 876 c 0,18,19
 387.172 775.44 387.172 775.44 349.474 611 c 1,20,-1
 921.804 611 l 1,21,22
 941.242 773.593 941.242 773.593 891.812 874 c 0,23,24
 834.88 991 834.88 991 702.581 991 c 0,16,17
887.604 447 m 1,25,-1
 326.173 447 l 1,26,27
 320.552 323.514 320.552 323.514 360.049 242 c 0,28,29
 417.331 127 417.331 127 551.43 127 c 0,30,31
 683.729 127 683.729 127 781.424 243 c 0,32,33
 849.933 324.346 849.933 324.346 887.604 447 c 1,25,-1
EndSplineSet
EndChar
StartChar: uni0276
Encoding: 630 630 630
Width: 1669
Flags: W
TeX: 0 0 0 0
Fore
1588.42 1120 m 1,0,-1
 1561.49 966 l 1,1,-1
 1061.09 966 l 1,2,-1
 1010.17 675 l 1,3,-1
 1489.88 675 l 1,4,-1
 1462.76 520 l 1,5,-1
 983.062 520 l 1,6,-1
 919.384 156 l 1,7,-1
 1432.38 156 l 1,8,-1
 1405.09 0 l 1,9,-1
 685.992 0 l 2,10,11
 393.492 0 393.492 0 268.034 142 c 0,12,13
 141.852 285 141.852 285 190.135 561 c 0,14,15
 238.069 835 238.069 835 414.111 977 c 0,16,17
 589.428 1120 589.428 1120 881.928 1120 c 2,18,-1
 1588.42 1120 l 1,0,-1
896.985 990 m 1,19,-1
 863.686 990 l 2,20,21
 647.686 990 647.686 990 520.792 882 c 0,22,23
 394.072 775 394.072 775 356.285 559 c 0,24,25
 318.322 342 318.322 342 407.429 234 c 0,26,27
 496.359 125 496.359 125 712.359 125 c 2,28,-1
 745.659 125 l 1,29,-1
 896.985 990 l 1,19,-1
EndSplineSet
EndChar
StartChar: uni0277
Encoding: 631 631 631
Width: 1414
Flags: W
TeX: 0 0 0 0
Fore
470.018 780 m 0,0,1
 400.124 684 400.124 684 393.925 664 c 0,2,3
 352.73 552 352.73 552 344.784 486 c 0,4,5
 323.669 319 323.669 319 353.147 256 c 0,6,7
 392.278 171 392.278 171 462.479 171 c 0,8,9
 531.778 171 531.778 171 595.098 250 c 0,10,11
 629.621 293 629.621 293 661.986 478 c 2,12,-1
 693.824 660 l 1,13,-1
 834.225 660 l 17,14,-1
 802.386 478 l 2,15,16
 770.021 293 770.021 293 789.498 250 c 0,17,18
 825.179 171 825.179 171 894.479 171 c 0,19,20
 961.979 171 961.979 171 1033.55 256 c 0,21,22
 1074.35 304 1074.35 304 1122.39 486 c 0,23,24
 1131.01 561 1131.01 561 1135.53 664 c 0,25,26
 1136.85 687 1136.85 687 1099.11 780 c 0,27,28
 1032.61 940 1032.61 940 804.009 940 c 0,29,30
 586.209 940 586.209 940 470.018 780 c 0,0,1
296.317 780 m 0,32,33
 446.196 1148 446.196 1148 849.222 1147 c 0,34,35
 1226.87 1145 1226.87 1145 1269.21 780 c 8,36,37
 1282.42 660 1282.42 660 1285.67 658 c 0,38,39
 1280.61 557 1280.61 557 1265.04 468 c 0,40,41
 1224.8 238 1224.8 238 1123.05 104 c 128,-1,42
 1021.32 -30 1021.32 -30 889.014 -30 c 0,43,44
 796.314 -30 796.314 -30 744.835 41 c 128,-1,45
 693.356 112 693.356 112 691.074 243 c 1,46,47
 642.956 112 642.956 112 566.636 41 c 128,-1,48
 490.314 -30 490.314 -30 397.613 -30 c 0,49,50
 265.313 -30 265.313 -30 210.457 104 c 0,51,52
 149.223 253 149.223 253 195.835 468 c 0,53,54
 201.86 487 201.86 487 241.675 658 c 0,55,56
 273.021 724 273.021 724 296.317 780 c 0,32,33
EndSplineSet
EndChar
StartChar: uni0278
Encoding: 632 632 632
Width: 1190
Flags: W
TeX: 0 0 0 0
Fore
685.892 1391 m 1,0,-1
 469.892 1391 l 1,1,-1
 498.582 1555 l 1,2,-1
 714.582 1555 l 1,3,-1
 880.182 1555 l 1,4,-1
 1096.18 1555 l 1,5,-1
 1067.49 1391 l 1,6,-1
 851.492 1391 l 1,7,-1
 807.783 1141.16 l 1,8,9
 963.272 1116.82 963.272 1116.82 1040.72 991 c 0,10,11
 1136.72 835.001 1136.72 835.001 1088.44 559 c 0,12,13
 1040.33 283.999 1040.33 283.999 889.739 128 c 0,14,15
 768.137 1.37109 768.137 1.37109 604.101 -23.125 c 1,16,-1
 562.485 -261 l 1,17,-1
 778.485 -261 l 1,18,-1
 749.795 -425 l 1,19,-1
 533.795 -425 l 1,20,-1
 368.195 -425 l 1,21,-1
 152.196 -425 l 1,22,-1
 180.886 -261 l 1,23,-1
 396.886 -261 l 1,24,-1
 438.643 -22.3135 l 1,25,26
 286.481 3.40137 286.481 3.40137 211.139 128 c 0,27,28
 115.13 283.999 115.13 283.999 163.239 559 c 0,29,30
 211.522 835.001 211.522 835.001 362.114 991 c 0,31,32
 480.913 1114.81 480.913 1114.81 642.044 1140.36 c 1,33,-1
 685.892 1391 l 1,0,-1
779.357 978.674 m 1,34,-1
 632.502 139.221 l 1,35,36
 714.273 164.651 714.273 164.651 780.257 243 c 0,37,38
 877.951 359 877.951 359 912.939 559 c 0,39,40
 947.753 758 947.753 758 890.646 874 c 0,41,42
 852.192 953.024 852.192 953.024 779.357 978.674 c 1,34,-1
467.142 140.591 m 1,43,-1
 613.506 977.23 l 1,44,45
 534.47 951.206 534.47 951.206 470.695 876 c 0,46,47
 373.002 760 373.002 760 337.839 559 c 0,48,49
 302.676 358.002 302.676 358.002 358.882 242 c 0,50,51
 396.473 166.534 396.473 166.534 467.142 140.591 c 1,43,-1
EndSplineSet
EndChar
StartChar: uni0279
Encoding: 633 633 633
Width: 909
Flags: W
Fore
80.4307 172 m 1,0,1
 105.183 154 105.183 154 136.183 146 c 0,2,3
 167.908 137 167.908 137 207.508 137 c 0,4,5
 347.908 137 347.908 137 440.277 238 c 0,6,7
 533.722 340 533.722 340 566.961 530 c 2,8,-1
 670.178 1120 l 1,9,-1
 836.678 1120 l 1,10,-1
 640.741 0 l 1,11,-1
 474.241 0 l 1,12,-1
 504.682 174 l 1,13,14
 434.638 72 434.638 72 342.19 22 c 0,15,16
 249.917 -27 249.917 -27 130.218 -27 c 0,17,18
 113.117 -27 113.117 -27 92.9434 -24 c 0,19,20
 72.5928 -22 72.5928 -22 48.2676 -17 c 1,21,-1
 80.4307 172 l 1,0,1
EndSplineSet
EndChar
StartChar: uni027A
Encoding: 634 634 634
Width: 909
Flags: W
Fore
43.1689 172 m 1,0,1
 67.9199 154 67.9199 154 98.9199 146 c 0,2,3
 130.646 137 130.646 137 170.245 137 c 0,4,5
 313.346 137 313.346 137 403.015 238 c 0,6,7
 496.984 343 496.984 343 529.698 530 c 2,8,-1
 707.439 1546 l 1,9,-1
 873.939 1546 l 1,10,-1
 603.479 0 l 1,11,-1
 436.979 0 l 1,12,-1
 467.418 174 l 1,13,14
 397.374 72 397.374 72 304.928 22 c 0,15,16
 212.655 -27 212.655 -27 92.9551 -27 c 0,17,18
 75.8555 -27 75.8555 -27 55.6797 -24 c 0,19,20
 35.3301 -22 35.3301 -22 11.0039 -17 c 1,21,-1
 43.1689 172 l 1,0,1
EndSplineSet
EndChar
StartChar: uni027B
Encoding: 635 635 635
Width: 912
Flags: W
Fore
119.21 172 m 1,0,1
 143.958 154.002 143.958 154.002 174.962 146 c 0,2,3
 206.687 137 206.687 137 246.287 137 c 0,4,5
 386.688 137 386.688 137 479.056 238 c 0,6,7
 572.501 340 572.501 340 605.739 530 c 2,8,-1
 708.955 1120 l 1,9,-1
 875.455 1120 l 1,10,-1
 676.021 -20 l 2,11,12
 649.255 -173.002 649.255 -173.002 674.882 -222 c 0,13,14
 700.687 -270 700.687 -270 795.186 -270 c 2,15,-1
 839.285 -270 l 1,16,-1
 811.995 -426 l 1,17,-1
 748.995 -426 l 2,18,19
 586.095 -426 586.095 -426 529.988 -330 c 0,20,21
 472.983 -233.999 472.983 -233.999 510.421 -20 c 1,22,23
 543.46 174 l 1,24,25
 473.418 72.002 473.418 72.002 380.969 22 c 0,26,27
 288.695 -27 288.695 -27 168.997 -27 c 0,28,29
 151.897 -27 151.897 -27 131.722 -24 c 0,30,31
 111.352 -21.9971 111.352 -21.9971 87.0459 -17 c 1,32,-1
 119.21 172 l 1,0,1
EndSplineSet
EndChar
StartChar: uni027C
Encoding: 636 636 636
Width: 908
Flags: W
Fore
838.831 948 m 1,0,1
 814.08 966 814.08 966 783.08 974 c 0,2,3
 751.354 983 751.354 983 711.755 983 c 0,4,5
 571.354 983 571.354 983 478.985 882 c 0,6,7
 385.542 780 385.542 780 352.302 590 c 2,8,-1
 174.561 -426 l 1,9,-1
 8.06055 -426 l 1,10,-1
 278.521 1120 l 1,11,-1
 445.021 1120 l 1,12,-1
 414.582 946 l 1,13,14
 484.626 1048 484.626 1048 577.072 1098 c 0,15,16
 669.345 1147 669.345 1147 789.045 1147 c 0,17,18
 806.145 1147 806.145 1147 826.32 1144 c 0,19,20
 846.67 1142 846.67 1142 870.996 1137 c 1,21,-1
 838.831 948 l 1,0,1
EndSplineSet
EndChar
StartChar: uni027D
Encoding: 637 637 637
Width: 911
Flags: W
Fore
841.902 948 m 1,0,1
 817.155 965.998 817.155 965.998 786.151 974 c 0,2,3
 754.427 983 754.427 983 714.826 983 c 0,4,5
 574.426 983 574.426 983 482.057 882 c 0,6,7
 388.787 780.999 388.787 780.999 355.373 590 c 2,8,-1
 252.157 0 l 1,9,-1
 250.357 0 l 1,10,-1
 246.858 -20 l 2,11,12
 220.093 -173.002 220.093 -173.002 245.72 -222 c 0,13,14
 271.523 -270 271.523 -270 366.023 -270 c 2,15,-1
 575.723 -270 l 1,16,-1
 548.433 -426 l 1,17,-1
 319.832 -426 l 2,18,19
 156.933 -426 156.933 -426 100.826 -330 c 0,20,21
 43.8213 -233.999 43.8213 -233.999 81.2588 -20 c 1,22,-1
 280.693 1120 l 1,23,-1
 448.093 1120 l 1,24,-1
 417.653 946 l 1,25,26
 487.696 1048 487.696 1048 580.144 1098 c 0,27,28
 672.418 1147 672.418 1147 792.116 1147 c 0,29,30
 809.216 1147 809.216 1147 829.392 1144 c 0,31,32
 849.762 1142 849.762 1142 874.067 1137 c 1,33,-1
 841.902 948 l 1,0,1
EndSplineSet
EndChar
StartChar: uni027E
Encoding: 638 638 638
Width: 852
Flags: W
Fore
146.536 600 m 1,0,-1
 171.203 741 l 2,1,2
 208.291 953 208.291 953 299.234 1051 c 0,3,4
 388.931 1147 388.931 1147 551.83 1147 c 2,5,-1
 780.431 1147 l 1,6,-1
 753.138 991 l 1,7,-1
 543.438 991 l 2,8,9
 448.938 991 448.938 991 406.341 943 c 0,10,11
 362.493 893 362.493 893 336.803 741 c 2,12,-1
 311.286 590 l 9,13,-1
 208.07 0 l 1,14,-1
 41.5703 0 l 1,15,-1
 146.536 600 l 1,0,-1
EndSplineSet
EndChar
StartChar: uni027F
Encoding: 639 639 639
Width: 859
Flags: W
Fore
691.236 600 m 1,0,-1
 586.271 0 l 1,1,-1
 419.771 0 l 1,2,-1
 522.987 590 l 17,3,-1
 550.304 741 l 2,4,5
 577.794 893 577.794 893 551.441 943 c 0,6,7
 525.64 991 525.64 991 431.139 991 c 2,8,-1
 221.438 991 l 1,9,-1
 248.731 1147 l 1,10,-1
 477.331 1147 l 2,11,12
 640.231 1147 640.231 1147 696.335 1051 c 0,13,14
 752.992 953 752.992 953 715.904 741 c 2,15,-1
 691.236 600 l 1,0,-1
EndSplineSet
EndChar
StartChar: uni0280
Encoding: 640 640 640
Width: 1152
Flags: W
Fore
624.241 525 m 1,0,1
 670.769 508 670.769 508 709.021 454 c 0,2,3
 746.374 400 746.374 400 777.629 306 c 1,4,-1
 880.697 0 l 1,5,-1
 705.197 0 l 1,6,-1
 609.606 287 l 1,7,8
 572.674 400 572.674 400 525.871 436 c 0,9,10
 479.245 473 479.245 473 391.944 473 c 2,11,-1
 239.845 473 l 1,12,-1
 157.097 0 l 1,13,-1
 -9.40234 0 l 1,14,-1
 186.532 1120 l 1,15,-1
 535.732 1120 l 2,16,17
 731.032 1120 731.032 1120 814.237 1040 c 0,18,19
 896.367 959 896.367 959 868.026 797 c 0,20,21
 849.657 692 849.657 692 787.012 622 c 128,-1,22
 724.365 552 724.365 552 624.241 525 c 1,0,1
325.916 965 m 1,23,-1
 266.961 628 l 1,24,-1
 445.161 628 l 2,25,26
 552.261 628 552.261 628 616.483 671 c 0,27,28
 681.606 714 681.606 714 696.126 797 c 0,29,30
 710.821 881 710.821 881 660.568 923 c 0,31,32
 611.217 965 611.217 965 504.116 965 c 2,33,-1
 325.916 965 l 1,23,-1
EndSplineSet
EndChar
StartChar: uni0281
Encoding: 641 641 641
Width: 1163
Flags: W
Fore
647.373 595 m 1,0,1
 738.05 568 738.05 568 776.203 498 c 128,-1,2
 814.357 428 814.357 428 795.988 323 c 0,3,4
 767.647 161 767.647 161 657.177 80 c 0,5,6
 545.982 0 545.982 0 350.683 0 c 2,7,-1
 1.48242 0 l 1,8,-1
 197.418 1120 l 1,9,-1
 363.918 1120 l 1,10,-1
 281.17 647 l 1,11,-1
 433.27 647 l 2,12,13
 520.569 647 520.569 647 580.144 684 c 0,14,15
 639.541 720 639.541 720 716.009 833 c 1,16,-1
 912.018 1120 l 1,17,-1
 1087.51 1120 l 1,18,-1
 877.386 814 l 1,19,20
 813.241 720 813.241 720 756.993 666 c 0,21,22
 699.846 612 699.846 612 647.373 595 c 1,0,1
195.099 155 m 1,23,-1
 373.298 155 l 2,24,25
 480.398 155 480.398 155 544.446 197 c 0,26,27
 609.394 239 609.394 239 624.089 323 c 0,28,29
 638.608 406 638.608 406 588.531 449 c 0,30,31
 539.354 492 539.354 492 432.254 492 c 2,32,-1
 254.054 492 l 1,33,-1
 195.099 155 l 1,23,-1
EndSplineSet
EndChar
StartChar: uni0282
Encoding: 642 642 642
Width: 1013
Flags: W
TeX: 0 0 0 0
Fore
996.836 1087 m 1,0,-1
 966.398 913 l 1,1,2
 903.191 952.999 903.191 952.999 831.091 973 c 0,3,4
 758.992 993 758.992 993 677.989 993 c 0,5,6
 554.689 993 554.689 993 486.142 951 c 0,7,8
 416.693 909 416.693 909 401.999 825 c 0,9,10
 390.804 761 390.804 761 428.43 724 c 0,11,12
 466.23 688.001 466.23 688.001 593.659 655 c 2,13,-1
 647.909 641 l 2,14,15
 816.964 598.999 816.964 598.999 877.292 522 c 0,16,17
 938.696 446.002 938.696 446.002 914.729 309 c 0,18,19
 887.438 152.999 887.438 152.999 760.818 62 c 0,20,21
 633.299 -29 633.299 -29 438.898 -29 c 0,22,23
 357.895 -29 357.895 -29 272.673 -12 c 2,24,-1
 254.485 -7.92969 l 1,25,-1
 252.373 -20 l 2,26,27
 225.606 -173.002 225.606 -173.002 251.234 -222 c 0,28,29
 277.038 -270 277.038 -270 371.537 -270 c 2,30,-1
 581.237 -270 l 1,31,-1
 553.946 -426 l 1,32,-1
 325.347 -426 l 2,33,34
 162.446 -426 162.446 -426 106.341 -330 c 0,35,36
 49.3359 -233.999 49.3359 -233.999 86.7725 -20 c 2,37,-1
 97.4443 41 l 1,38,-1
 130.684 231 l 1,39,40
 213.205 178.003 213.205 178.003 297.764 152 c 0,41,42
 382.14 125 382.14 125 469.44 125 c 0,43,44
 586.441 125 586.441 125 657.312 170 c 0,45,46
 728.009 214.002 728.009 214.002 742.181 295 c 0,47,48
 755.301 370.002 755.301 370.002 717.298 410 c 0,49,50
 678.394 450.002 678.394 450.002 530.969 487 c 2,51,-1
 475.993 502 l 1,52,53
 328.389 538.001 328.389 538.001 272.937 612 c 0,54,55
 217.658 687.001 217.658 687.001 240.399 817 c 0,56,57
 268.04 974.998 268.04 974.998 383.885 1061 c 0,58,59
 499.729 1147 499.729 1147 685.131 1147 c 0,60,61
 776.931 1147 776.931 1147 855.307 1132 c 0,62,63
 933.685 1117 933.685 1117 996.836 1087 c 1,0,-1
EndSplineSet
EndChar
StartChar: uni0283
Encoding: 643 643 643
Width: 653
Flags: W
Fore
105.858 -20 m 0,0,1
 214.123 604 214.123 604 316.238 1198 c 0,2,3
 347.903 1379 347.903 1379 442.123 1470 c 0,4,5
 530.068 1556 530.068 1556 705.568 1556 c 2,6,-1
 862.168 1556 l 1,7,-1
 835.402 1403 l 1,8,-1
 677.002 1403 l 2,9,10
 587.902 1403 587.902 1403 546.703 1363 c 0,11,12
 504.606 1323 504.606 1323 486.412 1219 c 1,13,-1
 271.458 -20 l 2,14,15
 234.021 -234 234.021 -234 144.326 -330 c 0,16,17
 53.7324 -426 53.7324 -426 -109.168 -426 c 2,18,-1
 -172.168 -426 l 1,19,-1
 -144.877 -270 l 1,20,-1
 -100.777 -270 l 2,21,22
 -6.27637 -270 -6.27637 -270 36.3203 -222 c 0,23,24
 79.0918 -173 79.0918 -173 105.858 -20 c 0,0,1
EndSplineSet
EndChar
StartChar: uni0284
Encoding: 644 644 644
Width: 745
Flags: W
Fore
38.457 0 m 1,0,-1
 63.7129 143 l 1,1,-1
 226.612 143 l 1,2,-1
 372.276 977 l 1,3,-1
 211.177 977 l 1,4,-1
 236.192 1120 l 1,5,-1
 394.593 1120 l 1,6,-1
 408.238 1198 l 2,7,8
 439.903 1379 439.903 1379 534.122 1470 c 0,9,10
 622.067 1556 622.067 1556 797.567 1556 c 2,11,-1
 954.167 1556 l 1,12,-1
 927.401 1403 l 1,13,-1
 769.002 1403 l 2,14,15
 679.903 1403 679.903 1403 638.703 1363 c 0,16,17
 596.606 1323 596.606 1323 578.412 1219 c 1,18,-1
 391.945 143 l 1,19,-1
 550.345 143 l 1,20,-1
 525.09 0 l 1,21,-1
 366.93 0 l 1,22,-1
 363.458 -20 l 1,23,24
 326.021 -234 326.021 -234 236.326 -330 c 0,25,26
 145.733 -426 145.733 -426 -17.168 -426 c 2,27,-1
 -80.168 -426 l 1,28,-1
 -52.877 -270 l 1,29,-1
 -8.77734 -270 l 2,30,31
 85.7227 -270 85.7227 -270 128.32 -222 c 0,32,33
 171.092 -173.002 171.092 -173.002 197.858 -20 c 2,34,-1
 201.357 0 l 1,35,-1
 38.457 0 l 1,0,-1
EndSplineSet
EndChar
StartChar: uni0285
Encoding: 645 645 645
Width: 894
Flags: W
Fore
509.188 -20 m 0,0,1
 482.423 -173 482.423 -173 508.05 -222 c 0,2,3
 533.852 -270 533.852 -270 628.352 -270 c 2,4,-1
 672.452 -270 l 1,5,-1
 645.161 -426 l 1,6,-1
 582.161 -426 l 2,7,8
 419.262 -426 419.262 -426 362.256 -330 c 0,9,10
 305.425 -233 305.425 -233 343.589 -20 c 2,11,-1
 486.74 788 l 1,12,13
 504.935 892 504.935 892 476.833 932 c 0,14,15
 449.631 972 449.631 972 360.531 972 c 2,16,-1
 202.131 972 l 1,17,-1
 228.896 1125 l 1,18,-1
 385.497 1125 l 2,19,20
 560.997 1125 560.997 1125 618.852 1039 c 0,21,22
 685.582 942 685.582 942 649.566 767 c 0,23,24
 631.298 678 631.298 678 509.188 -20 c 0,0,1
EndSplineSet
EndChar
StartChar: uni0286
Encoding: 646 646 646
Width: 643
Flags: W
TeX: 0 0 0 0
Fore
60.9102 -154 m 1,0,-1
 -100.19 -154 l 2,1,2
 -207.29 -154 -207.29 -154 -213.512 -205 c 0,3,4
 -222.162 -270 -222.162 -270 -110.583 -270 c 0,5,6
 -11.583 -270 -11.583 -270 26.5137 -222 c 1,7,8
 46.6572 -199.163 46.6572 -199.163 60.9102 -154 c 1,0,-1
265.151 0 m 1,9,-1
 428.052 0 l 1,10,-1
 400.936 -155 l 1,11,-1
 229.035 -155 l 1,12,13
 193.589 -266.139 193.589 -266.139 134.52 -330 c 0,14,15
 43.4756 -426 43.4756 -426 -118.974 -426 c 0,16,17
 -391.674 -426 -391.674 -426 -353.887 -210 c 0,18,19
 -317.148 0 -317.148 0 -74.1484 0 c 2,20,-1
 96.8516 0 l 1,21,-1
 306.433 1198 l 2,22,23
 338.009 1378.5 338.009 1378.5 432.316 1470 c 0,24,25
 520.688 1556 520.688 1556 695.762 1556 c 2,26,-1
 852.361 1556 l 1,27,-1
 825.596 1403 l 1,28,-1
 667.195 1403 l 2,29,30
 577.229 1403 577.229 1403 536.897 1363 c 0,31,32
 494.713 1322.5 494.713 1322.5 476.606 1219 c 1,33,-1
 265.151 0 l 1,9,-1
EndSplineSet
EndChar
StartChar: uni0287
Encoding: 647 647 647
Width: 756
Flags: W
Fore
298.861 -318 m 1,0,-1
 354.494 0 l 1,1,-1
 13.3936 0 l 1,2,-1
 38.4102 143 l 1,3,-1
 379.51 143 l 1,4,-1
 485.875 751 l 2,5,6
 509.842 888 509.842 888 482.465 927 c 0,7,8
 455.987 966 455.987 966 352.487 966 c 2,9,-1
 182.388 966 l 1,10,-1
 209.329 1120 l 1,11,-1
 379.429 1120 l 2,12,13
 571.129 1120 571.129 1120 630.033 1040 c 0,14,15
 689.113 961 689.113 961 652.375 751 c 2,16,-1
 546.01 143 l 1,17,-1
 667.51 143 l 1,18,-1
 642.494 0 l 1,19,-1
 520.994 0 l 1,20,-1
 465.361 -318 l 1,21,-1
 298.861 -318 l 1,0,-1
EndSplineSet
EndChar
StartChar: uni0288
Encoding: 648 648 648
Width: 769
Flags: W
Fore
547.365 1438 m 1,0,-1
 491.733 1120 l 1,1,-1
 832.834 1120 l 1,2,-1
 807.817 977 l 1,3,-1
 466.718 977 l 1,4,-1
 286.002 -56 l 2,5,6
 262.035 -193 262.035 -193 288.512 -232 c 0,7,8
 315.889 -271 315.889 -271 419.39 -271 c 2,9,-1
 589.489 -271 l 1,10,-1
 562.549 -425 l 1,11,-1
 392.448 -425 l 2,12,13
 200.749 -425 200.749 -425 141.669 -346 c 128,-1,14
 82.5889 -267 82.5889 -267 119.502 -56 c 2,15,-1
 300.218 977 l 1,16,-1
 178.718 977 l 1,17,-1
 203.733 1120 l 1,18,-1
 325.234 1120 l 1,19,-1
 380.865 1438 l 1,20,-1
 547.365 1438 l 1,0,-1
EndSplineSet
EndChar
StartChar: uni0289
Encoding: 649 649 649
Width: 1232
Flags: W
Fore
48.3193 452 m 1,0,-1
 77.0098 616 l 1,1,-1
 233.609 616 l 1,2,-1
 321.781 1120 l 1,3,-1
 487.381 1120 l 1,4,-1
 399.21 616 l 1,5,-1
 912.21 616 l 1,6,-1
 1000.38 1120 l 1,7,-1
 1165.98 1120 l 1,8,-1
 1077.81 616 l 1,9,-1
 1245.21 616 l 1,10,-1
 1216.52 452 l 1,11,-1
 1049.12 452 l 1,12,-1
 970.049 0 l 1,13,-1
 804.445 0 l 1,14,-1
 834.535 172 l 1,15,16
 756.393 70.002 756.393 70.002 667.545 20 c 0,17,18
 579.771 -29 579.771 -29 474.472 -29 c 0,19,20
 300.771 -29 300.771 -29 231.765 91 c 0,21,22
 162.758 211.001 162.758 211.001 203.17 442 c 2,23,-1
 204.919 452 l 1,24,-1
 48.3193 452 l 1,0,-1
882.7 452 m 1,25,-1
 370.519 452 l 1,26,-1
 369.994 449 l 2,27,28
 342.179 290 342.179 290 383.982 210 c 0,29,30
 425.965 131 425.965 131 537.563 131 c 0,31,32
 671.664 131 671.664 131 766.583 226 c 0,33,34
 850.934 311.231 850.934 311.231 882.7 452 c 1,25,-1
EndSplineSet
EndChar
StartChar: uni028A
Encoding: 650 650 650
Width: 1207
Flags: W
TeX: 0 0 0 0
Fore
242.124 956 m 1,0,-1
 270.814 1120 l 1,1,-1
 668.614 1120 l 1,2,-1
 630.127 900 l 1,3,4
 519.956 831 519.956 831 444.887 726 c 0,5,6
 366.067 615 366.067 615 342.451 480 c 0,7,8
 314.636 321 314.636 321 376.866 224 c 128,-1,9
 439.097 127 439.097 127 568.696 127 c 128,-1,10
 698.297 127 698.297 127 794.466 224 c 0,11,12
 890.811 322 890.811 322 918.451 480 c 0,13,14
 943.993 626 943.993 626 902.087 726 c 0,15,16
 857.605 837 857.605 837 778.627 900 c 1,17,-1
 817.114 1120 l 1,18,-1
 1209.52 1120 l 1,19,-1
 1180.82 956 l 1,20,-1
 968.424 956 l 1,21,22
 1053.53 856 1053.53 856 1084.16 743 c 0,23,24
 1113.52 633 1113.52 633 1089.73 497 c 0,25,26
 1048.61 262 1048.61 262 895.272 116 c 128,-1,27
 741.931 -30 741.931 -30 539.431 -30 c 128,-1,28
 336.931 -30 336.931 -30 234.497 115 c 0,29,30
 132.238 261 132.238 261 172.125 489 c 0,31,32
 197.842 636 197.842 636 263.36 743 c 0,33,34
 330.13 852 330.13 852 455.424 956 c 1,35,-1
 242.124 956 l 1,0,-1
EndSplineSet
EndChar
StartChar: uni028B
Encoding: 651 651 651
Width: 1165
Flags: W
TeX: 0 0 0 0
Fore
650.917 986 m 0,0,-1
 940.717 986 l 1,1,-1
 940.717 986 l 1,2,3
 1025.83 886 1025.83 886 1056.45 773 c 0,4,5
 1085.81 663 1085.81 663 1062.02 527 c 0,6,7
 1020.91 292 1020.91 292 867.565 146 c 128,-1,8
 714.225 0 714.225 0 511.725 0 c 0,9,-1
 448.725 0 l 2,10,11
 285.824 0 285.824 0 228.819 96 c 0,12,13
 172.713 192 172.713 192 210.15 406 c 2,14,-1
 335.06 1120 l 1,15,-1
 500.659 1120 l 1,16,-1
 375.75 406 l 2,17,18
 348.984 253 348.984 253 374.612 204 c 0,19,20
 401.865 154 401.865 154 494.916 156 c 2,21,-1
 540.99 157 l 0,22,23
 670.59 157 670.59 157 766.76 254 c 0,24,25
 863.104 352 863.104 352 890.745 510 c 0,26,27
 916.286 656 916.286 656 874.381 756 c 0,28,29
 824.098 875 824.098 875 750.921 930 c 16,30,31
 690.219 974 690.219 974 650.917 986 c 0,0,-1
EndSplineSet
EndChar
StartChar: uni028C
Encoding: 652 652 652
Width: 1140
Flags: W
Fore
987.649 0 m 1,0,-1
 812.147 0 l 1,1,-1
 661.593 940 l 1,2,-1
 182.147 0 l 1,3,-1
 6.64746 0 l 1,4,-1
 580.583 1120 l 1,5,-1
 805.583 1120 l 1,6,-1
 987.649 0 l 1,0,-1
EndSplineSet
EndChar
StartChar: uni028D
Encoding: 653 653 653
Width: 1580
Flags: W
Fore
1405 0 m 1,0,-1
 1239.4 0 l 1,1,-1
 1185.3 874 l 1,2,-1
 826.297 0 l 1,3,-1
 630.997 0 l 1,4,-1
 576.896 874 l 1,5,-1
 217.897 0 l 1,6,-1
 52.2979 0 l 1,7,-1
 511.933 1120 l 1,8,-1
 707.232 1120 l 1,9,-1
 763.536 202 l 1,10,-1
 1141.93 1120 l 1,11,-1
 1337.23 1120 l 1,12,-1
 1405 0 l 1,0,-1
EndSplineSet
EndChar
StartChar: uni028E
Encoding: 654 654 654
Width: 1146
Flags: W
Fore
632.148 1224 m 1,0,1
 737.338 1424 737.338 1424 814.608 1485 c 128,-1,2
 891.881 1546 891.881 1546 1003.48 1546 c 2,3,-1
 1135.78 1546 l 1,4,-1
 1108.84 1392 l 1,5,-1
 1011.64 1392 l 2,6,7
 943.239 1392 943.239 1392 899.141 1356 c 128,-1,8
 855.044 1320 855.044 1320 785.701 1186 c 1,9,-1
 741.306 1102 l 1,10,-1
 956.216 0 l 1,11,-1
 780.72 0 l 1,12,-1
 618.969 876 l 1,13,-1
 150.72 0 l 1,14,-1
 -24.7803 0 l 1,15,-1
 632.148 1224 l 1,0,1
EndSplineSet
EndChar
StartChar: uni028F
Encoding: 655 655 655
Width: 1198
Flags: W
TeX: 0 0 0 0
Fore
265.122 1149 m 1,0,-1
 460.422 1149 l 1,1,-1
 644.348 693 l 1,2,-1
 995.92 1149 l 1,3,-1
 1191.22 1149 l 1,4,-1
 704.957 525 l 1,5,-1
 613.112 0 l 1,6,-1
 430.412 0 l 1,7,-1
 522.257 525 l 1,8,-1
 265.122 1149 l 1,0,-1
EndSplineSet
EndChar
StartChar: uni0290
Encoding: 656 656 656
Width: 1025
Flags: W
TeX: 0 0 0 0
Fore
294.821 1120 m 1,0,-1
 1081.42 1120 l 1,1,-1
 1052.03 952 l 1,2,-1
 288.402 147 l 1,3,-1
 911.202 147 l 1,4,-1
 885.485 0 l 1,5,-1
 883.686 0 l 1,6,-1
 880.187 -20 l 2,7,8
 853.42 -173.002 853.42 -173.002 879.048 -222 c 0,9,10
 904.851 -270 904.851 -270 999.354 -270 c 2,11,-1
 1043.45 -270 l 1,12,-1
 1016.16 -426 l 1,13,-1
 953.16 -426 l 2,14,15
 790.26 -426 790.26 -426 734.154 -330 c 0,16,17
 677.149 -233.999 677.149 -233.999 714.586 -20 c 2,18,-1
 718.086 0 l 1,19,-1
 76.3857 0 l 1,20,-1
 105.776 168 l 1,21,-1
 869.404 973 l 1,22,-1
 269.104 973 l 1,23,-1
 294.821 1120 l 1,0,-1
EndSplineSet
EndChar
StartChar: uni0291
Encoding: 657 657 657
Width: 1022
Flags: W
TeX: 0 0 0 0
Fore
509.563 0 m 1,0,-1
 497.642 -51.04 497.642 -51.04 487.152 -111 c 1,19,20
 349.452 -111 l 1,18,-1
 359.713 -52.3496 359.713 -52.3496 372.007 0 c 1,16,17
 45.7705 0 l 1,15,-1
 75.1602 168 l 1,14,-1
 838.789 973 l 1,13,-1
 238.489 973 l 1,12,-1
 264.206 1120 l 1,11,-1
 1050.8 1120 l 1,10,-1
 1021.42 952 l 1,9,-1
 257.787 147 l 1,8,-1
 414.952 147 l 1,7,-1
 519.368 435 519.368 435 716.77 435 c 0,5,6
 921.07 435 921.07 435 878.935 189 c 0,3,4
 846.771 0 846.771 0 546.171 0 c 2,1,2
 509.563 0 l 1,0,-1
553.938 147 m 1,21,22
 571.887 147 l 2,27,-1
 728.487 147 728.487 147 737.935 201 c 0,25,26
 753.854 292 753.854 292 690.854 292 c 0,23,24
 611.041 290.209 611.041 290.209 553.938 147 c 1,21,22
EndSplineSet
EndChar
StartChar: uni0292
Encoding: 658 658 658
Width: 1118
Flags: W
TeX: 0 0 0 0
Fore
592.512 476 m 1,0,-1
 687.912 476 687.912 476 793.315 420 c 0,31,32
 874.168 378 874.168 378 932.499 269 c 0,29,30
 987.2 165 987.2 165 963.062 27 c 0,27,28
 924.4 -194 924.4 -194 766.432 -315 c 128,-1,26
 608.464 -436 608.464 -436 356.464 -436 c 0,24,25
 271.864 -436 271.864 -436 185.913 -418 c 0,22,23
 99.2373 -399 99.2373 -399 10.3096 -362 c 1,20,21
 44.4238 -167 l 1,19,-1
 111.452 -216 111.452 -216 197.079 -241 c 128,-1,18
 282.704 -266 282.704 -266 380.804 -266 c 0,16,17
 551.804 -266 551.804 -266 654.025 -191 c 0,14,15
 757.146 -116 757.146 -116 782.163 27 c 0,12,13
 805.256 159 805.256 159 735.575 234 c 0,10,11
 664.821 308 664.821 308 516.321 308 c 2,8,9
 359.722 308 l 1,7,-1
 388.762 474 l 1,6,-1
 863.058 973 l 1,5,-1
 262.758 973 l 1,4,-1
 288.475 1120 l 1,3,-1
 1075.08 1120 l 1,2,-1
 1045.68 952 l 1,1,-1
 592.512 476 l 1,0,-1
EndSplineSet
EndChar
StartChar: uni0293
Encoding: 659 659 659
Width: 1123
Flags: W
TeX: 0 0 0 0
Fore
360.686 -436 m 0,0,1
 59.6357 -436 59.6357 -436 94.0498 -247 c 0,2,3
 139.223 3.5 139.223 3.5 407.085 -1 c 0,4,5
 628.105 -5.48047 628.105 -5.48047 759.665 -64 c 1,6,7
 777.812 -22 777.812 -22 786.385 27 c 0,8,9
 809.669 160.098 809.669 160.098 739.797 234 c 0,10,11
 668.473 308 668.473 308 520.543 308 c 2,12,-1
 363.942 308 l 1,13,-1
 392.983 474 l 1,14,-1
 867.279 973 l 1,15,-1
 266.979 973 l 1,16,-1
 292.696 1120 l 1,17,-1
 1079.3 1120 l 1,18,-1
 1049.9 952 l 1,19,-1
 596.733 476 l 1,20,21
 691.549 476 691.549 476 797.537 420 c 0,22,23
 879.666 377.098 879.666 377.098 936.721 269 c 0,24,25
 991.512 165.5 991.512 165.5 967.284 27 c 0,26,27
 947.603 -85.5 947.603 -85.5 897.546 -171 c 1,28,29
 969.786 -272.493 969.786 -272.493 941.186 -436 c 1,30,-1
 803.485 -436 l 1,31,32
 817.778 -354.296 817.778 -354.296 791.628 -298 c 1,33,34
 770.653 -315 l 2,35,36
 613.697 -436 613.697 -436 360.686 -436 c 0,0,1
665.421 -186 m 1,37,38
 560.719 -144 560.719 -144 382.969 -144 c 0,39,40
 265.519 -144 265.519 -144 251.049 -219 c 0,41,42
 242.825 -266 242.825 -266 385.025 -266 c 0,43,44
 556.025 -266 556.025 -266 658.247 -191 c 2,45,-1
 665.421 -186 l 1,37,38
EndSplineSet
EndChar
StartChar: uni0294
Encoding: 660 660 660
Width: 1000
Flags: W
Fore
369.366 798 m 9,0,-1
 426.066 798 l 1,1,2
 598.866 798 598.866 798 696.209 912 c 0,3,4
 761.706 988 761.706 988 778.849 1086 c 0,5,6
 801.217 1219 801.217 1219 761.288 1284 c 0,7,8
 692.131 1398 692.131 1398 531.031 1398 c 0,9,10
 459.031 1398 459.031 1398 384.083 1376 c 0,11,12
 310.209 1355 310.209 1355 232.486 1312 c 1,13,-1
 262.576 1484 l 1,14,15
 337.1 1519 337.1 1519 412.973 1536 c 0,16,17
 489.022 1554 489.022 1554 565.522 1554 c 0,18,19
 813.022 1554 813.022 1554 909.757 1397 c 0,20,21
 985.99 1272 985.99 1272 953.449 1086 c 0,22,23
 923.709 916 923.709 916 806.391 801 c 0,24,25
 684.773 682 684.773 682 526.524 652 c 1,26,-1
 412.463 0 l 1,27,-1
 230.663 0 l 1,28,-1
 369.366 798 l 9,0,-1
EndSplineSet
EndChar
StartChar: uni0295
Encoding: 661 661 661
Width: 1000
Flags: W
Fore
676.139 798 m 17,0,-1
 536.535 0 l 1,1,-1
 354.735 0 l 1,2,-1
 468.797 652 l 1,3,4
 321.045 682 321.045 682 241.063 801 c 0,5,6
 163.981 916 163.981 916 193.722 1086 c 0,7,8
 226.261 1272 226.261 1272 347.129 1397 c 0,9,10
 497.895 1554 497.895 1554 745.395 1554 c 0,11,12
 821.895 1554 821.895 1554 891.646 1536 c 0,13,14
 961.571 1519 961.571 1519 1023.85 1484 c 1,15,-1
 993.756 1312 l 1,16,17
 931.081 1355 931.081 1355 863.655 1376 c 0,18,19
 797.304 1398 797.304 1398 725.304 1398 c 0,20,21
 564.204 1398 564.204 1398 455.16 1284 c 0,22,23
 392.489 1219 392.489 1219 368.321 1086 c 0,24,25
 351.178 988 351.178 988 390.082 912 c 0,26,27
 447.538 798 447.538 798 620.339 798 c 1,28,-1
 676.139 798 l 17,0,-1
EndSplineSet
EndChar
StartChar: uni0296
Encoding: 662 662 662
Width: 982
Flags: W
Fore
343.962 756 m 17,0,-1
 484.465 1554 l 1,1,-1
 666.266 1554 l 1,2,-1
 552.204 902 l 1,3,4
 699.955 872 699.955 872 779.937 753 c 0,5,6
 857.019 638 857.019 638 827.278 468 c 0,7,8
 794.739 282 794.739 282 674.771 157 c 0,9,10
 523.105 0 523.105 0 275.605 0 c 0,11,12
 199.105 0 199.105 0 129.354 18 c 0,13,14
 59.4277 35 59.4277 35 -2.84863 70 c 1,15,-1
 27.2412 242 l 1,16,17
 89.9189 199 89.9189 199 156.445 178 c 0,18,19
 223.696 156 223.696 156 295.696 156 c 0,20,21
 456.797 156 456.797 156 565.84 270 c 0,22,23
 628.511 335 628.511 335 652.679 468 c 0,24,25
 669.822 566 669.822 566 630.919 642 c 0,26,27
 573.462 756 573.462 756 400.662 756 c 1,28,-1
 343.962 756 l 17,0,-1
EndSplineSet
EndChar
StartChar: uni0297
Encoding: 663 663 663
Width: 994
VWidth: 1622
Flags: W
TeX: 0 0 0 0
Fore
225.952 1088 m 17,0,1
 258.49 1274 258.49 1274 379.358 1399 c 0,2,3
 530.125 1556 530.125 1556 777.625 1556 c 0,4,5
 854.125 1556 854.125 1556 923.876 1538 c 0,6,7
 993.802 1521 993.802 1521 1056.08 1486 c 1,8,-1
 1025.99 1314 l 1,9,10
 963.31 1357 963.31 1357 895.885 1378 c 0,11,12
 829.533 1400 829.533 1400 757.533 1400 c 0,13,14
 596.434 1400 596.434 1400 487.39 1286 c 0,15,16
 424.719 1221 424.719 1221 400.552 1088 c 1,17,-1
 215.812 32 l 17,18,19
 193.445 -101 193.445 -101 233.374 -166 c 0,20,21
 302.531 -280 302.531 -280 463.631 -280 c 0,22,23
 535.631 -280 535.631 -280 609.68 -258 c 0,24,25
 684.453 -237 684.453 -237 762.176 -194 c 1,26,-1
 732.086 -366 l 1,27,28
 657.562 -401 657.562 -401 581.688 -418 c 0,29,30
 505.64 -436 505.64 -436 429.14 -436 c 0,31,32
 181.64 -436 181.64 -436 85.8057 -279 c 0,33,34
 8.67383 -154 8.67383 -154 41.2129 32 c 1,35,-1
 225.952 1088 l 17,0,1
EndSplineSet
EndChar
StartChar: uni0298
Encoding: 664 664 664
Width: 1172
Flags: W
Fore
310.229 566 m 0,0,1
 285.562 425 285.562 425 359.143 326 c 0,2,3
 431.823 227 431.823 227 558.723 227 c 128,-1,4
 685.623 227 685.623 227 792.043 326 c 128,-1,5
 898.462 425 898.462 425 923.129 566 c 0,6,7
 947.271 704 947.271 704 875.114 806 c 0,8,9
 802.06 908 802.06 908 677.859 908 c 0,10,11
 550.96 908 550.96 908 443.114 806 c 0,12,13
 334.371 704 334.371 704 310.229 566 c 0,0,1
146.649 565.2 m 0,14,15
 183.667 776.8 183.667 776.8 350.132 933.2 c 0,16,17
 515.769 1089.6 515.769 1089.6 710.349 1089.6 c 0,18,19
 900.789 1089.6 900.789 1089.6 1012.53 933.2 c 0,20,21
 1123.44 776.8 1123.44 776.8 1086.43 565.2 c 0,22,23
 1048.61 349 1048.61 349 885.43 197.2 c 128,-1,24
 722.254 45.4004 722.254 45.4004 527.674 45.4004 c 128,-1,25
 333.094 45.4004 333.094 45.4004 221.373 197.2 c 0,26,27
 108.827 349 108.827 349 146.649 565.2 c 0,14,15
514.703 567 m 0,28,29
 522.751 613 522.751 613 559.299 647 c 0,30,31
 594.947 681 594.947 681 637.247 681 c 0,32,33
 678.647 681 678.647 681 703.299 647 c 0,34,35
 727.051 613 727.051 613 719.003 567 c 0,36,37
 710.781 520 710.781 520 675.309 487 c 128,-1,38
 639.835 454 639.835 454 597.535 454 c 128,-1,39
 555.235 454 555.235 454 531.309 487 c 0,40,41
 506.481 520 506.481 520 514.703 567 c 0,28,29
EndSplineSet
EndChar
StartChar: uni0299
Encoding: 665 665 665
Width: 1122
Flags: W
Fore
388.928 530 m 1,0,-1
 325.949 170 l 1,1,-1
 524.849 170 l 2,2,3
 608.549 170 608.549 170 658.87 221 c 0,4,5
 712.418 275 712.418 275 723.439 338 c 0,6,7
 739.534 430 739.534 430 708.507 479 c 0,8,9
 676.028 530 676.028 530 591.428 530 c 2,10,-1
 388.928 530 l 1,0,-1
466.752 980 m 1,11,-1
 418.669 700 l 1,12,-1
 607.669 700 l 2,13,14
 684.169 700 684.169 700 729.491 743 c 0,15,16
 774.639 785 774.639 785 785.66 848 c 0,17,18
 793.707 894 793.707 894 763.43 937 c 128,-1,19
 733.152 980 733.152 980 655.752 980 c 2,20,-1
 466.752 980 l 1,11,-1
315.418 1149 m 1,21,-1
 672.718 1149 l 2,22,23
 832.918 1149 832.918 1149 906.371 1075 c 128,-1,24
 979.823 1001 979.823 1001 956.036 865 c 0,25,26
 937.665 760 937.665 760 882.544 697 c 0,27,28
 827.598 635 827.598 635 738.573 620 c 1,29,30
 837.699 595 837.699 595 881.654 517 c 0,31,32
 924.708 439 924.708 439 904.24 322 c 0,33,34
 877.299 168 877.299 168 768.104 84 c 0,35,36
 659.809 0 659.809 0 486.108 0 c 2,37,-1
 114.408 0 l 1,38,-1
 315.418 1149 l 1,21,-1
EndSplineSet
EndChar
StartChar: uni029A
Encoding: 666 666 666
Width: 1324
Flags: W
TeX: 0 0 0 0
Fore
709.682 984 m 0,0,1
 571.082 984 571.082 984 493.235 930 c 0,2,3
 406.063 869 406.063 869 392.594 792 c 128,-1,4
 379.122 715 379.122 715 440.602 660 c 0,5,6
 474.053 630 474.053 630 640.553 630 c 2,7,-1
 804.353 630 l 1,8,-1
 776.887 473 l 17,9,-1
 613.086 473 l 2,10,11
 446.586 473 446.586 473 402.639 443 c 0,12,13
 322.091 389 322.091 389 308.446 311 c 0,14,15
 295.5 237 295.5 237 360.805 173 c 0,16,17
 417.058 119 417.058 119 558.357 119 c 0,18,19
 965.332 120 965.332 120 1044.25 566 c 1,20,21
 1116.49 984 1116.49 984 709.682 984 c 0,0,1
993.501 1099 m 0,22,23
 1297.39 948 1297.39 948 1228.81 556 c 0,24,25
 1168.62 212 1168.62 212 804.388 18 c 0,26,27
 690.042 -44 690.042 -44 513.992 -42 c 0,28,29
 306.992 -42 306.992 -42 201.611 45 c 0,30,31
 96.0566 131 96.0566 131 121.947 279 c 0,32,33
 139.967 382 139.967 382 216.287 453 c 128,-1,34
 292.608 524 292.608 524 415.407 552 c 1,35,36
 302.23 579 302.23 579 250.751 650 c 128,-1,37
 199.271 721 199.271 721 217.292 824 c 0,38,39
 243.183 972 243.183 972 379.003 1059 c 0,40,41
 514.648 1145 514.648 1145 721.647 1145 c 0,42,43
 901.648 1145 901.648 1145 993.501 1099 c 0,22,23
EndSplineSet
EndChar
StartChar: uni029B
Encoding: 667 667 667
Width: 1390
Flags: W
TeX: 0 0 0 0
Fore
823.519 178 m 1,0,-1
 872.854 460 l 1,1,-1
 733.354 460 l 1,2,-1
 757.845 600 l 1,3,-1
 1046.74 600 l 1,4,-1
 954.375 72 l 1,5,6
 883.54 37.5 883.54 37.5 801.829 18 c 0,7,8
 728.479 0 728.479 0 546.68 0 c 0,9,10
 318.529 0 318.529 0 212.695 159 c 0,11,12
 106.505 318.535 106.505 318.535 153.645 588 c 0,13,14
 201.583 862.02 201.583 862.02 364.945 1019 c 0,15,16
 526.983 1176 526.983 1176 763.212 1176 c 0,17,18
 819.462 1176 819.462 1176 909.463 1158 c 0,19,20
 937.213 1152 937.213 1152 951.639 1147 c 1,21,-1
 951.812 1148 l 2,22,23
 989.356 1362.58 989.356 1362.58 1079.84 1458 c 0,24,25
 1169.54 1554 1169.54 1554 1332.44 1554 c 2,26,-1
 1561.04 1554 l 1,27,-1
 1533.75 1398 l 1,28,-1
 1324.05 1398 l 2,29,30
 1229.1 1398 1229.1 1398 1186.95 1350 c 0,31,32
 1143.98 1299.84 1143.98 1299.84 1117.42 1148 c 2,33,-1
 1091.52 1000 l 1,34,-1
 1089.72 1000 l 1,35,-1
 1071.18 894 l 1,36,37
 975.562 971.308 975.562 971.308 881.472 998 c 0,38,39
 808.76 1020 808.76 1020 743.12 1020 c 0,40,41
 582.02 1020 582.02 1020 472.977 906 c 0,42,43
 364.195 793.5 364.195 793.5 328.245 588 c 0,44,45
 292.295 382.5 292.295 382.5 361.714 270 c 0,46,47
 430.87 156 430.87 156 591.971 156 c 0,48,49
 749.711 156 749.711 156 823.519 178 c 1,0,-1
EndSplineSet
EndChar
StartChar: uni029C
Encoding: 668 668 668
Width: 1233
Flags: W
Fore
326.58 1147 m 1,0,-1
 508.38 1147 l 1,1,-1
 430.181 700 l 1,2,-1
 917.08 700 l 1,3,-1
 995.282 1147 l 1,4,-1
 1177.08 1147 l 1,5,-1
 976.418 0 l 1,6,-1
 794.62 0 l 1,7,-1
 887.341 530 l 1,8,-1
 400.44 530 l 1,9,-1
 307.72 0 l 1,10,-1
 125.92 0 l 1,11,-1
 326.58 1147 l 1,0,-1
EndSplineSet
EndChar
StartChar: uni029D
Encoding: 669 669 669
Width: 682
Flags: W
TeX: 0 0 0 0
Fore
354.299 1556 m 1,0,-1
 519.899 1556 l 1,1,-1
 479.137 1323 l 1,2,-1
 313.537 1323 l 1,3,-1
 354.299 1556 l 1,0,-1
-136.437 -426 m 0,4,5
 -409.137 -426 -409.137 -426 -370.475 -205 c 0,17,18
 -334.611 0 -334.611 0 -91.6113 0 c 2,15,16
 82.0889 0 l 1,14,-1
 278.024 1120 l 1,13,-1
 443.624 1120 l 1,12,-1
 247.688 0 l 1,11,-1
 410.589 0 l 1,10,-1
 383.473 -155 l 1,9,-1
 211.75 -154.657 l 1,8,-1
 175.382 -267.409 175.382 -267.409 116.607 -330 c 0,6,7
 26.7402 -425.707 26.7402 -425.707 -136.437 -426 c 0,4,5
45.2021 -154.325 m 1,19,20
 -117.652 -154 l 2,27,-1
 -224.53 -153.786 -224.53 -153.786 -230.975 -205 c 0,25,26
 -239.131 -270 -239.131 -270 -128.046 -270 c 0,23,24
 -33.5459 -270 -33.5459 -270 9.13965 -221.5 c 0,21,22
 28.8721 -199.079 28.8721 -199.079 45.2021 -154.325 c 1,19,20
EndSplineSet
EndChar
